<mxfile host="app.diagrams.net" modified="2024-07-11T06:33:40.580Z" agent="Mozilla/5.0 (Windows NT 10.0; Win64; x64; rv:128.0) Gecko/20100101 Firefox/128.0" etag="ELpsl7t6BrHszZNuOgeC" version="24.6.4" type="github">
  <diagram name="Page-1" id="PkWN_rg6h9mDELbyVowy">
    <mxGraphModel dx="1164" dy="774" grid="1" gridSize="10" guides="1" tooltips="1" connect="1" arrows="1" fold="1" page="1" pageScale="1" pageWidth="850" pageHeight="1100" math="0" shadow="0">
      <root>
        <mxCell id="0" />
        <mxCell id="1" parent="0" />
        <mxCell id="9ONS5Pu-zSQsGi_yFV8N-2" value="" style="shape=image;verticalLabelPosition=bottom;labelBackgroundColor=default;verticalAlign=top;aspect=fixed;imageAspect=0;image=data:image/png,iVBORw0KGgoAAAANSUhEUgAAAbgAAADsCAYAAAAGorPmAAAgAElEQVR4Xu2de5xdVZXnV8SGIAgKGvMQyAtCAj4mJM70fGYcQ4AgbUIIrWgcP3Y3kLJAGiTQEsemDPZH6J7wEqVIYmztbhEVYl4EUNJp7WnHNjFOIyQEEhKEJBBQIYISfDB3ncq6rLtqv86999y6de7v/JPUPXuvvdZ377N/Z+29b9WQVyoX4QIBEAABEACBkhEYAoErWY8iHBAAARAAgYwABA4DAQRAAARAoJQEIHCl7FYEBQIgAAIgAIHDGAABEAABECglAQhcKbsVQYEACIAACEDgMAZAAARAAARKSQACV8puRVAgAAIgAAIQOIwBEAABEACBUhKAwJWyWxEUCIAACIAABA5jAARAAARAoJQEIHCl7FYEBQIgAAIgAIHDGAABEAABECglgWSBW/7gPjr3a0/UQPj2/zyWZp/0+lKCaTSoex95gb764+foXx57kZ564XeZueGHv5beM/YwumDqG2n6+MMabQL1QQAEQAAEAgSSBe4z9+/NzHzmtGF9/5qfQbmPwDMv/p4++s0n6d8e/zWNO/pg2vfSH+hbHz6G/lD5mw3v/9rP6MihB9Gjz+6nd485jP7xvLfS0a87COiaSODr//E8bX1mf10WJw0bSh94+xF11UUlEACB9iPgFTgWsIXrnsnlcc/0N1cFMFfFkhT+5W9+T39862P0zpFD6fo/GVH5//aKuB1L//mYQ7MIf/iz39B5tz9BP7hoLF2+Zg898NRL9H+7x9EbDn1NSQgMfBhH9GyhVR89ti5HZv/Dz+i5z0ysqy4qgQAItB+BYAaXmqWllmu/8Jvr0Z/fuYv+8Aeir35gFN3+/56nz//g5/TDipjp611ffIwu/29H0wffcSTNveNJOuzg19DSOSOb60gHWzvyM1vo+TpF6g2VuhC4Dh48CL10BAapwH2feib30thvf50+elx79Mkjz75M71myg3Z+8gQ6+KAhdP5duyqZ2+to3rveWOPgrT/8Bf1k90uZqO3/3Ss09u8eoe91jaHxleXM1l3N5Me2LiW66Se08N2ti8DX0tBPb6ar3vOmuhy57l+epZf+ZlJddZtbqWCm37+aTrlsNdGJl9Ly2/+M2uQRai5CWAOBCoFkgbPLlfKHwHlPLn8G1/cAr6npghPpL5MFK3WCTi3X+Fi4cu1TtOhff16Xoav+x5vo2jPfEqnbKDNtvnVcXm21NW0WL3C2H/KM27qGR5MrPU5fnTubHvtYoy8krenPJgcPcx1GYAAFzmRgB94q35eUCaQ+XKnlGu/1d9y8jf7hA2+ld4wYmhl782cfpq3zj6ejzCGSvS/8nt75+W20+1MTsnKczf1FZWnzJ385LkHgmpW1to5LqwXOLlF+f8evs5OsV1f2h2MX79/tWxjbg6tl9/hXP0Rz7psxiDKhZvV9s+zEegX3QaB+Au0jcBwDi9xtY9Vk0fe2+fmH+aZ+U7YPl6McfYXmnnMzbRU2M2+mH2draD6b9UPkmpw58OTIy5N8DVnwEL1y7UlOo/reiy//gYb9zcP04jWxpbHQhHLg3k0z6L7L+mK2Lwrf7/lP9InKqhRfEy69lI6/+b4DS7z96xLNpBs3XUN6xVHXr13a0n55/DjO0xeyVJZ51b/NenrECtyZX36cvrfjRXpywYToidXXVwTuVzkFrjJo1XK5ib+6BOgec8z0trEr6HZZZ6+O/7H05ZoleH/9ddMlEzPj4/EK8y+Ppdtr1o1N9pnyTNT00YFx5exPMtsG9XPJ+r2AsVHPeEKdwU2gvQSuZrKojHGelOmAMPEDu4Do2mzPoPZhTi2XPTdem411JAscH1AY+tp8Avfr375Cb7pmC/36s40KXGXJVybUbHKgqkjZLCP7+WY6sCR8YNJT+zHO8ipLqWHYb4L3+WEFmn++n6YbIW2sF4hE4JZt+CXdv+1F2vnLl2nOyUfQP/3kOTr35CPpE5UDPq8/5DX0s+d+S6d9aSf9+8Vj6Y2H9n1V4/CrN9MLuV807ESu4j8QjHfMcT+tO+3Ai1ff2OwTvMdrxCKpfuX56FlwHz0647pMMLkPF1Df/2uv/i9K/meiIqw96+k9Cw/s09WMK1d/6hWGBrhkY6r5Y6PRsYX6g49AGwucK0u7qqJwfLDE8XZY3b/jt11XuUzezFumLttY5/ES5T+ddwy9bfghmaGjr3mYtl95Qr+vAPzi17+nCdc/Ss/89YlZuU27XqILlu+iTZekLFHafUvJekKTjSvzC/GznHz1ZQIK2Uq91xh7XVsE7pRbttOmyvLvt+YeQ++qfE3j1KU7afe+39KPK5yfq3w38cb/8yzds/UF+ujkN9BFf3wUTRp2CB1WEbi8mXTty0CMNXtqx6fmmMJU1edVigMvfVQRtC/TDHr0sb6s7fs9H6Idf+E6hBUTptAzkac/84wxF5dmLcc3b2zB0uAj0IYCpx9y30EUx9thDXtZznQ9zI0cbvF3cCOHTP7q3W+iv31vyiET30MfEzj7NhybfHyTsMTvqx/zw/r/6pJZ2t5r/AETgft95esad2/9Fc2rvDwc/brX0tx3HkkX/Zej6DVDhtBRlYz5iEoWt7qS3ZyxbCdVPqosTU7KMri0TFqPIb206hM4/5jj7ClbZiSdzaWOb+mn64gWLKMxt59G67LMR/6tXWbuo5fvmejL9rM9ggNX6NkKZXD+vu9vW/zs49assREfPShRNgJtJXDZw/RY94ElG9dkEZtgbffE3lab1538NQH+kve2K4/PlrwuuGt3duDkkv96VE0jN//bz+mhp/fTksrXBH5eyeaOX/QI/ejicQlfE0jlkZqByYSTJ0PT/FOyjZiQuvqzsT6xe3CfvOdp+sYDz2df39DXFZVTr0v+/Zf06VPfTH9VOcXK16F/vZl+0/BSsWsiD2QjB5Ypl4/tpS+P+fqBr1qkcutb1lw3vbLevI5ooWRu0yt7sevs/puPdWBc9dsTLzKD8/V7aNw3NlZQu/wE2kbgaveF+sDX7vXozqgd9KnlwjYb72w+Dfm7yu/k4tOU/CujWMxcX/Se/9+PpvPefiR95BtP0sGVPbtl545KaLxegevPse/AiH4Tr7wpVw8ceMo/+up3psJ7cHne4iXsZh1df3UPTizv2ve7ygvFS3TG8YfXMN7+85fphMpS8S+unlj59Wl9v0mG91Hj34PL0w+xcfzqy8ijJx5PH7tdMq7U8c0PydU097ZHiQ7svcnhDH/W099/7/NjBK7/3q3u674+vG9G36GZcNkULs0fGwkPGYqUjECywIXibsr34JxfOn11CStrv1omssxiD0zwEkt1AvfZbLxn5Vd1nTLqUPrfZw2nqV/YTt/+yLHZHhBfP3riN3TOP/6MfvTxcTT/7j30H3teqgjguOoEG/bA+H2gcN9EFstU9Sk8XvKpvPFfZjK4S4+nz9984Jiloy9ynaKs7ofW+lVd7sr6gk/dvbp0N+FSdZqwga7gk5D8AlHP9XffezZxiTJ1qVi8CI+5/gKTPr77LTnyYaxz7qMZ3u+UJiyjOk9/2tO3ld1EWb6UZ0udfHSe1O3nU+j5bv7YqGdMoM7gJhAUuM/+8zP0cuW3bXz2jL5fsOy7Pv2dvXToHw2h/zUt/l2jwY0r7v2zlV+2/JHKL1v+QeWXLQ+r/PWAVyq/ZJl/2TJndvx7KA96zRB6+le/y/6qwN+/f1T06Hq8xUZLlGsJ6I5K5vxwnb9s+aS3DKX3vw2/bLnREYX6INAuBIICt+MXv6VTvrCNfvmbyo594Hpj5ZcF//jj42nMUX/ULnENuB/fefQF+vuNz9E/b3+B9lZEjy/+czmnjjuM/uyUN9DpZsls4Bwul8ANHEe0DAIg0G4Ekv9cTrs5Dn+aRQAC1yySsAMCINBeBCBw7dUf8AYEQAAEQKBJBCBwTQIJMyAAAiAAAu1FAALXXv0Bb0AABEAABJpEAALXJJAwAwIgAAIg0F4EIHDt1R/wBgRAAARAoEkEIHBNAgkzIAACIAAC7UUAAtde/QFvQAAEQAAEmkQAAtckkDADAiAAAiDQXgQgcO3VH/AGBEAABECgSQSGbN68ufLbEnGBAAiAAAiAQLkIIIMrV38iGhAAARAAgQMEIHAYCiAAAiAAAqUkAIErZbciKBAAARAAAQgcxgAIgAAIgEApCUDgStmtCAoEQAAEQAAChzEAAiAAAiBQSgIQuFJ2K4ICARAAARCAwGEMgAAIgAAIlJIABK6U3YqgQAAEQAAEIHAYAyAAAiAAAqUkAIErZbciKBAAARAAAQgcxgAIgAAIgEApCUDgStmtCAoEQAAEQAAChzEAAiAAAiBQSgIQuFJ2K4ICARAAARCAwGEMgAAIgAAIlJIABK6U3YqgQAAEQAAEIHAYAyAAAiAAAqUkAIErZbciKBAAARAAAQgcxgAIgAAIgEApCUDgStmtCAoEQAAEQAAChzEAAiAAAiBQSgIQuFJ2K4ICARAAARCAwGEMgAAIgAAIlJIABK6U3YqgQAAEQAAEIHAYAyAAAiAAAqUkAIErZbciKBAAARAAAQgcxgAIgAAIgEApCUDgStmtCAoEQAAEQAAChzEAAiAAAiBQSgItFbjNmzfTmjVraP78+XTQQQcNeqA7d+6ks957Jn3x1l6aNm2aN57UcoMeCAIAARAAgTYi0DKBe+CBB+iKK66g/fv306mnnkpXX301DRkyJAnFuXPm0JYtm2vKxkQlyXDOQsuWfYmuX7SINm95OKuZKlyp5XK6g+IgAAIgAAIBAi0ROBG3Y489lk4//XS69dZbacaMGbRgwYIkkWOBmzDhBPrctdcNaGdagUt1BgKXSgrlQAAEQKB5BAoXuE2bNtEnP/lJOu644+imm26iww8/nFavXk2LKpnQ+973Prryyiuj0YQETkRHjKy9514aPXo0+T7ncpMmnlhtc34lqzz//Auyn/lz/nnt3WurGaNkitYel5s+/bSaJcpPLbiKVqxY0c+2FbiQb1EYKAACIAACIJBEoFCBE3EbN24c3XjjjXTooYdWnVq+fDndfPPNdM4559Bll10WdNYncOvXr6eLL+omETX+ecyYMbRjxw7n5yx82pbUFxET4RN7XJavuyq+8hVbouT7IpYidrycqQWO7bh8Zt9wgQAIgAAINI9AYQIn4jZhwoQsWxs6dGg/r++44w7q7e2luXPnUldXlzcq1x4cC4cVKDEQ+1wEjMuz7bP+5KxMmCSDE5GyghYTOB2AFl/+XA6jiMANxB5i84YNLIEACIBA+xMoTOB4WfLFF1/0ipug+cpXvpKdrLzzzjuDAufbg9PLfbNnz67u07k+t0uD0qDUa1TgRNR0ICymWuD4tKXP5/YfLvAQBEAABAYPgcIE7uWXX84oHHzwwVEa+/btoyOOOKIugbNZm95T43siOvz52LHjapYHbYONCJzNzHwZnP46gfZNssYoLBQAARAAARBIIlCYwCW1nljItwfHmRAf9OD9K9nnYiHjy/W5LEPqTE/27dhGqsDJEqfeW3vsse3ZVwjknuzB2QyOy/l8S8SBYiAAAiAAAgkEBo3A2e/BiZCxqMglwmWXIrWgiShJnYkTJ1UPkcQEjuvIQRTXKUq9V8ht8olKl8C5fE7oKxQBARAAARDIQWBQCFyOeFAUBEAABEAABDICEDgMBBAAARAAgVISgMCVslsRFAiAAAiAAAQOYwAEQAAEQKCUBCBwpexWBAUCIAACIACBwxgAARAAARAoJQEIXCm7FUGBAAiAAAhA4DAGQAAEQAAESkkAAlfKbkVQIAACIAACEDiMARAAARAAgVISgMCVslsRFAiAAAiAAAQOYwAEQAAEQKCUBCBwpexWBAUCIAACIACBwxgAARAAARAoJQEIXCm7FUGBAAiAAAhA4DAGQAAEQAAESkkAAlfKbkVQIAACIAACEDiMARAAARAAgVISgMCVslsRFAiAAAiAAAQOYwAEQAAEQKCUBCBwpexWBAUCIAACIACBwxgAARAAARAoJYEBF7gLL7yQuru7afLkyXUDZhsLFy6kkSNH1m0DFctJYMiCh+ihT4ynScMOaVqARdi0zrWijaYBgSEQaFMChQocC4+9ihAiCFybjq42cKsIoSjCJgSuDQYLXCgdgcIFTgvapk2bqLe3t+GMzfYCBK504zIpoEkTT6S199xLo0eP9pYvQoyKsAmBS+pyFAKBXARaKnDsGYvcypUrsyVFvrQ4iQBKBEuXLq2W4WVMFkd7L2ZDlj+XLFlCI0aMoJkzZ2YmrB+amiybSnt6CdX6qO+56rFdlx3+vKenh3bv3p01XURmm2skDMLCqQJ354ePoT/92hPVCF+59qTq/+96cF/NPS577slHVO9/8OtP0jceeL6vj04bRldPfzNpgZP7YvPkm7bRQ0/vz8rrpVGuo/2ItdNz/97g0mrIb9sW+6Jjjt0fhEMBLoOAk0DLBc4KkhY4/r+ImhUc3l8TUVy9ejVt3LjRKZIsZPPmzauKGIsL22Rh4jpyzwqerz0RNPHLZ1/iEj+l3tSpU7M2XXa4Dt9jkVu8eHE1HozV5hHgyfyktxxCD142PjN6zbpn6Js/fb76MwvUHR96a3ZPREPEwJbl+yx+InB3/nQfbd67v1qfbfHF9vjzD9z+RLUd7UesHW43JnAhv2Mxx+43jz4sgcDAEmg7gXNlMq4lSCuMvgzIJ6CcPYlg2i6w7YWWQEN+hOzYe+xPV1cXDso0+XlwLSeGlhj1PV85/pyzOS1u7LYtz9ncN+cekx1wsfdi7dj7gsVmfvJ5Xnv24E0rll2b3LUwBwJRAgMmcHr5UYuTHEyxS39WwLQgaLHg7G7VqlU1gUtdzr6mTJlCw4cPpzVr1lSzuTwCF7IfE0YrhrZdLFNGx2vuAq6JWwuPZEvasEz+XFcv7Wkx4f/be1zeXtqWXbIMtRMTnJjfVsBCYss+6/u5IaMCCLQpgZYLHAvEnj17quLiy45iGZpezpSyTz31VM3+HjO3e3y8TMl7caNGjfJ+NcEnVDH7eQUOgtbYU5G6B+fKVliceKmQlwJl+dJmYaEMTvbT7N6W7ysJjWRwllI9fmux9mW1LjFvrIdQGwQGlkBLBU6yH5uxuSZ6ztDOPvvsTIRYOGQvi3FxJsaX7Kf5BM7VHtvly7c8aUVR/2wFztrPI3A2hoEdBoOz9VSBO+/tRzr3yaxQ2L0vvafGhOwe3JbKPhsfXhFhsOU11ZDA2XpycMUnljG/uS1fzCLiofuDczTAaxDoT6BwgdNN6oMi8rlv2W7WrFnVE49chn+WpUdrR9vQJxOljhbQFGEJCVXIfh6BE+EUDi42GLCNE5D9Ms7U+NIHTvhnfeqR99Xs4Q59X/a/tFiJKOp74rVuKyRw1g/JDkNfUA/5HYs5dr9x6rAAAu1BoFCBa1aIoUMeeduQfbhGfnNK3jZRHgRaSSC2fxe730pf0RYIFEmgowSOj+NzBub6KkKRkGF7YAi4Dn0MjCeta5WXS0XATrpxW7+GU+63zlu0BALFEugYgePMbcOGDfhCdbHjCdbbgEAsQ4vdb4MQ4AIINIXAoBC4pkQKIyAAAiAAAh1FAALXUd2NYEEABECgcwhA4DqnrxEpCIAACHQUAQhcR3U3ggUBEACBziEAgeucvkakIAACINBRBCBwHdXdCBYEQAAEOocABK5z+hqRggAIgEBHEYDAdVR3I1gQAAEQ6BwCELjO6WtECgIgAAIdRQAC11HdjWBBAARAoHMIQOA6p68RKQiAAAh0FAEIXEd1N4IFARAAgc4hAIHrnL5GpCAAAiDQUQQgcB3V3QgWBEAABDqHAASuc/oakYIACIBARxEY1AKn/9I3/7+7u5ua9Ze6m20v76gqMra8vqB8exGYNPFEWnvPvTR69GinY+vXr6eLL+qmiRMn0V3Ll7eX8wV7E2NTb/P1Mk31J7Vcvf7bevXG00j7rY6RfW2JwPEfG+Vr3rx5jfDpV1eLQKOGm2kr5svq1atpz549QR7N9kfbS+kPLi9/+Zz/b6+FCxfSyJEjY6G2xX1+sOQKCYOU2blzJ5313jOrdTZvebj6/2XLvkTXL1rU755MGDbg+VdcQeeffwGFbHKdPD7GJopz58yhj19yCU2bNq3GHa4n/qTE2kjncVtfvLW36kMo/k8tuIpWrFiRNWdFOcbN+hhjk9ee2PcxjTHy+WP5xPyOteO6H+KaGo8d77Nnz6bPXXsdxca7yx8bo7ZR1MtY4QK3e/duWrx4cRYvT4rNvJopAs20FYpReMRYNNsfa6+np4e6urq8ImUFTgvapk2bqLe3t6kZcz3jImVS0A+yPFBasGIPItf5wi23VDMhnjT4AeeLH/7t27ZVf9a2ZCKVtrSv1mZeH2Nx2/sySbG48cWCK1fIr3r6RLjwS4AWuFA77J/4xHz5EsaWje6LWN/F7tt+CMUbY+6r66on/eHjUy93Wy/ENTUetjF27Lh+L0u2LTvem8m+ER6FCxxnK/qaOXNm9UdZBuTJUi7JGvjnlPsy8doJnLOUDRs2ZGZnzZpF3K5MzNIWL2kOHz6ceLKXa+rUqVlmFbLHmYsWKOtnaKmU/RoxYkTmj1wuX+0SpRYY9peFki/9ucsPX3zMYuPGjd4sMiRw3C7XX7lyZdNfWvIM5thDyg/d/Msvr1mms2+u+i2XBYAf5u9+574a0eI6199wQ78lQZd98Z/tnn7GjGxi4InUZ5PL5/WRxcOXiepMUN62xSeerPgSMQn5JcufHPuWLZuzeqnZL8czYcIJSfHbZVbrE8ejX0jsz3a8SGbES7RySf164w0xte3b8WT7SsaM5sM2Qn7rMSWZrs7EU/pIx+6Lx/rO40SP49Cz6SoXYsE+t2L5vHCBk0yB4XAmZ4VBiwWLIU+6UoYn2dh9l8BZOzwZ894cC4ksk4rY6WU4Kxbys7Vnl/i0n9auHRQ2c/L56hM43bbNBkN+WMGOZZIxgeO4mp1l5hG3lLKuCU0/iDzhr717bfVB4/J8WTHyPeQu+1zfCl/Ij1h71kd5+w+JjU/4UwROx6qzqZCY676Ql4Eli28LCpyPqf3cZnC2b1wCp5e7NL/YeAjFG3uZYj9S+srFRwTO57fLNsfCL0+pfWS5urJ8+yyIfRFV9sO1+uEaGyEWbIfHx9atj1RfnnQ2m/Jsp5YpVODsJGond9cEGcpc7KTqK5s68YbaSvEjRRxtR2jhCIlEamyaqY07TwwhP308UzmnDsZml7MTukwU/C+/nbomLVlqEQGRZU37AIaWZHgyGTd+fDVTCtl87LHtWdh62VD77fJRf6bfxsXHVIGLxWrt6EzW1a6OW0+osXb0XoxropMMxe7TpMYucTBn3lv19W0sXv1SkbdtzlR9fETg7EuL7WfXS03I5xBXW68eAZfn1Y73WDw7duzIDkEVvUTLfhQqcLI8Kctx9mfXBBmasNlh3307meulTukIbn/VqlU186hviTNmL1UcdWOurMkKnpQPCZwVgtQY7MGQ0D5cagbn4txsoarXXuyN3bfcZTe/eTlpXtfHqkuU9u3U+uey67PJD3soY3TZik1GqQLHfodi1ZO4xOjLHC1rmzHEmOrJkt/sefnKCmPefR6xqYW53nhjzGVStxmO1LP9HMuo2J59oXBlT6l9xO0JV5cAxZZ+XSzlM98YDbGwe6kukaz3udf1ChU4niRdly/z4bKxidV3P5atuPaMUkXKl2m2Qwan+bYyg0s5CdqMARqyEZt0XIcI7KSRsq+kH2BXVqh99C1b+kSwHh9jcecRuJA4x9rRdfU+kP7cntoMTYr2not1bE/Il/H6Dhbpvg3Fm8LC1zaPMd6XlL1MF5+Y3772U/xyMa8ng3OJuG+8h1iwHbvvHOvXeueSwgTOdwiBs4azzz472xPjCVkOdXAArr2t2H1X9mLtsC986UMRks2lZD9sb9euXdW9QZefvv072zE2a3L5KmxSYhsIgbPs6h18jdZLebhDp/DsiT3Z19B+6TdLziB470BO+Ln8T3lQ7dtqHh9l474Ze3DWf+uX5ZOnv0IcLFPObuQrDTo7dmVssT7n+/pwTSiGPPHG2mU2tq1QX7kyuJDfvrHqi4/Z+biKUOkxFLIfOjXs6+cYCz3mUzLzPGNPly1M4FynBblh/ebPAscnHGXZ0HU6MXbfJ1D6pKGcatSfiV19kIT9qPcUZarAMZcpU6bUfCHd5Wssu5RO1MxCGZyIksSX9xSlHjS2n+odfK2oF/vek848ZE9Af6YzEN93f+zejEt8fDaZQV4fef+iWQIX8ksmQumnPN9VshNfqB29zGbbsMxjhxHYFveZfFfR2qs33hSBY052PPn6yiVwIb9dtuWlwMcvxNUVj+tZCNlwCaV+pmMstO2UlZR65ovCBC7Fmdghhdj9lDbarUzs9GKr/I19D65VfqAdEAABECiKAASuKLIBuwO9f5Xym0wGAAuaBAEQAIGmEoDANRUnjIEACIAACLQLgQEVuHaBAD9AAARAAATKRwACV74+RUQgAAIgAAIVAhA4DAMQAAEQAIFSEoDAlbJbERQIgAAIgAAEDmMABEAABECglAQgcKXsVgQFAiAAAiAAgcMYAAEQAAEQKCUBCFwpuxVBgQAIgAAIQOAwBkAABEAABEpJAAJXym5FUCAAAiAAAhA4jAEQAAEQAIFSEoDAlbJbERQIgAAIgAAEDmMABEAABECglAQgcKXsVgQFAiAAAiAAgcMYAAEQAAEQKCWBthC42F/u5vvd3d00efLkUnYCgmp/ApMmnkhr77mXRo8eXYizMfvr16+niy/qpokTJ9Fdy5cX4kOq0ZivqXbarVxZ42o258HEqSUCxwKlr4ULF9LIkSOrH8UErtEOitnn+0uXLs2asb7yZ9bfRv1B/dYS4AdSrnpFyvdQ8+dfvLWXpk2b1i8o1z0RKi6sxSo2aZw7Zw59/JJLnO00SnPnzp101nvPrJrZvOXhoMmYrzmtajcAABZZSURBVLqyZbBs2Zfo+kWLnG3Ze7Nnz6bPXXtdo+HV1A/FmieuPE6x3flXXEHnn39BtZrPDz0+dBu6fmw82/ZiNuvt/x07dmQvXfYSX2N2fc/CpxZcRStWrMjMNvpCV6jA7d69m3p6emqyL9dnMQHKM5hcZWP2rcBpQdu0aRP19vYig2y0EwqonzIhaWGQByo2gbtcdbUlE7JL4Fz3uP0v3HKLMwOLxRK73whey8jno7SR6ouLAU9eIlp8f/u2bTU/jx07rhARd/lu+yM1rlTWEj9P+HxpgdNthcaFiISM2dB4DrWnfbY2U32J9X8eu6GYOQ5hxeOFr3pfdAoVuCVLltCIESNo5syZNWOCRWPlypVZZsSXLEGykMglGZXc16LDoslCyZfNrrjNDRs2ZPf4rZpByjV16lSaN29ev/EZEjgubP1NHeAoVyyB2ITED9z8yy+vERSbCem3Rf2WbD/nrENnf2J7woQT6PQzZtRMyr573LZveVEyHf1GLJOafmMPZTX2Td0KL7e/ZcvmrFN0LGxfi779OcbC1cshPlLe9g+3Y1lq276+su37OPDn3/3OfTWTJTO5/oYbsqXnUB9wGzG+vtHOEzZfMmnH/LAxC5OU8cx1bXvWL805xZfU/s9jN/QsaH9d/uWZVQoVuFDmZEWFlyxF8FavXk0bN26sEUARMhYwvlioWOQWL17srcfCxPt2jWRwAjNmIw90lG0NAdfDoR9CngjW3r22Kjpcnl+K7OfyZqxFQSbGJYtv6zcpu+7x5MRlt259pCoyWoB4ctXLMdaHmJgzUZ0d2WxVvwnbidJmBVoEUli4ejPER8rb/tETKZfRouvrK1fbPg6x8RDrgxDf0IhOETiXuNt+ivkvPoQELq/N1P7PY3fMmDHBZ8En8PXMGoUJnCxF6kxMO6gFwyUevvu2LGdzXV1d2Z6eT4Ri4hTL4NjvmI164KNOsQRcD7r+LLSvZvfqdFmejMaNH5+9kduJyXdPBMeKmrTj8kV/Zu/rrC60B+izrzMX7gXJ7uyeR4pf0oviR4iPlLXLWXYkpAp8Hg7cBu81ChPbJ7FYrY+2fywHn+BI7D4/pJ7myJ/FxnOKwFmbMV9SmeSxy37ySoXvWdCZsm9sp84chQlcTBRiouITrtAhEG3TJ6YuMDFfJBafWKfCRrnWEoi98dqlOPHO9bk86LyxrjOc0LKMvWf3tvSk4JpI7PJZ7ICMPaTB8WiBs/T5np30Xfsods8ylE26sjK77GjFyzcqbPype6chDvZgAy8xz+v6WHWJ0jLWPoTshka2S5hCfvjGYWw8pwica2zHmKT0fx67/AyFngXNkp8RXvWo9+RwoQLHIjVlypSkPTjXyUp9slHux5Y9XSceY9lXTOB4yXTPnj3O/bvWTtloTROILdu5NrJTRCP01sp7erKPpX3h/Tte7vTdmz79tH77gVoAfW3qfbiQwLliDWWAockwxS+fL3qfz/LhjDe2P2T7NzV+qRfjYJ8gPTGH+iCvXd1OSsxWIFxiFhvPMYFL3c9KYaL7P69d115iaP/V9yKaMhsWKnCuE5NyKlELEQuMPgCi99lsJmjv6SDtvWbswbG4rVq1Cl8VSBlNLS4TEzh2J3RC0J7Qkj04+7nsDbkm9dCDae9pX1yZkj5AYn2IxWonP7tvaO1JV7mWCu1yLJeVU2whFq7u1wxkH9J3Ik7vcdkTlr6+sm3GONjsQJaa+XOO29cHeexan2ICZ5f3uL5vXKWcePW1Fxqr4rP1JeVZqMeu71ngMcIZnnztJjXb9009hQocNyoipx2wS30scLNmzcqEhC994MQKnPws9mxZfcJSvhwuIpV6ilL7au23eA5Hcw0SiH0XR2ccer3ffs57Bo0KnEyiEpI9ychZoHxHLGUvzKLRPost24bU0fZjpwNTWcQEzrZjOej9NNf3n3x9lYeDZWSP7of6IMbXN1RdghPyQ8aJa7zFxjPX9Qmc7yUp5kus/+u1q/s7ZZzWMxUULnD1OGXr+PbWmmEbNkAABEAABMpJoO0FDt9BK+fAQ1QgAAIgUDSBthU42atjADi9WPQwgH0QAAEQKB+BthW48qFGRCAAAiAAAq0kAIFrJW20BQIgAAIg0DICELiWoUZDIAACIAACrSQAgWslbbQFAiAAAiDQMgIQuJahRkMgAAIgAAKtJACBayVttAUCIAACINAyAhC4lqFGQyAAAiAAAq0kAIFrJW20BQIgAAIg0DICELiWoUZDIAACIAACrSQAgWslbbQFAiAAAiDQMgIQuJahRkMgAAIgAAKtJACBayVttAUCIAACINAyAhC4lqFGQyAAAiAAAq0kAIFrJW20BQIgAAIg0DICELiWoUZDIAACIAACrSQw4ALHf627u7ubJk+e3Mq40RYIgIAhsH79err4om6aOHES3bV8eUv4TJp4Iq29514aPXp04e21sq3Cg0looKh4B2KcJITrLFKowLF42WvhwoU0cuTIev1NqsfttqIdcWb16tW0Z88emjdvHrW6bQtEt79kyZLsNvvlu7i8/EHZgeqvpE6ts9DOnTvprPeeWa29ecvD1f8vW/Ylun7RIuc9/pAnCLnsJOy6Jw++dXX+FVfQ+edfQJ9acBWtWLEiu+0SEV971s/Zs2fT5669ri4iIR/OnTOHPn7JJTRt2jSKxRJrnGP54q29ma3QFZuEY31kbYf6O9ZWLCYZEylxWVspPHUZ30tGiKu9F4s3NK5CHJs1TkJtpPRFSpnCBU4LjfyV7qIztlaKzO7du2nx4sWZoPLVyrZdHWzb7+npoa6uLu9LhRW4geivlIHqKhN7gLmOfRi/cMst1eyEJ3sRCn7Yt2/bVv3Z9RCLOIbuaT/lAZZ63AYLHV/cNl/Sfsgm1xs7dlxULFI4hnwI8bSxhNqSiTNFCGJ9GOqj2JhgwdD9HWsrxi9PXDFblqf11VU/1L7rXize0LgKPTfNGiehNmL8Uu+3VODYKRa5lStXOgVBlit7e3uzCVlEgydpFhK+bGbGWcqGDRuye/LmKcFPnTq1mr3octq2iBKLrrQ7atQoGjFiBM2cOTMzZX3WcNkulz3llFOI/XS17fNfx8v1tPDLy4DY0/dc9YYPH+5sn+1s3LjRm8WFBC4We+ogK6pc7AHmdrmMztrsz+IbTzjzL788Ez/9f7kvD+OYMWOq5ew9m63w5Hz6GTOcwsQT2ne/c18mcKH22GbIjo8t+7tly+bstm8JUPugs0dXhpjqg8QyYcIJ/WLX2aNktZJ18NKoXLq/dHwuTvq+jkf3zfU33JAtgaa05fKRbYXicvWBz46UtTy5v0LLwqH2ffdi8Yb61Pfc5B0nNnPVLz2pz2Yj80fLBU4ERYRKZxz8fys+epnNZku8NMiTtwghT+a8l2ezGFvOLt3Zdq0oiIiJ4GngNkOybYf81+2KoMlyIdeTpUV7L1TPtm+Z2cESEzjbX40MtoGoa98SRVSsL3pydE2UMhlwPWvDNVHEJmNdJ9SeCJwsbXL7PgHQkyf/3yeevknW98IQi0WzZN4sKEsW31YjcJwtrL17bXUS55g5Nm5TL8fZcjEBi93XnGNt+XzkNnxxucZ0yI4WSxE05su8tm59pPpSYrPfUPu+e7F4tQjbcRV6bvKME52Bi9j5VkJ8z2Yj80bbCZzN0EJLbr7lQPu5q1xsYtf3WcREREMC4RKDPP6Hljfti4DmFLonPolwdprAyeTE2YxvX8O1lMj1ZDmR/8+Tlr5c9/Rn/GCPGz++xoZ+m9UTmNiO2RQ/tFDoN2qxaScgmQA5i/H5wLZ9E5crFle7upwVfZ9t1+euz1xLpNYHzq55v1UyVonVx8XGnBK/Ky4ZF6F29NixPK2f1q8Q17zMfTG6XixkFcA+NymcfKLkGpuhZ7MRceO6AyZw+mCDK5uTwEIHH7QIaRAugbMTfEwUOIOaMmUK8dLfmjVrnEt8ruzI1bbtJF+8ui5nnatWraqpmlLPJZKhfbiY0McEstEBWGR9mRRlwnNNkq4HuxkZnG8pVOLliYnf2PktPpbBWUZasFz89MQv913LlNqHkMDFYuG6NgaXELgyT9dkaeMLZXU2fntQg5dK53V9rLpEaTnotlxxxuLy8Q9l2bYd1/6bCBfvverMJpT5p7xUhMaO3OOY9IuCfW5CLys2bnuQhW1zH8TaaNa80HKB0ycOZfKMCZzvRGSRGZwsU/L+Gu/J+b7GYEU2JXvU4u3KxJ566qmafcoYp5hY+14ErHi5eNr+atbAa4Yd34Mmtl2ZkZ4EXPdlstaHE/gzefh37NhRc3BB35Oj7i7BCk2ErgkuNBHFBCfGRfuibbnqpcai9/y0fb3X5hJZXwanD+awPZ3d5hk7sfhi92Nx+fo1Zd9T6rqWgGWc8jiUvVTLlTN53z3mFWNrfRcWsecmdZy4xrXUXbfu/qx5u+rh27PO0+e6bEsFTrKSPMtroaPu9p5vD47L7dq1q7rM6NqDc4moHBrxLU8yyDx7cLaTfGJoBc5yC4lobDnW5YMrm+Zyrv6qd6AVUS82kfuWteQNkvc9fMftQye8Yqe/fHtyLI5yEMVmJfWe9nRx5fb5srExj5APLp6ph0usH7ae9UnvwelDLbqc7E018pUIvUzM8fnaYv99PurYUniE7Pjq6/4PnVgNte/K4GLxuk4Rh54bOaxjBdzllxU4yeZ0BmcPgDX7O5GFC5weHPYACd+LZR9SRuxYG/qEopw0lIk5zylKl8ClfI9MljIlw3O1rZdZtf8hodJxzZo1K1uuTFmitO3nPUUZ668ihKpIm75TXL7vJdnlTPFNP4ix7++ElnDEnt3XiH1/y1fPx04vU+q2fJ+zndT9sJT+ck14OhvS+1Wc5cn3EbWvsT5y+aHbkOxRynF8vrakjMvHvALH5X12Qi9lum98E31egQvFGxoLsdOPru+Funy2/cH9bPdIhW/K10pSxp4uU6jA5XWm3cpb8XL5FzulONAxxb4HN9D+oX0QAAEQKIoABM5DloWLxcF3+lBXa9d9qpQMtKiBBbsgAAIgMNAEIHCOHpAvhbfy130N9EBA+yAAAiBQNgIQuLL1KOIBARAAARDICEDgMBBAAARAAARKSQACV8puRVAgAAIgAAIQOIwBEAABEACBUhKAwJWyWxEUCIAACIAABA5jAARAAARAoJQEIHCl7FYEBQIgAAIgAIHDGAABEAABECglAQhcKbsVQYEACIAACEDgMAZAAARAAARKSQACV8puRVAgAAIgAAIQOIwBEAABEACBUhKAwJWyWxEUCIAACIAABA5jAARAAARAoJQEIHCl7FYEBQIgAAIgAIFr0hi48MILCX8/rkkwYSYXgSELHqI7P3wMnXvyEbnq+Qo3214znGKfHvrEeJo07JBmmIONDiFQqMDJX8UWllOnTqV58+a1JdpGBarR+gMNJeZ/7P5A+x+arM97+5F0x4fe6ixy14P76E+/9kRHT56DQTwGg4/t+gx0sl+FCZyIm85qVq9eTTNnzmxL3o1O4I3WH2goMf9j9wfC/0kTT6S199xLo0eP9jbPE+NJbzmEvjn3GOfb/8k3bcvq+u4PRFytbnMwiMdg8LHV/Yb24gQKFbjFixdny3auy06Y+mf+f3d3N/X29larLl26tPr/2H0uuGTJEtqwYUNWZ+TIkTV+6PrDhg2jvXv3Vm3rLLOnp4dYqPmyy4/a/qxZs2jVqlXeJcpNmzbVxMKxTZ48udqmtSUvASmfu2LTvoa4sh/Dhw8njlMum2W7snAuO2LEiOrLCse3cuXKLP6UvvFxtZx0n7vGUKrAcQbHl83irln3TPZ5z/17swyOf+YlsKunvzn7nLM7vvfgZeOdY/iDX3+SvvHA89k9FlFdTpb5ODvU93SdhacNq7bN7Uo2KY3pZUdtj+/be+z/nT/t81df3AbH47I9sdLmSTf2CTxfkulaMUmN0/rlglavLfEpbx85Ow4fdgyBwgQumzgOTJwukYsJnJ64OfPbuHFjVaS4bui+Lc9CwZcsj9r6fM/6o+vwJK/F2trnn0MCx7akbZnEZfK2tvg+i1/q567YQgIn3KwfsQxN3+e63B8SE/sgghfrmxBXrhsTtbxPpkyMPJHbPRx7b8ve/fStikiIEPJkrAVPt80T7Td/+nxV1LgsX1JXMkcterYO/yziyu2wDakvgvTKtSdldrU91z0bmxXnmG1dXwtcnjitX7avGrElPuXpo7xjBeXLR6BQgWNcMvnnzTRsxmQzkXruy+TpmsxDgiti3dXVlQlrSv3QUInF4hJcsedr2xdbqK0UP3ztajHiFxl5iYmxsfe5bohro4+cTIyc3WyuCJgICE+28rOe0Pn/Iiq8fOnL3lxLZrqu775PZF2HJ6xfPhFKbUuzbNS2Fl6fX7bv8jLz+ZjaR42OHdQf/AQKFzhBJEJXz0ScIjB2orSZQGwydwmc7V4RVVemEcqAJHZtL2RLBM6VzcTajmXGoewudArUleFOmTIlW+Jcs2ZNTXZs7di+8XGVuPlfu4xb76MWmiRlYtZlONN5/9uOIF6+YxH0HU7Rk6z4FhINycJEGFx1JKPTsbp8FFu+e67MsxHbIZ+taIX2yvIy8/FM7aN6xwzqlYdAywROROrss8/OluDyTMR2ws+bxaTW903+trtjWYour/enXNmQTxjzfK5FLw/XmOjrOKxdWabkpclRo0ZV9xTr6RvX4xRbMuU6qXtwIgSStXG2pLM5PZHyMhsvU3IZ3jvzHb3Pm41YUbICx0tvdr+vnizLtW/o+qwe29rngczgUvuoPNM0IqmXQGECxxPgrl27ak5N6kmL3+o5A+ADFXYPi8vpww6ufabQfS7PbcuyWWyfSgRQC5ytowHbe3IYxJUBWYGzsVpbsgcX+jwUW4xrszI4eWHhf/Uea6zvQlw1Y45DXoZ8gzuvwInI8L+hZTU5WelbnuT6nEU8+PRLwT04uxxp9+nkwAWXswJn9+dCmVIsc7QCl8d23jhDGVwjtqzdlD6qd1JEvfIQKEzgZAKUU4j8s1520ifm7ClEniTlM67n2r8L3ec6sVOUVoxEeLRwsh9yWR/0SUA58elb4tNlXScurS05Yen7PBRbjKtP4Fzx62Huuu8Sq1jfycuEi6vmzZya8ZUSOzHqvTebRck+mBUi3+MeOxHo+mIyT8wPPb0/M8knIfV38PQ9e8IyReA4NjnVKT7LyciQbRG8ek9Rpu7ByYtB6ORp6j5jah+VZ6pGJPUQKFTg6nFIJsA8+0H1toN6jRFggeMsXH/lIWVpsbFWi68tezzN+s0gPo95mZRPd9o9ruIjHPwttKqPBj+pzo4AAtfZ/V939PL9uNBhnrqNN6kiZz2pl4iMFp089WPtuESMs6qT3zK0X9YVs9Wp90N9hJeETh0V4bghcBgXuQmE9hwHcwan98SK+J2HekmToYd+hVjuTumQCkX3UYdg7Jgw21LgOoY+AgUBEAABECiMAASuMLQwDAIgAAIgMJAEIHADSR9tgwAIgAAIFEYAAlcYWhgGARAAARAYSAIQuIGkj7ZBAARAAAQKI9AUgduyZUthDsIwCIAACIAACNRDoCkCV0/DqAMCIAACIAACRRKAwBVJF7ZBAARAAAQGjAAEbsDQo2EQAAEQAIEiCfx/GLcHRFmviVYAAAAASUVORK5CYII=;" parent="1" vertex="1">
          <mxGeometry x="40" y="280" width="440" height="236" as="geometry" />
        </mxCell>
        <mxCell id="9ONS5Pu-zSQsGi_yFV8N-3" value="" style="shape=image;verticalLabelPosition=bottom;labelBackgroundColor=default;verticalAlign=top;aspect=fixed;imageAspect=0;image=data:image/png,iVBORw0KGgoAAAANSUhEUgAAAM0AAAAxCAYAAAB57C0LAAANiElEQVR4Xu1ca1hU1Rp+cUQZY0yJRDwmXtDH2zGzskwOBIYkmmZ5OSJpakqJJogoeE1AIQXBvCSezI55KTMI8xKSqPhoZKGP5yAqqSCeAi9cAh5EtuT59p7bnj0zOHuIFFnrTzl7Xd/ve/f3rXetjc09KmCFIcAQsBgBG0Yai7FiFRkCAgKMNMwRGAIyEWCkkQkYq84QYKRhPsAQkIkAI41MwFh1hkDjJ01KAHqHHRMs2XFqMg6F9no4rPqwzssidL7Bu73CkKEGFUlp89HTonZNoxIjTUPZmZGmoZB94P0y0jSUCRhpGgrZB94vI01DmYCRpqGQfeD9MtI0lAkYaRoK2Qfer0WksQn5weREc+b3R3BKPlIvlpl8fi9uEFwis1BQVmP0/OD0Xni1Z5v6A/CwOufDOi+LEGdCQF0wPXqkCWqLjIR5WL77LAorOcDWHs79xmFZbDDc29saYsEVIWt7IuL3pCL3Wgn46oACdo+74Hn/RYieNRgOptCrzsW+daux6ZszuFZSCaEZP07317F462J4tqZ/10GagsTRGJ5wHrX8aJ2nYtfe+eirm1o1cr9choWJh/FLobpvW3tndPd6FyuXj0cPO9GEpGPMVmD3sjBsPHQRN6probBrh/5+kYgN8oCTZOl8L9W5X+KD8E1I/6VQWLu+fimW9aufesYV/Ywdm+OxJ/WiHiOFEo+7PAf/hTEIHPyEaCHnsdp7NLb+j//JA9HnE+FDc1sQvBpHr/AYqG3yj+AEfDi+B8QQGOGssf/SnWcEDOq0v0UvEONKjxZpJkXB98RybL4suLFhsXXFjJ3JCNJ7Jw4E9sG8dN51TReVewwOJr5uQBwuOx5v+CXC1BCkz2JK8vcI5fVZM6Thsldh1D8/RT4/rIoc5GAiRmn9h8vGZr8pSMiuMDkhRRsvRO3bqK8vHoPW7p2xDFuFjg2LyisOaRuGg+eytpSkzMSIRekoM7F8lbsHOmccw3/5ylZJzvsxq28IzEOrgnvMd9ikW7ghaebHAB/TMYIxCgq08VqBfRtENrEQA5iwv5WcsezuWWNJz5RKJW4374YJS5Zg2rNPAjezsCUqArs0TqjoFYz9SQHopEErJaAPPiwagRnh0zGyvysc7DhU5CQhfGYE0q/z3iQiAd+m+HP4e6zAacHRFHAaNBkhc/wxgIbCzQtI3rIL92b+C7PMkaaY0p5h9AbnvcHIiOVE4iFEYv6hCn2nRiNu9it4SlGOnO2BmLLqJ8GJlETkI0RkgQAih1EoFICjB0Ji5mJop1a4mboY78Wd1JDCFYGp+xCoXXhBIt7wjccFYR001oSlWPTOs3gSN3H6k0hE7srWO6xVpKF19o1B0fAAhE0fhf6uDrDjaB1JYQiMTIcaWvH5j5g0SiiVNWg9aB6ig33QqVUVClLXIDxO047m67vxJGI9NaFThIFc+zPSCH7cC0EHkjFD6xz8b/T2jvEdg21C6DckwbW8PLTv0gXSzIX7ehqeXnxCwHTAwlPY/hbvohzSggZiTuptgTCdp36JlNC+Rm11hpBGmqBarB45Xh0JFJ0x5YtvESqKejgdAfeJO3GLOnAcuw2HIwaK+haPPQALf9wJf0kKCOVgRKZtwZu6rIfDiXB3TP+mVLIO0FBu8N/Fj6RAz6CDSAoQAwaUfO4Hj5WnhfTRukhTgLw8Z3TpYoQsvp72dyw5KSCrXwfEpDG1fpoT2cSbbCKgTy+O0/TiEHoX4QwF9XmMsBFnfnXYn5GGfwv7rENmgreRIxfSHmII7SH44h5zgdICPVxcRT6yMo7geEYWci+dw/miClRo9ymCz2hvGYhSDkc/bD++lMxeRzEgzRYEXgpCuBBipKmJuo/L8a/itc359H/OmPTVEYT1NexbT2QFvOLOYb2vocMofT9GVpynYSOTKeIlJAwbAWEopQ/W/rgW3ka+vQfv9FsMwbfNRgTJ2smRc8iRRciiIv9nZBw9joysi7h87jyKKipQot448h3rU1kD0kiioq7DI5g34D0c4FkjnpM40lhh/7pMaO6ZRXuao5fKTbYf2Mkel25Vo6TqrsnnL7u2RubVSlRzfxg979ehFRxaNbdmzhY4hqRbk87DITvRHzPWnZXk9bawtwcqNcbVkebCKgwd/SmEgGXkICaWITamSoUachghK5m0B/vDjSNUSkBPIpVlcOiIfz+FzuRzS5Qxc3UMI4LBbMWY8Huzt97BurNl6milLSSW2KNSI7iYI41aCBC91zStjcUCoc79MLC0jmXQC7UsIs0HqddMdjnLzRnfXSgViGOqfODzFBIyClF225hU/rTncHU00EFkTFtUVSZo2nSr/MBMeIekC7m7qq8fQkL84NajIzo40JxM9VkP0ji/5IGWPx4TNv/Gapl6LY2DNJaYSLI3mxCKuX5u6NGxA+0ZxeusB2najsNnJyMw0FJCiOypT7ctWYvpOhaRprEIAW1pL3CC9gLScmrpILz9FZ/bK2kTeYY2kZyZ3FrdUryn0UWachIBXiARgK/gOgvffTtLJyiYhFZCvI+aB2Ms5UT8m9e2WwB2JAeLZGYgO9oT47YV0lOJ+FCXbe/3wjD5XJTmiJ1PPE4hCQVeJBTwv8kVAjhRajdgETJ3vCVS7cS4myMN7c3+Q3szacooxp8EncMk6DhLSONMUfwwRfH72996wvAtHynSQEU5egbl6OIAVkxG9Kb8XNhBUug/Q6HfVhzqpUYqJkK9QptVvoF4T1OADa8NxYZL/K+m9yUGpjBy2HYUTV7V7GuoB4mczaXNwYvvpwobXWMhwIyRrSJNOb6YNAgRP/H0VeKlqO/xiV494F8ZROBhRGAhEZVPGnFEfikKZ7eM0e8xxbYwu6dRkPiSQeKLwW7eYE4Gt9nFQoAjRaB0ikBiwpm0PyON7tMAHgqFk5dOdq0qSEVCWKxGPhYTgCMH7k8OLBwvovPYtdgY6oH2XA6+j16A8H3qiGBIGnKnIyFwm7lfI8eq0HXkTCyezsuiVJPk7R0b9kI5tw7JmXJ9nYJmpMCJiWyLDt5zEfW+j5DWqLjruHnlHJJ3rkdmxxX4fLbm8werSCNZh8IJXiExCPJxQauqqzj00SLEp1/HH7W11qlnHO2HniFZXX1yi7FrN2Gee3twOWmICQvDPt05krlIw7drg6cnRyFyYm+QeG4ogyvpxXeUXnzaQycxaaipbYehWLQmDG50DGDe/o2ANLeq7qCzkw2aN7uHvOs2qKAtUINco/EZhTbpKcg2dbYpSYm4U0sxZPJuQeI1KLwcPPFv2LpNLTkbfqPDiwcTMC1BdI5h0Pj+h5sQn9VIIhaXnYiJU+Nh5mzTeD5WkoYOnJASOByL0yUbdWEEPorOBMI+tPJ7Gg6nlnpSOmyErLCfm9jhU2xTy3Jm1LPB8B15Dql7TcyNyOS1Yj/W6w5FqRsxBjLsXx/aNGh6Vhz1HDwTs9BKeQ82NvppltDue4lXN0x8pl195q5uK3Gc/WPOYcm8j3Do4g1U12qvxCxARIDxVZKSE+sRvvIzZApXNUg16+qJefGrMO78nDo/bKvO/RbrYj9G0k9X8Tt/VUNzzaO371REho+BcDxRh0Mb3AqgN71vfBJivTXpCF3R2b1qObYdyMHV32+r3/akOjk4dsKAYVMwa/Zr+qs0VpOG71RzXWfjIVy8wY/Dr/9FTF4QiRnumZhdr4/QinFifRii/52JK5qrTF1fDsWaVeNxfo5WJaxLCFgJR0l75+5DEBC9HOMM7hHVz/7WOp9FpJGrntXSn1LLK6vAr1WVuHPXWG7mJ9uMSDSypxOmP98Jbe3+BOnZWgRYu4cAATNysiUzu9+Lw5I+ZNaxiDRyzmm6OLRE/A9XcOpX0zefpfPr084eG0fSuQXPIlaaKAKPIGnkSM5p7/XGkG6PI+JwHs7eKEVR5R2TjmDXvBkCX3DB6N7tUXrnLp5g0aaJEoZfdhMnTfAIZ3RUtcDE3k+ibUsFYo/n49DlG6ip1f/128GdHBDm3g22zW2Q+RtdW+Fq8WZ3scTYhP2nSS69iZMmiEhzvaoGCsq2hri0wZs9nkBl9V2sOZGHm/T7fLeudBPgMSJLOf2bbgposjJGmibJFs2imzhp+EhTROTQFiWlYaPoarhvl7ZQ0L7ldFEl8iuMUzZGGkYa8UdoxnfPzODzsAoBcvY02kgjXeLbfdrBpXVLZBdXGa+eMjc+IrHCEGgMCFiknskhjTTSaEGYTKTpbI40VIlFmsbgLmyOPAIWkUbOOc2NZhzKaoxvNddJGhZpmDc2IgQsIo2c9cT9/BuyrlcaNamLNM2o9mimnsmBmdV9gAj86aT5g6LG4YIyfJ1bjPIa/SdIJklDdR1b2WJQBxVasMPNB+gGbGg5CPzppNEOfpuuz+y9XIIDV0rBEZMMSENksW+hEMjSmv7LCkOgMSHQYKTRglBKZzRfXLiFrm3sBCEgt+w2nnOivxH2WIvGhBObK0NAh0CDk0Y7Ep+28YVlYcz7GjsCfxlpGjtQbP4MAS0CjDTMFxgCMhFgpJEJGKvOEGCkYT7AEJCJACONTMBYdYYAIw3zAYaATAQYaWQCxqozBBhpmA8wBGQiwEgjEzBWnSHASMN8gCEgEwFGGpmAseoMgf8DZQF85ioYn3MAAAAASUVORK5CYII=;" parent="1" vertex="1">
          <mxGeometry x="40" y="220" width="205" height="49" as="geometry" />
        </mxCell>
        <mxCell id="9ONS5Pu-zSQsGi_yFV8N-4" value="" style="shape=image;verticalLabelPosition=bottom;labelBackgroundColor=default;verticalAlign=top;aspect=fixed;imageAspect=0;image=data:image/png,iVBORw0KGgoAAAANSUhEUgAAAc8AAACJCAYAAABKDrPuAAAciklEQVR4Xu2dPXBcxZbHm2S9EQSvMLbAVQocgOUlUJWCDSlIJQewfMaSSlUbQLgJKpEQQrBVKkkxX34msFQFBFCEG0gowDYvcWYsf1AvsKPnTbz+X/bMO3Pc3ad75s5oRvd/EzTTfU+f8+u+/b+nu8c88/jJFXiRAAmQAAmQAAkUE3iG4lnMihVJgARIgARIoCFA8eRAIAESIAESIIFKAhTPSmCsTgIkQAIkQAIUT44BEiABEiABEqgkQPGsBMbqJEACJEACJEDx5BggARIgARIggUoCFM9KYKxOAiRAAiRAAhRPjgESIAESIAESqCRA8awExuokQAIkQAIkQPHkGCABEiABEiCBSgIUz0pgrE4CJEACJEACFE+OARIgARIgARKoJEDxrATG6iRAAiRAAiRA8eQYIAESIAESIIFKAhTPSmCsTgIkQAIkQAIUT44BEiABEiABEqgkQPGsBMbqJEACJEACJEDx5BggARIgARIggUoCFM9KYKxOAiRAAiRAAhRPjgESIAESIAESqCQwlHguLy+HjY2NMDMzE/D32tpamJ+fr3RhMqrrWNryqJTJKNpuK4aTaueZ/7oRbnx0Plw4fSoaold+3Fzg35UPzoU3Lz4bvr3+MLz1xa0w98KpcP3D80GXHbefbJ8ETiqBIvFcX18PR0dHPQY7OzvN321P+m3bq+m0Ntoe1Mag99XE14W67371exPm1++95IbriaNX7jbQcoWcPxc/vxk23jjdCGkb16TF3kZMpTa6HHspI9b7k4ArnpjYl5aWwuLiYnMDRPTu3btNhtn2pN+2vZpObqPtQW0Mel9NfNNa98IrL4fvvv8hzM7OZkP47f6j8PaXt5o6yL68y5skvXLPftvlOX/a9rVte22zGKW9Lsc+Sq4n0XZWPLe3t8PZs2d7wmkB2GVbWcJFPZ2t6u9lKXNzc7Mxh6XeM2fONPXlWlhYCCsrK1He8Gl/f78pE1HXNrGEjPZyPqDM2tnd3e0tQbflv+ZzeHgYJGaJW5a4c/Ukyz+Jg68kplLx/OSnP/rMffz6832fkZV+8+uD5jtkaes/3u9btvXKtTFZJpXvZPk0FY+1Lb4hY7xx71Fzm15ClmVXLMWe/8u/hJt//9+e6Xdefa7JrGWSn/vsZrJMlqRj7cdieOXJEnbMHhpI+RqLWbcnS8lST8dmy6SO9e3xp3O9ZnJ+xOJMtWftoIFU7CXjlHW6RyArnpjUc5N3SjwhTLgggMhUt7a2eoKGe0TgRFBKl4H39vbCwcFBzxbulwxYiybazvlg7eCzFs+2/Nd8YFNeCHJxe8y7N0TLIsZkePn9c01lZKA6+4SwXr72oPcdPmvx9MqtB5ikZWlYJno9wev61jbqY3lVLzFL1iw+Y8KPiY4VWPlssyX9Odd+KgZrL+erZWPbs0vpsdisDdSJ8cz5kYoz1p7HPrcXXjYaWasLBJLiCdFDNjiIeNplSNhZXV3tHSyymag+dKTLbAekljdj39f4gHa8LHoQ/3PLsan2uIRb/9hZ8REhlcwrthSnv/PKPY8GWVK192ifS/zJ+e/FFoun1B7utXy1vZTvIoYly6KpOrXM4FcJS4+91/8s7yaBkWSeEAB7pQQyJ1ox8YyJeUo8cz5YO9aPNvzXNiW71XZzTFBvmk8vj/NxkiVbWQ61n2OZjBULm+nkJnnJXHWMqWwllUXhe3ulMsmYCJSKXar9XAyxTDbla0nWOKiYw7ZeEveYxbLVlHjWsB/nWGZb00MgK57IGC9dupT8+ckg2ZMVulrxjGWmJZmn7hKvfmnGCJs5/6UMB6yuXr3aW2727hNfmYWGULLnGZtUwTCX7XgTeko8seyKJV+9LNxG5qnHZ0m2VCOeVti9GGLiWbqU2UbmmWLRFudB7EzPlE5Px0UgK56yN6czoNRpW7u/hwBih36GEU+9Fwn7es/Tiqqtq4HaMjk8JDZy99b4nxJPu8eaEknv5WVcg+Q42/HEMyYE8Ff/fMPuu8nBEhEEr1zHb9uz+6eWlbUd2/OMZW9WrHKCliuLtY/29AuAjcHaq/kJEOpev/eP3stFbM+zVIi9ftTcUpxjQpmLp2RZ+TifB7Y9OQTcn6rI3qe4rA/meFmXd4/NwERUcqdt9SleEfXcXmjMh2byUL9dhR2chLV7scP6r/3S7eGUsD6glFoy1j8RmpwhM1meYCLE3qY9XQtBwF6oHIrRpyuxFIiTrHoS98p11Lpu7OSuJWRty+8xdcasDwjFJnAROHvaFrF7mWKs/VwMti3Ek/I1Nhq807aeeOq2wFf3bc6PWJwpMUzZicU+WSOe3kwKAVc8J8VR+kECJEACJEACk0KA4jkpPUE/BiKQ2u8cyBhvIgFFIPXzI0IigWY15vGTiyhIgARIgARIgATKCVA8y1mxJgmQAAmQAAk0BCieHAgkQAIkQAIkUEmA4lkJjNVJgARIgARIgOLJMUACJEACJEAClQQonpXAWJ0ESIAESIAEKJ4cAyRAAiRAAiRQSYDiWQmM1UmABEiABEiA4skxQAIkQAIkQAKVBCielcBYnQRIgARIgAQonhwDJEACJEACJFBJgOJZCYzVSYAESIAESIDiyTFAAiRAAiRAApUEKJ6VwFidBEiABEiABCieHAMkQAIkQAIkUEmA4lkJjNVJgARIgARIYKziuby8HDY2NsLMzEzA32tra2F+fp69QAJjJ4D/ifaNj86HC6dPRdv2ysfu8P83qP3C31c+OBfevPjscbnDdkmgswSy4gmBs5eI3yDEtHgOcr93j2c/VW5FPRcz6u7s7HiusPwYCLz71e9Nq1+/95LbuieOXrnbgBI7Wzcn2p7dtvxKtePZT5VbUc/FjLqPP53zQmU5CUw0AVc8tVgeHh6Gzc3NgcXDE7dhSXn2S8UzFzPFc9heqrv/wisvh+++/yHMzs5mb/zt/qPw9pe3mjrXPzzvNjKoSLiGTQXbzrfXH4a3vrg1sHh4ftf6Z+t79kvFU78g2JgpnsP2Eu+fBAJV4gmHrQCtr6+Ho6OjJhablW5vb4f9/f2mbGlpKezu7vYt29olXAgzlnTxPa5S26+99lr4+eefezwXFhbCysrKU3wHEU8bsxZPeZmQhpiRtj+kS8Xzk5/+6Gv849ef7/uMrPSbXx/8OU7fOB3Wf7zft2zrlWtjIgbyXW7pNCY29ruLn98MN+49aszZrDTnV2wJF8I898Kp3gtEqe3//Pe/hP/+n7/3wnzn1eeiGfwg4gmj1ldmnu0/K7Q4XgJV4rm3txfu3LnTEyaIIy4IFQR0a2urJ3yoe3Bw0Pc5J55aNGGzxjZEDHuno8g8bcxaPJmFjnew5lqDSFx+/1xTBRmozj4hrJevPeh9h89aPL1y2y4ETZaGvUzSig3aQpYs9+ulZsmexXfPLytIWjThc41txIG901FknjZmZp6T89zQk8EJuOKpTSN7XFxc7H0Vy0JXV1d7B4JsJmr3FnXmmauLBpGF5myjTlvi6cUsGabX3uDdwjtrCFjRESGVw0Be9ueVe77kBAdl+kLWq7PiWBaKlwD47vllxdNmrbW24Wdb4unFzMzTG1Usn3QCrniKqNlMUsTKBqgF0S5j1opnje02xdOLWcclh6p4cvj4hros2Yoo2c+xTMdbRsyJiGSuOuLUISBtx2aSIlaWnNgq8VvXjYlnje02xVN8ScVM8Ty+54Utt0OgWDzRnF5K9cQqlpXVimfqZG/J3mUMD7LXS5cu9f08BsvN+D6VTcZiju1tMgttZ0BaKyV7nja7ExsyQddkcHJvSjyxvIklX70s7GWeWtTsieCae6241Waemm3J3mWsR5HVI3vWP49B5j/32c3eIShrOxYzxXM0zwutjo9AlXhawbTCot22ZXJ4KLZUGxOeGtule57InrHvqsWv5IXAin5MPGPCPL5uPLkteeIZEzPQ0JO8nbzlEI6Imleu6dr27P6p7QlPuHM/r/H88sSzxnbpnqfEq8Wv5IXAy/RP7ghmZCeVQLV4WgHSvwW1h370aVksa+I0bal4ilALeM82DgyJb6nTtpI9ywlgfLZ1Y0KuY7YHhsQ/ux98UgfMpMWFiRv7g/Z0rT2kok+d4nQsTqXqjNAr13HrurGTu16GZwVIZ8720E/OL088JVMVfzzbyCbFt9RpW9jSJ4Dx2daNvTDomHlgaNKeIvozCIGx/gtDgzjIe0iABEiABEhg0ghQPCetR+hPFYHUfmeVEVY+FgLc9zwW7Gy0JQIUz5ZA0gwJkAAJkEB3CFA8u9PXjJQESIAESKAlAhTPlkDSDAmQAAmQQHcIUDy709eMlARIgARIoCUCFM+WQNIMCZAACZBAdwhQPLvT14yUBEiABEigJQIUz5ZA0gwJkAAJkEB3CFA8u9PXjJQESIAESKAlAhTPlkDSDAmQAAmQQHcIUDy709eMlARIgARIoCUCFM+WQNIMCZAACZBAdwhQPLvT14yUBEiABEigJQIUz5ZA0gwJkAAJkEB3CFA8u9PXjJQESIAESKAlAhTPlkDSDAmQAAmQQHcIUDy709eMlARIgARIoCUCxyqey8vLYWNjI8zMzAT8vba2Fubn51sJrW17rThFIxNHAP8z7SsfnAtvXnx24nw7LofA5MZH58OF06eiLnx7/WF464tbYe6FU+H6h+ePy81jaddjM6hTgzIt9ae03qD+2/sGjWeY9scdY5F4bm9vNzGtrKwME9tT92rxHNZwm7ZyvqCdnZ2dpgr+tpe8DKRspPy0LxI5u9qHYbnxfp8AHsrHn871VdTf4W+5cqIjdX67/yjMfXazd4+2/clPf4T1H+8/VSaT0VPj4o3T4ePXnw85m7inxkdvErr4+c2w8aRd+8KB+/A9/CmJ1SefrmFfenLxv/vV7+GbXx80xqzge9ysBx6bWntiP8XUY5Tyx/Lx/PbaiZXnuJbGY8f7O68+F75+76XgjfeYPzZGbWMUL3queB4dHYWtra3GVwhDm1ebgtemrVyMVjy1WB4eHobNzc1sBl0qnjG7WrTl7zb7YxJtXXjl5fDd9z+E2dnZY3EPD+Bfrz1sHmi59Hd6kpCH1QptbgLGPRBLyeAwIUlbmFgwGeu2rShJW3risDZrffQmWlsuEyCEE5cWz5xfg3aotKdXDHLtoL74BL64hKllo/uiZIKu6dtcvB7z1L2x+zw+g3K39+W4lsYDGxA2b+VHXkpyz9Yoxlq2zx4/uXIV9vb2+ooXFxd7n2VpFIIhl57US8r1sq0WDGS7+/v7jdmlpaWAdkWcpC0s8545cyasr6/32l9YWGgyZCtS2h6WifWLgPUzt3ycE084AR+vXr2afNEYRDxh12amFM9/Dkv7lmonVXzGMqNc+gHUD1zsgcfkevn9c31LmPId7L395a2+pUv7xq3fziEumCisGMfagG1MGNa+xAC7//FvzzaTTkzgh/ERApLKoHUGK1mC+ISJEJcIVc4vWRKGnzfuPWruK83aweTiC/9aFL9derY+2VWF2CqDngAlo4uNp0HjzTG1c7MdT7avZMxoPrCR81uPKcnQ9QpCSR/p2FPxWN8xTvQ4trHqz7F6ORbwedRbCm7mCWFaXV1t4kAGakVHCxGE9uDgoFcHE75XHhNPaweChL1QCKAsHYuQ6mxMi68WG2vPLkNrP61d26GeeFqhi90fW9q14qjrwP87d+70YueybT9Vna3Z7A8Psl6ywQR/+dqD3oOVE8+YeOnvYpOlfshtW6iPy4pnagKJ2Y+Jas4Prz3ro2QtOSFLZRUl4qlj1Vlg7kVB97a8FKCt3MtDiqn93maetm/s85sbT954yMVbkqmV9FWMj4hn7jmIjVW8mJX2keUaW53Qzx1YiX0RbPgZyyxjYyPHAnZQfv3eP3ovZqM415AVT1myFcEUIYUgpkQiJwL2nlTd0iXYXFslfpQI73GJp25XMm/5juKZe0f98y1bJv/YpOSV6zdxmaBj31mxkIcW/8VbdaxtWX4S/0Ts7cOdW6bCRIWMSjK8nE3J6vRSqva7hI/ELj6WiqcXq7WjM3CdvUi7Om49WXvt6JWJ2CQqmZXdF4v5kOMFTtjLTvWtF69+YaltG+MhxUfE074QlTwHOZ9zXO19g7wc6GdOj3cvnr89WbHBykBqWT8/e5SXZsVTlmxlqdZ+jomcFtia8pJlSbS/u7vbF11q2dezVyq8g4pnalm1dtnWZs3yAtKVZduSoWwPHeCenHjaSTq3RJk7KORlGqklQHuQAUtsEDdZYrRv1bHsx/qVsomJJJfpxnz0JrpS8YTfuVi1QEiMqb6wrG2m4zHVEzEyEizpWdGt3VcTm3o8DRqvx1wEIzYewcz2s5cJwp59DmJZX2kfoT3hGhO31LNgx3ZsCyM1RnMs7N61feEsmVe8OlnxxEQfu1IZm53YY0KRWvb0MsXYXmKpANb4ITGkTs16y7Z2idXyw8vFpUuX+n6Sgwwf36e4xpaZuyKe3oEhezjGPripTCF20Eb3lXdQSITBPqSlwqzb0pNDLJv1/Io9o2Izxsfz0ZvIa8QzJ/xeO/peve+mv7ene6UsN1lLWYy1twfnjadB4y1hkct6sQ8sqwwxPp7fqfZL/IoxHyTzjL0gpLYuvBUAe1bA61dPKKPPWOrAUOrgi578ISRyQAfGY5O8Vx7LHK0d+IJLH8SRLLQk84S927dv9/ZiY36m9ksttJx4Wp9iwKWOFj/PHyvoXVq2rRVPu2eHh0wfbLGnLVNLV7mDQvoQSu60pm1L9nn0uNBvxMh84H/sdK3cUzIJ2LfsGh/lEEYbe552/Fu/LJ+aCSzHwTJFVianOXVWH8s0PbHwxlOqb/F9Ll6v3dj9ub6KZZ655yA1VlM+g12Kq32Bjfmu9zxzp8tze9ewK/daFnrMl6wo1Iy93stCSjwxoZ89e7Y55aovnVlhEsd+nCylxk6xeuUp8YNIIyPDJadf9XdiV+4XURr0tO2g4qnZ2PhTHaJP/qKOfsGwQik2tOh2STxLBrXOSpCJ6BOImJTkO9iK7WvZJV7Us2+uqQMt3u/6tG+yB2P91adT9SlOid3uhcWELWUTNmp9hA9tiWfOL5lkJc6a3+LFDv5I5mWzUb30aNvIndSOjT1vPA0ab4l4wh87nlJ9FRPP3HMQsy0vHCl+Oa6xeGLPQs5GTIR1n3gstO2Sk9wlc42u4562zRn0DvZ45bXOsj4J1BIonZS03djbbknGV+sb65MACUwvAYrn9PYdPX9CQL9dWiDY1xTx1P+iTwqc3geVOrHvCJ4ESGA6CXj/gElNVBTPGlqsO3UEBsk8py5IOkwCJDB2AkOJ59i9ZYMkQAIkQAIkMAEEKJ4T0Al0gQRIgARIYLoIUDynq7/oLQmQAAmQwAQQoHhOQCfQBRIgARIggekiQPGcrv6ityRAAiRAAhNAgOI5AZ1AF0iABEiABKaLAMVzuvqL3pIACZAACUwAAYrnBHQCXSABEiABEpguAhTP6eoveksCJEACJDABBCieE9AJdIEESIAESGC6CFA8p6u/6C0JkAAJkMAEEKB4TkAn0AUSIAESIIHpIkDxnK7+orckQAIkQAITQIDiOQGdQBdIgARIgASmiwDFc7r6i96SAAmQAAlMAIHOiefy8nLY2NgIMzMzY8Wv28Xfa2trYX5+vhUf2rYnTg1qd9yMR/H/7ByFTdvZ42ijlQFGIyRAAk8RyIonJsGFhYWwsrISRXd4eBg2NzePRYwG7ctxT+xaiNoS7eOKoZT5uP0bhQiNwibFs3QEsR4JTD4BVzyRoa2urkYztfX19SbCVPkkhj/uiZ3iOdwouPDKy+G7738Is7OzSUOjELpR2KR4DjcWeDcJTBIBVzyReeKy2efe3l7z/e7ubi/zlExUAtRLk7IEiEwVly7L3Ye629vbYX9/v7lvaWmpr018BxE/Ojpqym12592rO6PGf9y3s7PTu93GFysX36yAWx8XFxdDzJczZ840scolqwI5e3j5Qbty5frBDszYUnOs/3L3DTvYS8Xzygfnwltf3Oo19/jTud7f315/2FeGum9efLZX/u5Xv4dvfn3w5/h543T4+PXngxZPKRebFz+/GW7ce9TUv/HR+XDh9Knmb9yj/fDaWf/xft/9llXOb9sW7tUxe+XD9gvvJ4GuE3DFExMvJmwrSjKx6jKIgIisTP4iMKgvE7kty90HkT44OOgJAD5rwca9uNAuBHRra6uvbu5e2/ml/uM+65eOL1UeE09rB2ywF+r5ovtDi5y1p/nAr1w/eOKZ6r9RimfJAwqhmHvhVLj+4fmm+ic//REuX3vQ+wzx+/q9l5oyESQRGlsX5RBWEc8r1x6G3+4/6t0PW7hgD9+//eWtXjvaD68dtOuJZ85vL2avvIQr65AACaQJFInnL7/8Eu7cudMTRkzQ8jm3DGozl9SE703aKeHGZG7bh5jLMnLMt5pl25z/IkSpbDJX7tmNdVcpy1TM+iWmjX4o7fdxPHyxJdbcsqsuS9XD98hCtXAiFlsfWejl98812act89qx5cLKZqzyfa09nRXHfB9H37ANEjipBIrE04pUaiKXrFDDSomLzZaQTabu08ujMVGynaPbzN1r76vxH/d6Qp0qt/ysj7Bd44tnr1R4a15iJl08tahJlqfjE2GBIOnlTi1U+NuWob69tC27jJtrx9tX9fy24pgTcvisy0/qhMa4SGBcBIrFU7LNs2fP9mWhMonevXs3XL169an9NU88a++LiWfqFGtN5onl0hr/xY9URpcr9zLPWl88eyif1syzdM8zlmVB+LB8iuVRWdK1GVgu85T9S7uXaNvSgpsTz5pMcBC/9YtAKhuPvSiMa7JhOyRwkggUi6eIAf4bW/azImj3Jq2QpUQ3t6eJtuVwjfhg9/R059gye6+uawUr5r/+2U5sL9Erj71IWDvwA5cW8lKWWCGAvdu3b/deYmJ+jnPZNibsiC+2jx57sErF851Xn4vuS1oRsnuNeg8T7ds9z7892dfEQSQRHVtf+5xbtrX3ySGklBB7fqOtVMzygpArP0mTGGMhgeMgUCWeeq9TnNWToz71ak/FpsQTE37uPplo5TQtTuna35bCtlz2dKm2HbtXQ/f8l5hwT+wUq1eeysKtjzgwlPNFxHTQ07bjEk8rkjIGasSz5KGQ/UlkmLj04SF81qdjsY9pD+roctlv1EIogqvLxC/dVk48rR+S1abE0/Pbi9krL+HKOiRAAmkCU/cvDEFEISyxfcJRdrR30MgrH6VvtN09At5+qVfePWKMmATaJTB14gnhfPHFF5P/6lG7eP5pzRNHr3xUfnXdbuwAz0lngiVkEce5z24+FW5J+UlnxPhIYNQEJl489T8gABi5fy5wlLA8cfTKR+kbbXePgJdZeuXdI8aISaBdAhMvnu2GS2skQAIkQAIkMDwBiufwDGmBBEiABEigYwQonh3rcIZLAiRAAiQwPAGK5/AMaYEESIAESKBjBCieHetwhksCJEACJDA8AYrn8AxpgQRIgARIoGMEKJ4d63CGSwIkQAIkMDwBiufwDGmBBEiABEigYwQonh3rcIZLAiRAAiQwPAGK5/AMaYEESIAESKBjBCieHetwhksCJEACJDA8AYrn8AxpgQRIgARIoGMEKJ4d63CGSwIkQAIkMDwBiufwDGmBBEiABEigYwQonh3rcIZLAiRAAiQwPAGK5/AMaYEESIAESKBjBCieHetwhksCJEACJDA8AYrn8AxpgQRIgARIoGMEKJ4d63CGSwIkQAIkMDyB/wMNsVgKjDU2xAAAAABJRU5ErkJggg==;" parent="1" vertex="1">
          <mxGeometry x="50" y="520" width="463" height="137" as="geometry" />
        </mxCell>
        <mxCell id="9ONS5Pu-zSQsGi_yFV8N-5" value="" style="shape=image;verticalLabelPosition=bottom;labelBackgroundColor=default;verticalAlign=top;aspect=fixed;imageAspect=0;image=data:image/png,iVBORw0KGgoAAAANSUhEUgAAAKkAAAA3CAYAAAB3uWocAAALQElEQVR4Xu2ce1iN2R7Hv9mimkrlkjwOUjzCM2bczrjlqKGZxhEiM8ftjHEZo4e2SO4dRTERjxiN20yuY1xzTSNqDA2TMx4dmgYlhoqU6qnYjPN7393m3Xu/e7f3bnt6m9b6g3jXetdvfX+f/Vu/31obi5fUwBpTQMIKWDBIJewdZhqvAIOUgSB5BRikkncRM5BByhiQvAIMUsm7iBnIIGUMSF4BBqnkXcQMZJAyBiSvAINU8i5iBjJIGQOSV4BBKnkXMQMZpIwBySvAIJW8i5iBDFLGgOQV+ItCehife4QilZO/9SQcTApBJ94VJTgxcwjmJRUD7SZhT0IIulpK3kf13sB6BqkAXrTGp4d+wFwlvaxJWIF6BmkJzi4ejqD9+ZB1moz4ffJaiqSVuJuWgL279uL4vQHYdEheFeklTEotmlbPIK1FpdWm1pWOSMU+adnBIK0VfzBIjZFdDVKL4IuiY6+HvAP5kRwk/kYFh0h7uboP2oanI7f4mdbTk1M88EEnB2NsMkNfqUMgdfvM4AIzvqLuQarIQ/rOGETuOIfbBU9Q+YLUkFmjSduemLl6Mz7hCyFdENzAl4NHYPs9rs9ARN6Ig5+GmIq8FHy9ZCV2Xr6DJ9zLq949bl44pnq2xOvDAM13xeK91DgsWfkN0m6XQUE9bdsPwpyYVQjoaFU1i7BwE/GiZxSuxw032L2VWUexfv12nLqcjYInFeCkgKUtXDp444voCPi7Co8uNDWRwzE1BnMW78GvBdxYstelG0aHRSNIbZ1A5pfvY+Q2XjR4RmVik08W9oUEIfrcbZQpSCKrJmg7YDbWrBqDV0s1eBXVd6xbkBYeRuDQhUgu5t2h1XgBeepMg/RxUjD85ceRL/p6S7hN3YOD8q5VoKpDGhIFfBWaglJNq2TtMHX/KQRpfnjEF2A4pLdi4Ds0Djm6fEzzfrr3KOa+OmMTajIR4UNSELYtRwm2WtNcpwakyoUiVWuhBKuDFyKObYRf0+rBM6ZH3YFUcQlLvSbg+0fK5dm5+WH6oikY0sYGKL+D87vX4lrP7xDuayKkmeT0UeR0Lng6e2HxxiiM6GyPF3d/QOTUWfiee6B2bCWEVAaZzAYeAUuwcHIPNC+/jq1Bcuy5RWGGmrXPeqStHUxwV+Lx/cf0ayIWeq/Ez9xDlwDE7fwcbtzPVk5o5aSKutW4MXMVhgScgut4Ob6YMBCdne1hWXkXZ9bLsWBbBv9hkVFkvkKRWRlPBZBaW8O6oiHcPqmyFw9xZUs4wvcox0HmgaAThzC1jdIGYSS1prHP7PsgOGo2r315biLWhkYjueqTbef7Fc6vHiTYcYzBUbxvnYE0N3YoPthwUwkoiX+SxHfSuX5jI2kJ9k7og2WXOUK7Y0HKbowTRoPcWAzziQU3u+PoePy0rDf9JISU8J2wH8fnq6IsPS7cjjH9V+IaZ6NjAL65sAzcKGUzQ05ako1shStctaJWBqK8RiH+gea8wlRDhu4LUrFzvHCwAhmRHyIgXrmtt550CKfnemhBima0lmRaizCTKNyPyYMX4UIFBzilUf+lNMqMlyR1BNKbWPvhUHydw4nQC0su7MDH9vo+ocZCehyBXYORzAXLvhG4unWURiQQOL7dNBw9KafIJ4SUIk8yRR4XoU368l89kB6Zhs6UNmg3scsHisxXL+DM+R+RmpmF7CvZKCx/osyl+SbMu4WR1Afrfl6HwZogPYjDSK8YZHJDBfmxMJK6zziNhMCqECsw8mzwu5hxgqPU/JckapCeu1ki6vnebWxx8xEJUv5c9Pk/3O2RdqcMlYo/tZ6/3coGTjYN9RFlwDNjI4+RkHJb54htUMaQatqra9bqirA3DGlhEkIDZiPhvjKlUDWZlS0sFeQLnlMdkKpdFQtHi+umVThpVpv0CkP6VCetrudqkIYl3hXtF9jfBacyi3hQxVqYz9+wNvUBiiu0IR7XozncmxmYZ+lcRT2C1CBP3qCdZRTtLHwCDa/pSzFlRBe0b+4MO0tdHw5DNBT06b4QabvGg9uwDAHwdR9HjP72Iv7zOrcxaEX6OtWR7Z6Kpr5UNBXRUqx1bFVqqzQykioop3qbciruHQYfA72hSGqISzMi4T36W/Bp56scWTVQkJroiqQuE7EveT66as51aQn6TdwHXmYqgNKpAOKaENK+EdewxV8zTyjBzrG9seIK11ss9TFkUbr71BFIFUgK6o1ZiXxmTl9g+g5H5gqKFK31GQkpcrHhn0PA12VihZOofrUIqSBvdaGC7QwVbKqmIIA/IoCVqYuO7R7NKNqdpWinVv3gwGfvY7Gy+qHP6q90nKd8LoRURhE2hSKssGhVm1NnKmE6qHUEUlpgLiX1vpTU87mWDM59JiJ41jh0b05/pCOo05sjcWtggslHUCXk+EFUsPAucuiGgAUL8FlvVzR3boTS+/eQdf4gtm/Ng1/iGvCnXGqFk9jFgD6Iz2JO9+ng6wwqNIbHbkKgRwH2HX2KoGnK6KW3CXNou14I2bwOH3duiLz0eCydGYvLr84wdUFKb7dshcELYzBvAAnI6RcTitXJ+cpzUw3QhJBy2jt0o3PWiHHwoNO/h+lbsDx8NzL4Oa0J7hSCW29VW93qtJ6bFdJH5U/RztkCDRu8RHa+BUophTXntaj+w/aq2xCTD/MLkRQ8ErNPVDlKVEqh02sSSRU4G9yXqmGNE3GDU41C2l49aXvVPoq385wE79vbcFjrVk24u/hgmEMyEjLUiy5+yZbumLr7EIIEX7RV2+59/XA98Qi071MIXq/lOLZB39Gg0XzyA8wCaWFETwyKS4eN9UtYWLw25DH5YLGXG8a+28I060RGKfJ+wa6YFdiR/DsecHdynK62Lujwnj/kYYHoxx/9GbvdqyZSIJ+uNpevO4C03x/wV35c5LBq0gSt3H0wSj4NY3uorkZrAim9VpGNA8EzsLLqapG7zmw/Ng7H5vUwTCtu/KJgrD/9GwqolJdZtcA7/wpHdFALxPuKXf1qaHJiNP6nNp6uNnuNR8iyafBsqZ5zahZOK5rFYv4KwfWvSwd4TYtC2JiOqGmJLLb4GlX3L+j/380uLsUf5WV4+lz7+ImbsAFBO6yTM6b0agNHq5oeRRnmP9ZLTAFDqntx5Qyp7t+k5iafk7o6NUbMxdu49If4N6M0je7SwhYbh1Gxw1HLWi0o8BeB1Jiv6iVN7wxvtyZYdiYbVwuKkFf2VFR4q4YNMOPvbekevCWKnj5HUxZNawFQfSlQ9eZIKpIaA6l8qAta2zXC2M7N4dhYhugfc3D6VgGevXj9X/D3a+OEUE83WDa0QNr9UpQqXsC/g5m/IlO9xqwHr0A9jKRBBGl++TPIaPf2busA/45NUVb5HGt+ysZD+vuQ/u3ppuktgrOE/kw3UVW7PIO0tj4z9RBSLpLmEYyqZk3bup+7E3xdHSGjvPNKXhlySrVTAAYpg9RYBUw+glJFUs0J/92lBdraN0ZGYbm2LZQJcBGXNaaAMQqYDKlmJFVNOpEgbacLUurEIqkx7mF9OQVMPictaKBA8TPtbz3phZRFUkadCQqY/E+aV/9yH+n5ZVpT6oO0AfUewap7E9xUv4eYDOmfFBXP5BbjQFYhSp69vkMWhZT6NrOxRJ9WdmjEDvPrN3EmrN5kSFVzVdB1aMKtxzhxuwgKIlcNUoLTtpGMh9OefmeNKWCKAjWGVDVpEZ2R7s18hPYOVnzhlFVcgZ7O9G/A32pkil1sDFPglQJmg1T1Ri4N4Brb1Rll5lLA7JCayzD2HqaASgEGKWNB8gowSCXvImYgg5QxIHkFGKSSdxEzkEHKGJC8AgxSybuIGcggZQxIXoH/AzrmHMUML5xdAAAAAElFTkSuQmCC;" parent="1" vertex="1">
          <mxGeometry x="928" y="200" width="169" height="55" as="geometry" />
        </mxCell>
        <mxCell id="9ONS5Pu-zSQsGi_yFV8N-7" value="" style="shape=image;verticalLabelPosition=bottom;labelBackgroundColor=default;verticalAlign=top;aspect=fixed;imageAspect=0;image=data:image/png,iVBORw0KGgoAAAANSUhEUgAAAecAAADpCAYAAAAecP+QAAAgAElEQVR4Xu2de5xdVZXnV8SGIAgKGvMQyAtCAj4mJM70fGYcwytImxBCKxrHj90NSVkgDRJoiWNTBvsjdE94iVKkYmztbhEVYl4EUNJp7WnHNrGcRkgIBBKEJBBQAUEJPpi7TtW6rLtqv+7r3HPr/s4/qbr7tfZ37bN/e+29b2XEK6WH8IAACIAACIAACBSGwAiIc2F8AUNAAARAAARAICMAccZAAAEQAAEQAIGCEYA4F8whMAcEQAAEQAAEIM4YAyAAAiAAAiBQMAIQ54I5BOaAAAiAAAiAAMQZYwAEQAAEQAAECkYA4lwwh8AcEAABEAABEIA4YwyAAAiAAAiAQMEIQJwL5hCYAwIgAAIgAAIQZ4wBEAABEAABECgYAYhzwRwCc0AABEAABEAA4owxAAIgAAIgAAIFIwBxLphDYA4IgAAIgAAIQJwxBkAABEAABECgYAQgzgVzCMwBARAAARAAAYgzxgAIgAAIgAAIFIwAxLlgDoE5IAACIAACIFC1OK+6/3k652uPV5D79v88muad8HrQdBC4+6EX6Ks/fpb+5dEX6ckXfpflGH3oa+k9Ew+h82e+kU6ZfAi4gQAIgAAIgEAFgarF+TP37ssq+Mypowb+Nb+D7wCBp1/8PX30m0/Qvz32a5p05IH0/Et/oG99+Cj6wytE7//az+jwkQfQw8/sp3dPOIT+8dy30pGvOwDoGkjg6//xHG1/en9NNU4bNZI+8PbDaiqLQiAAAiDQCAJRcWbxXbrx6ara6jnlzWXxrqrgMMn8y9/8nv745kfpnWNH0rV/Mqb08yMlYT6a/vNRB2c9/OHPfkPn3vo4/eCCiXTp+r1035Mv0f/tnkRvOPg1w4RA67txWM82WvvRo2syZN4//Iye/czUmsqiEAiAAAg0gkBUnKuJjhFFD7jkz2/fTX/4A9FXPzCObv1/z9Hnf/Bz+mFJiPXzri8+Spf+tyPpg+84nBbc9gQdcuBraMX8sY3wKeooETj8M9vouRoF9g2lshBnDCMQAIFWEmhzcf4+9UzvpYnf/jp99JhWYny17YeeeZne07eTdn3yODrwgBF03h27SxHz62jRu95YYeDNP/wF/WTPS5kg7//dKzTx7x6i73VNoMmlLfD8nkby47ouJrrhJ7T03fn1wNfSyE9vpSve86aaDLnmX56hl/5mWk1lG1uoyUy/fyWddMk6ouMvplW3/hkV5BVqLELUBgJtSqBqcbZb3K+8UjpELT18Bl195Dww+ayvgHc8/WWy2KaKS2q++r14+YYnadm//rymiq74H2+iq894S6Rsvcx09flxebXVfNpsvjhbP1QzbmsaHg0u9Bh9dcE8evRj9S6m8vFngzuP6kCg8AQKIM4m8h1czb8vKQJLnRhS89Xvr3fcuIP+4QNvpXeMGZlV9ubPPkjbFx9LR5gLX/te+D298/M7aM+npmT5OIr+i9J2+E/+clKCODdqtyA/LnmLs93W/v7OX2c35q8s3YeIPXxe/fzS2JlzJbvHvvohmn/P7DaKQBvl+0bVE/MK0kGgswgUT5yZPwv0LRPVRDewyv/8g5yoIxQ7MTjy0Vdowdk30nbx65wb6cfZvquvzvoGAEdsPLHzljY/I5Y8QK9cfYKzUp324st/oFF/8yC9eFVsOzU0GQ6m3TCb7rlkoM92kfP9nv9EnyjtZPIz5eKL6dgb7xk8FhhalmgOXd9/Feldal2+cjtU2+Wx4xiPL2R7NbNqaJu1eMSK8xlffoy+t/NFemLJlOjN+NeXxPlXVYpzadCqIxbT//K2sXvMMdNbJq6mW+Vspjz+J9KXK45t/OU3niIRsBkfj5WYf3ki3Vpx1mCi/pR3osJHg+PK6U8yR021c8n83oSxUct4QhkQyJtAMcW5YqIrvZ8sKDQoqjzZLCG6Ojsjq5yIUvNl77y3zvpcwOLMl4lGvrY6cf71b1+hN121jX792XrFuXRMIGKQTWxUFlgb3WW/30iDxwiDE7Y6f3TmV9FhBcMh4uSzwy4u+Pd76RSzCKjPC69eCFu5+Zd0744XadcvX6b5Jx5G//STZ+mcEw+nT5Qu473+oNfQz579LZ36pV307xdOpDcePPB1tkOv3EovVL1IsiKk+j/YGe+YYz9tPHVw0TgwNgfE+rEKoUsqX3o/epbcQw/PviYTe/bhEhr4ufIZusjzvxOlRUHPJnrP0sFz6Ypx5fKn3tmpg0s2pho/NuodWygPAnkQaANxdkXHV5TUmS+BOVbl5fNqjjJc+TJpNqt7nbc+7Lyt/U/nHkVvG31QVtGRVz1Ij1x+3JCvSf3i17+nKdc+TE//9fFZvv7dL9H5q3ZT/0Up29r2nF6izdBE6Yq4Q/wsJ195mTxDdaWm1cdel5bI+aSbHqH+0pHBtxYcRe8qfZXt5BW7aM/zv6Uflzg/W/ru+fX/5xm6a/sL9NHpb6AL/vgImjbqIDqkJM7V7mBULmRirNlSOz41xxSmqjzvDg0uWKkkxl+m2fTwowPR8vd7PkQ7/8J1YTImqqF3ohp/VjPGXFwadYTTuLGFmkAgDwIFFmc9QfkujTlW5RXUZAvcNRHVcxHN75p6LoT91bvfRH/73pQLYb4JKybONgqJTZw+AZH++8rH7LD2v7rNmnbXIP5qiDj/vvSVtju3/4oWlRY+R77utbTgnYfTBf/lCHrNiBF0RGmn4rBS9LyuFFWevnIXlT4qbWdPyyLntB0MPYb0drxPnP1jjqPWbGuadBSdOr7FT9cQLVlJE249lTZmEaf8W3k0MUCvundiYJclO1cafELvVihy9vt+aN1i5wC3Ro2N+OhBDhBoPYFCinM2ETzaPbjN55roYuJgwcaihMY5gr9KxX+AZMflx2bbpOffsSe7HHbRfz2iopEb/+3n9MBT+6mv9FWqn5ei6GOXPUQ/unBSwlepUnnYCTgWzVUTGWv+KVFebBHg8md9PrFnzp+86yn6xn3PZV9x089lpdv1ff/+S/r0yW+mvyrdlufn4L/eSr+p+3jBJUKBKHBwa3vVxF768oSvD34dLZXbwFb4xlNKZxQbiZZKxHxK6e7BRnve7GMdGFdD7oA0M3L2+T007usbKygNAkUkUDhxrjwHHUBWebapMVa+sKn5wnXW7ya+df270t/p5Fvb/GckWYhdf4Rk8X8/ks59++H0kW88QQeWzqhXnjMuofFaxXkox4HLXToCKkUo5ctBnvwPv/qd2PCZczXRk3S7UV/vGfpHSHY//7vSYuglOv3YQysYP/Lzl+m40vHCL66cWvqTqgN/oY3vDcS/51yNH2Lj+NWF1MPHH0sfu1Ui3dTxzS/JlbTgloeJBs+a5SKVP9ocar/3/THiPPSugvb1gA/vmT1wwS2cN4VL48dGwkuGLCDQcgJVi3PI4oZ8z9n5BxFe3fbM2i/niWzN2ctNvC1XFh9fnfX7RP5850njDqb/feZomvmFR+jbHzk6O/Pk50eP/4bO/sef0Y8+PokW37mX/mPvSyXxnlQWh7AFxu7BzAOTcGyHQN/25W3CUqR1iUysg2UvPpY+f+PgdW6HL6q6rV0+/6+0q7xFmvmCb/e+ut075WJ1a7kOV/CNa1781PL83feeSdzWTj1eECvCY26oOKaP7yHb1Hxx8ux7aLb3bwYkbL07b5nbW/6l03PZ8pZ3S92wdn4jYIhNofe78WOjljGBMiCQN4Ekcf7sPz9NL5f+itVnTx/4zy58z6e/s48O/qMR9L9mxb9LmndH827vmdJ/fPGR0n988YPSf3wxqvS/UPHfauH/+IIjav672ge8ZgQ99avfZf871d+/f1z06z3Nt394bRveVtqxeLDG//jihLeMpPe/Df/xRfPHHFoAARDwEUgS552/+C2d9IUd9MvflG7XBJ43lv7jhh9/fDJNOOKPQHyQwHcefoH+fsuz9M+PvED7SoLND/+XkSdPOoT+7KQ30Glmm7V14IaXOLeOI1oGARAAgfoJJIlz/c2ghuITgDgX30ewEARAoFMIQJw7xdPoJwiAAAiAQNsQgDi3jatgKAiAAAiAQKcQgDh3iqfRTxAAARAAgbYhAHFuG1fBUBAAARAAgU4hAHHuFE+jnyAAAiAAAm1DAOLcNq6CoSAAAiAAAp1CAOLcKZ5GP0EABEAABNqGAMS5bVwFQ0EABEAABDqFAMS5UzyNfoIACIAACLQNgRFbt24t/dVnPCAAAiAAAiAAAkUhgMi5KJ6AHSAAAiAAAiAwSADijKEAAiAAAiAAAgUjAHEumENgDgiAAAiAAAhAnDEGQAAEQAAEQKBgBCDOBXMIzAEBEAABEAABiDPGAAiAAAiAAAgUjADEuWAOgTkgAAIgAAIgAHHGGAABEAABEACBghGAOBfMITAHBEAABEAABCDOGAMgAAIgAAIgUDACEOeCOQTmgAAIgAAIgADEGWMABEAABEAABApGAOJcMIfAHBAAARAAARCAOGMMgAAIgAAIgEDBCECcC+YQmAMCIAACIAACEGeMARAAARAAARAoGAGIc8EcAnNAAARAAARAAOKMMQACIAACIAACBSMAcS6YQ2AOCIAACIAACECcMQZAAARAAARAoGAEIM4FcwjMAQEQAAEQAAGIM8YACIAACIAACBSMAMS5YA6BOSAAAiAAAiAAccYYAAEQAAEQAIGCEYA4F8whMAcEQAAEQAAEIM4YAyAAAiAAAiBQMAIQ54I5BOaAAAiAAAiAAMQZYwAEQAAEQAAECkYA4lwwh8AcEAABEAABEIA4YwyAAAiAAAiAQMEItESct27dSuvXr6fFixfTAQccUDAk1Zuza9cuOvO9Z9AXb+6lWbNmeStIzVe9BSgBAiAAAiAwnAjkLs733XcfXXbZZbR//346+eST6corr6QRI0YkMT1n/nzatm1rRd6YICZVXGWmlSu/RNcuW0Zbtz2YlUwV3dR8VZqD7CAAAiAAAsOMQK7iLMJ89NFH02mnnUY333wzzZ49m5YsWZIk0CzOU6YcR5+7+pqWusGKc6oxEOdUUsgHAiAAAp1NIDdx7u/vp09+8pN0zDHH0A033ECHHnoorVu3jpaVItD3ve99dPnll0c9ERJnEUypZMNdd9P48ePJ9znnmzb1+HKbi0vR/HnnnZ/9zp/z7xvu3FCO1CVCt/VxvlNOObViW/tTS66g1atXD6nbinPItigMZAABEAABEBi2BHIRZxHmSZMm0fXXX08HH3xwGeiqVavoxhtvpLPPPpsuueSSIGifOG/atIkuvKCbRJD59wkTJtDOnTudn7No67qkvAiwiLbUx3n5uaNkKz+xbW1OF6EXoeYtcC3OXI/LZrYNDwiAAAiAQGcTaLo4izBPmTIli5JHjhw5hPhtt91Gvb29tGDBAurq6vJ6xHXmzKJnxVUqiH0u4sv5ue4z/+TMTFQlchaBtWIcE2fdAb1w4M/l4piIcyvOzDt7yKP3IAACIFB8Ak0XZ97KfvHFF73CLIi+8pWvZDe4b7/99qA4+86c9RbxvHnzyufSrs/tdrI0KOXqFWcRZN0RXghoceZb3T6biz9sYCEIgAAIgEAzCTRdnF9++eXM/gMPPDDaj+eff54OO+ywmsTZRsv6DJnTRDD584kTJ1VsKdsG6xFnGxH7Imf9lSttm0TrUVjIAAIgAAIgMGwJNF2cG0nOd+bMEShfyuLzWjnXZRHmx/W5bF3rCFvOqbmOVHGWbXF9lvzoo49kX7OSNDlztpEz5/PZ1khmqAsEQAAEQKD9CLSdONvvOYsIsyDKI6Jrt6+1GIugSpmpU6eVL3zFxJnLyKUx121tfTbObfLNbZc4u2xuvyEEi0EABEAABBpNoK3EudGdR30gAAIgAAIgUEQCEOciegU2gQAIgAAIdDQBiHNHux+dBwEQAAEQKCIBiHMRvQKbQAAEQAAEOpoAxLmj3Y/OgwAIgAAIFJEAxLmIXoFNIAACIAACHU0A4tzR7kfnQQAEQAAEikgA4lxEr8AmEAABEACBjiYAce5o96PzIAACIAACRSQAcS6iV2ATCIAACIBARxOAOHe0+9F5EAABEACBIhKAOBfRK7AJBEAABECgowlAnDva/eg8CIAACIBAEQlAnIvoFdgEAiAAAiDQ0QQgzh3tfnQeBEAABECgiAQgzkX0CmwCARAAARDoaAIQ5452PzoPAiAAAiBQRAIQ5yJ6BTaBAAiAAAh0NAGIc0e7H50HARAAARAoIgGIcxG9AptAAARAAAQ6mgDEuaPdj86DAAiAAAgUkQDEuYhegU0gAAIgAAIdTaAw4rxw4ULq7u6m6dOn1+wQrmPp0qU0duzYmutAwc4iMGLJA/TAJybTtFEHEf98+4ePonNOPKyzIKC3IAAChSOQizizaNqnGSIKcS7c+Cq8QVqcG2Fso+trhE2oAwRAoP0I5CbOWoz7+/upt7e37kjZ4oY4t98AbITF06YeTxvuupvGjx9fdXWNFtNG11d1h1AABEBgWBBoiTgzORboNWvWZNvQ/GhhFfEWwitWrCjn4a1vFnabFqtDtsz7+vpozJgxNGfOnKwKa4f2qmy1S3t6293aqNNc5bheVz38eU9PD+3Zsydruhk7CsNipAY6kSrOH/z6E/SN+54b4HzqKLrylDdnW9l6W1t+5jwn3rCDHnhqf5Zffy7b33/6tcezNN4Kn1raFj/h+h1lK899++F024fe6rT6jvufJykr5WUr3dbN6a9cfUK5nlj6cPc1+gcCnUKgZeLMgLUg259FkLUjOA+fJ4ugr1u3jrZs2eIUeBbhRYsWZcVFSLlO/pnLSJoVa197ug7O46tf+iV2SrmZM2dmbbrq4TKcxgK9fPnycn86ZRDm0c+rNj5N3/zpc3T/JZOz5lggWRB94sxCzg8L7NZ9++kDtz5eLstlTnjLQdnvIrQioCmRM9ctwu0qL3Vz+9Zu3bYrPQ+WaAMEQKD5BAorzq4I0rVt7RN4i84n/hy1itiHytjFRKx+bb+1O2Qz29PV1YVLbQ0e+z7R9Imzzc9R9DcXHFW+OGYjaV/0zfXI47tsForeuWw16Q3GhupAAARaRKDl4qy3rK2gMRO7XWxFW4uZFj2OqteuXVuBVcpy1DtjxgwaPXo0rV+/vhxFVyPOofpDYmxFPq/Lci0aX4VplgVObw+LYSFxtsaHBNiX5gLA0XDPvfsqkkLlQwsDrkSnFwY4DAEBEKiLQMvEmcVt7969ZWH0XeaKRcacbgX+ySefrDjPtoIoW9t89jxu3Djv17d8Ihurv1pxxjlzXWOYUs6c642ctYW2rlhkq8vyNjYLs2yvp0bGoW1z38KjPqooDQIg0EoCLRFniTpDW78ChSPjs846KxNQFj05u+V0joD5kfNjEUUrnq72uF5+fFvaVtD177H6qxFn24dWDoZ2bTtFnPUZMvezmjNny6WR4ixRtI6c9WUyaze3HUpvVx/CbhAAgUoCuYmzblZf6pLPbYQsn8+dO7d8s5rz8O+yXW3r0XXoG9BSRi8GUkQxJLKh+qsRZxF96a+LDQZtYwjo29dy/huKevV5sb6kFRJnEdvQbW1tB98a50hai7N8xr3W7fLv3HYovTGkUAsIgECrCeQizo3qZCO/xyznzvX8RbJG9Qv1gIAQiN32jqWDJAiAwPAg0JHizF9Z4sjX9XWt4eFW9EIT0BFwkcnwubKIr/7OtNickl7k/sE2EACBdAIdJ84cMW/evBl/7CN9jCBnjgRikXEsPUdT0RQIgEATCbSVODeRA6oGARAAARAAgcIQgDgXxhUwBARAAARAAAQGCECcMRJAAARAAARAoGAEIM4FcwjMAQEQAAEQAAGIM8YACIAACIAACBSMAMS5YA6BOSAAAiAAAiAAccYYAAEQAAEQAIGCEYA4F8whMAcEQAAEQAAEIM4YAyAAAiAAAiBQMAIQ54I5BOaAAAiAAAiAAMQZYwAEQAAEQAAECkYA4lwwh8AcEAABEAABEIA4YwyAAAiAAAiAQMEIQJwL5hCYAwIgAAIgAAIQZ4wBEAABEAABECgYgWEhzgsXLiz//8z8c3d3N02fPr0hqBtdX7VGNbNv1drSifmnTT2eNtx1N40fP74Tu1/RZ7Do+CHgBVDP2Kin7HD2SK7i3NfXl7FctGhRQ5lqAau34kbWFbNl3bp1tHfv3iCPRtuj60vxB+dfsWJF1hX+2T5Lly6lsWPHxrpaiPRNmzbRhRd0Z7ZMnTqN7li1Kvt55cov0bXLlpVt3LrtwfLPsYlj165ddOZ7z3CWjXXaZ4+U47YXX3YZnXfe+eWqQrb62nO1oz/T5Wx7Os3FwmVjrN9c5os399KsWbOyrCGGKf2txYaYjSnp1fq+2vyWvfyuF4uWz7x58+hzV18THdeu/sXGxKeWXEGrV68e8v7wB/W8J/WUTfFTu+bJTZz37NlDy5cvzzjxhN7Ip5EC1si6Qn0UHjEWjbbH1tfT00NdXV1egbXirMW4v7+fent7G7pTUcu4iL3cXCdPPF+46aayIOt2eNLRE9ojO3aUf4/Vfc78+fTxiy7KhCbUhu1XKK9MuCyU/GhxDtnqm3B9/db5RTj0wsTWp1mEbAz5UMppcQ4xDPW3VhtqGWOuMppHiu9rHSu2HC8wxU/MYOLESeWFTuq4TmFgxwS3JWOR/cKPvDf1vCexstVyTulbO+TJTZw5StTPnDlzyr/K1jFP9PJItMa/p6SLaFjx4ehw8+bNWbVz584lbldERdribfDRo0cTC5U8M2fOzCLaUH0cMWpxtXaGttfZrjFjxmT2yOOy1W5ra3Fke1nk+dGfu+zw9Y9ZbNmyxRu9h8SZ2+Xya9asafiCq5qXJ/Zyc108wUmkHKqbJ6TFl15azitRnkTcXNZG1r7fbSRiBSlmD0+G/Ghx1rZbW139Su03T7annT67YpLXkRIvFHh3wW7xx2x02TtlynEVbTHjEFOpw9ffVBtC/uA2bH+FOzPctm1rZob0n+v67nfuKYuTjLFrr7vOewQS6qfPNleftVi7/OYaB656fP2V8qG6bf/reU9CZWvhXM3cUeS8uYmzRGgMgyNoK2pa6FjIWTAkDwtELN0lzrYeFhI+i2YRlK11EWq9dWuFTn639dltYW2nrdcOAhux+mz1ibNu20bhITvsYiMWwcfEmfvV6Oi+0S8MT0x9y2+h7dsfKk+yWih1e65Jx26Bb7hzQ1m8bVSjJ2wd9cnkyyKUak9MdFwTlxXDlH67Jm5uW/dTotR6xJlZsXixTXohEGIY8o2kxThpsZFIT/uD021/OZ13Q3SEqDm52MeEspaxEmtHC6xdOIbY+fobWwj5hJsFttb3JFQ21v9GzxVFqi8XcbYCYIXJNbmHIkYrCL68qaIRaivFjhRht07XohcSuNS+aaa239X0IWSnj2cq51YNfJmItSC7om3X1q7vnFWLlERWenJy9VXq2rlzZ3b2HbMnJDo+W6VdrpuflHZ4gp80eXJFhJ7SbxE1/ldH91xW2yEiJ224RCzGMLTt7uLkssH6RPfRt/tiP5cFBtfFdw10JK1Z+9qP9VNslHY3brw3+8jeO7CfuRYYWmjZ1mruUrjGhI7u7eI2Zbz4+h4qG+Pcqjklj3ZzEWfZ0pYtXPu7a3IPiQ2D8aVbIdLb4wKU21+7dm0FX9+2eKy+VGHXjbmiVSvWkj8kznaApPbBXuIKnTunRs4uznkM4JQ2XOeBdvKxkYSdJPVtbd8E7Tqj0xfNuE6ezFmc7TmwazL0ibPPVssipd9cxm63hj6rJXK20Y8WZ2Em9bpEONbf1MjZXp4Sf7BvXQyEg+VqBZnTeWHG2/WLuj7m3NaO9dNnG48Vu30eitBlbMp4DY3r2P2CUDrbwDtRcjTjEtjU9yRUlvthLzSGOKfMB+2SJxdx5gne9fgiTs4bEwVfeixKdJ2RpgqsL8IvQuSs+eYZOafcOG/2yxA7c/adt8nWamhy963qeeJylZOJk/tsBVjq4jR9rs2/uyZcV/2pQsR1xvrNeXxb4ymREJdPsUef2eqxIBfe+DN76S3FN1JXig2uhUotkXNoLPsE3scpZay4FnJWgLVN2oZqx7XUEzsukXy6rVrfE95VCZV18Q5xbvZck2f9TRdn34UhjtbOOuus7AyYxUQuYHHnXWe5sXRX1GjrYVv40ReYJIpOiTq5vt27d5fPwl12+s6rrVNttOqyVdik9K0V4mzZ5Tlw7YQU+y6yPu/T0Zmc/8pZpO0DTwT66yn2DNK3XWgnVXtm67NHt28n15itLv6xdnxRmL2NK2ebtUTO1i5X5Ozacs3mgtL5tM839Yiz9Yftr+vMOTS+XTsfOn/oyKSasWIXGb7b7LGx4usv2+waE1wf2ylff7MRea3viexa+N4x19ixRzCtmnea3W7Txdl1K5k7pSMuFme+SS1bza5b0LF0n7jqG81ye1p/JvXqS19sR623tVPFmbnMmDGj4o+luGyNRfUyQDSzUOQsgir9q/a2th6Q1k/NHqz11q/PAV1bk7p+SecyclOZ0+25cuxGttzydd12dtkTEmff91BjC5NQO6FdBx3x8hkjn6k2Wpy5vz6Gqf1NiZy5Hd0flz9sf0WIND/tf1uf71a9+LTWsRL6frTPthR2of66xpSvLe5fPe9JrGy1nOudJ4pSvuninNLR2IWiWHpKG0XLE7slnZe9se8552UH2gEBEAABEHiVAMS5haOh1ee1KX8hrIV40DQIgAAIdCwBiHPHuh4dBwEQAAEQKCqBQohzUeHALhAAARAAARBoBQGIcyuoo00QAAEQAAEQCBCAOGN4gAAIgAAIgEDBCECcC+YQmAMCIAACIAACEGeMARAAARAAARAoGAGIc8EcAnNAAARAAARAAOKMMQACIAACIAACBSMAcS6YQ2AOCIAACIAACECcMQZAAARAAARAoGAEIM4FcwjMAQEQAAEQAAGIM8YACIAACIAACBSMAMS5YA6BOSAAAiAAAiAAccYYADWvbNEAABcySURBVAEQAAEQAIGCEYA4F8whMAcEQAAEQAAEIM4YAyAAAiAAAiBQMAKFEueFCxfS0qVLaezYsU5MnN7d3U3Tp08vGEaYAwIg0CoC06YeTxvuupvGjx/fKhNqajfV7k2bNtGFF3TT1KnT6I5Vq2pqK89Cqf1y2VRP2Tz7mEdbuYozi6t+rBDHxLleILH6OX3FihVZM9ZW/iy0cKjXNpRvLoFPLbmCVq9enTVSzSS3cuWX6Nply8rGzZs3jz539TXZ77t27aIz33tGOW3rtgeHdIInm8WXXUbnnXd+Oa1WW3TlXO8Xb+6lWbNmRcFZG2SytwWtna6K67G9GpujnVIZYhN6yE8h/8Zs0ByrGVNSb8xuyXfO/Pn08YsuqvB1Stsu3vyZPK4FjWu8xjjYdN2vlHfEjmuxqx7fVGtzEfPnIs579uyhnp6eiqjX9VlMPOsFGKvfirMW4/7+furt7UXkXq8TmlA+ZZLjF10EkgWGHxHZkElcbuLESU4R1O3yZPmFm24qRzYysbDg8aPFuVZbxE6pOybOIRt0n2UCdS0uLJtabU+1uZbhEfO/FjeXn3z+Ddli62mG3T4RT2nbxdty4GhcfJ46VlL6qf0RYu+qS5cNvXspdrR7nlzEua+vj8aMGUNz5syp4MWCt2bNmiwi5Ue2rVkE5ZFIVtK1YLLgs8jzY6NabnPz5s1ZGkcXPKDlmTlzJi1atGiI70LizJmtve3u/OFif2xytv3ksfDd79xTFmcbSWrRYyE/7fTZQ8TZ1sFt8ER07XXXVWyv8gTDjxZnbY+vnm3btmbZbHTDQrr40ktpypTjnHa5fBqzwfYxxCNmu6v9kM06EteRO7P0MbBleGcjtK3N40MvPPTvPv9KP3x28OfVbjHH7Ha1pSNd2bWJte3iLZ9pm10RuW+s1OqPEHtmHGIS881wmb98/chFnEMRqxVEPm8WsV63bh1t2bKlQrxFhFl8+WGRZYFevny5txyLKp9T1xM5C8BYHcN9wAyH/tmXnn+XKFqESSZzPXlw3+Vzl6i6JpNqhVFH9b4JlRcAfctvaYg4u9oI8dD+T508ZdFibWY2G+7cUBY5ZsoL6RADW0YivpA42+hNL8x8/hXh4H95bGhO/DP3Zfv2h8oLiJRdDN1Xa3eoz3abONa2i3c947Uef4TYx3wZ8s1wmIdifWi6OMv2tY6AtVFa7FzC50u3eTmK7urqyi6T+QQ0JqyxyJntjtURA4701hDQ0WBsIvVF4noyka1gEQWp39btEueQLbZtHY3zZDVp8uQsCrfCqCOsFBvEC7pOn2fs9j1vh/Jj23HZELPZd+6pP9cMXL7Rn/k4SOQXOhu2YuHzxc6dO7MLWrr/MRtS7E7ps2uc6bp9vF3jMPWz0JiM9YvHiY99SlkZk9Y3rZlF8m216eIcE7SYIPpEN3RhS9fpWwi4MMdskb74Fhr5ug6t1UqAJzCOemSLz1484Xp9kZgWCnsph7eaF3V9rKptbWuLFhfpH9vCgmAjPtd2u4tJKHq3245cPpWHtd22baM114LCd4nO1iX+cNkbOtawi6jY+bpdCLjsYF/o+wWcJ7bIidnt8zvfQA/dbdBt89m5b4zUEznHbLM+FHvZNr4wKb6z7GNMLHvXsVGtc0A7lMtFnFlgZ8yYkXTm7LrBrW9QS3psq9x1szoW9cbEmbfZ9+7d6zyvbgdnD1cbqz1zZg4yMbgu14Tqc00owtUndJzuO3PWtsjProWBPvPTfky5Ye0TZ9eE3UgeMZt9nGP8LZ9QflffQ9vx2oe+en1HAaHFUixKTO1zqG1eMMg5vR0jLNx2QZF6RyLVNv0esI82brw3+8h+U0E4xZjY+Sr07g3HuS0XcXbdzJbbz1pEWRz1ZS19rszwtbjaNO0cm9aIM2cW5rVr1+LrVAV8C2LizBMaRzvytSO9Rea7ZS0CoM9fudwjO3Y4b3n7IicrDiFbJArif2M3yVPPe7kunzi76gjx4Lp8HFOGheusX/fVdeZs69Xnn8KLvyLn2+lwRcp2G1hYW//atrQt+iw1Fo27/CrnqXqc+fzu2laWr1aF2ra8U25O+xYzPttC/uAyHDnby3i+PruY+HyTMt7aPU8u4syQRKA1MLs9zOI7d+7cTAT50ZfDrDjL71KfzatvcssfLhGBTb2trW219be74zvNfr01Z88ddYTHkai+/VtNOVd07JrsQnWyX2LpMtnXu63tW9TUyiM2plyLAd2WPcOV+kL+4jJ8/hu6EBa6fR5jHUrXaSl/BMX21drta8sXYQofX9uWd8p3jn0LudT3wPojdvM/xCTmm9h4a/f03MS5EaB8Z8mNqBt1gAAIgAAIgEBRCLSNOOM7xkUZMrADBEAABECg2QQKL85yNs0gcEu62cMB9YMACIAACBSBQOHFuQiQYAMIgAAIgAAI5EkA4pwnbbQFAiAAAiAAAgkEIM4JkJAFBEAABEAABPIkAHHOkzbaAgEQAAEQAIEEAhDnBEjIAgIgAAIgAAJ5EoA450kbbYEACIAACIBAAgGIcwIkZAEBEAABEACBPAlAnPOkjbZAAARAAARAIIEAxDkBErKAAAiAAAiAQJ4EIM550kZbIAACIAACIJBAAOKcAAlZQAAEQAAEQCBPAhDnPGmjLRAAARAAARBIIABxToCELCAAAiAAAiCQJwGIc5600RYIgAAIgAAIJBCAOCdAQhYQAAEQAAEQyJNAYcR54cKF1N3dTdOnT8+z/2gLBEDAENi0aRNdeEE3TZ06je5YtSoXPtOmHk8b7rqbxo8f3/T28myr6Z1JaKBZ/W3FOEno7rDJkos4s/DaZ+nSpTR27NimguR282hHOrFu3Trau3cvLVq0iPJu24LU7ff19WXJbJfv4fwrVqzIklvlr2YOhl27dtGZ7z2j3MTWbQ+Wf1658kt07bJlzjT+kCc3eayAuNJk0rL9WXzZZXTeeefTp5ZcQatXr86SXQLoa8/aOW/ePPrc1dfUhC1kwznz59PHL7qIZs2aRbG+xBrnvnzx5t6srtATE5CYj2zdIX/H2or1ScZESr9sXSk8dR7fAinE1abF+hsaVyGOjRonoTZSfDFc8+Qmzlok+/v7qbe3t+mRcp4CuWfPHlq+fHm2GBCBy3NhYAeo7XtPTw91dXV5F0RWnFvhr1pfstjkw/XaieQLN91UjgpZqETkeKJ6ZMeO8u+uCUiEPZSm+yKTj5TjNlik+eG2+ZH2Q3VyuYkTJ0WFLoVjyIYQT9uXUFsy6aeIWMyHIR+5bND1sdhpf8faivGrpl+xuixPa6urfKh9V1qsv6FxFXpvGjVOQm3E+A3n9JaIMwNlgV6zZo1TzGSLmwWco2sRPBYYFkF+rPBxdLh58+YsTVb84riZM2eWo0adT9ctgspb69LuuHHjaMyYMTRnzpysKmuzHhhcL+c96aSTiO10te2zX/eXy+ntfVnISH06zVVu9OjRzva5ni1btnij55A4x/re6hckNvmwfZxHR8v2d+kDT5aLL700E279s6TLRDJhwoRyPptmo0QWltNOn+0UVZ6Mv/udezJxDrXHdYbq8fmA7d22bWuW7Ns21jboqN0VmafaIH2ZMuW4IX3XUbvsJki0x9vp8mh/6f65OOl03R/tm2uvuy7bNk9py2Uj1xXql8sHvnokr+XJ/godJYTa96XF+hvyqe+9qXac2B0DvWBLfTdbPc/k3X7LxFnEUERWR3r8sxVOvTVro1TeTmbhERFnIeKzaxs92nx2u9e2awVNBFjEWjvLRqa27ZD9ul0RY9li5nKyHW3TQuVs+5aZHWgxcbb+ynug1tueXZ2LINp69cTumuRlIuNytg7XJBcTEl0m1J6Is2yHc/s+8dITP//sE36fQPgWO7G+aJbMm8Wwb/ktFeLMUdqGOzeUBYj7zH3jNvUWrs0XE99YuuYca8tnI7fh65drfIbq0UIvYsx8mdf27Q+VF1R21yHUvi8t1l+9gLDjKvTeVDNO9M6HCLVvB8r3btY7B7Rb+cKKs42MQ9u0vu1r+7krX0yUdDoLsCwAQuLmErJq7A9tx9tFjOYUShObRPQ7TZxlYuUo0neO59p+5nKyBc0/84SrH1ea/ownpUmTJ1fUoaMIPflK3bE6xQ4tcjqSkTrt5CmTN0ePPhu4bt+k6+qLq12dzy5YfHW7Pnd95tpWtzbwrgbfL5CdAumrj4vtc0r/Xf2ScRFqR48dy9Paae0Kca2Wua+PrkWR7L7Y9yaFk08QXWMz9G62m7A2wt6Wi7O+hOSKoqWToUtKWkA1FJc4W3GKCRpHrjNmzCDeLl6/fr1zW9gVlbratg7z9VeX5Wh/7dq1FUVTyrkEPnTuHFukxMS9EYOxWXXIhC6TtWuCd01KjYicfdvn0leeVDlS4ugpFjlbPlpsXey0aEm6a2tb2xAS51hfuKztg0vEXBG/a6K3/QtF07b/9lIVb68v6vpYeVvbctBtufoZ65ePf2h3w7bjOm8W0eW7BjqiDO24pCyIQmNH0rhPepFj35vQQsv2214647rZB7E2mjUntEO9LRNnfbNZJv6YOPsuWDUzcpatbT5P5jNo31e97AIhJWrXCw9XBPzkk09WnMvHOMUWGr5FjBVeF0/rryINbt8kITa6IlI9gbnSRWj0RSL+TCaunTt3Vlwy0mnydSCX2IYmcdfkHJpEY2IZ46Jt0XW5yqX2RZ9x6/r12bJrgeCLnPUlOq5P7ypUMwZj/Yulx/rl82vKOb+UdR0byDjlcSh3ByxX3kHxpTGvGFtru7CIvTep48Q1rqXsxo33Zs3b3SbfHY1qfN7ueVsizhINVrMlG/o6kE3znTlzvt27d5e3pl1nzq4FgFzw8m1p8yCo5szZDhqfkFtxttxCC4DYFr7LBtcuBudz+atIAz8mQr6tUFm58zmf7ytJoZuksVumvjNoFna5NGajwVpvlbv8we3zY/vGPEI2uHimXgSzdthy1iZ95qwvoOl8chZbz9fG9NEC98/XFtvvs1H3LYVHqB5fee3/0M34UPuuyDnWX9e3FULvjVyss4sPl11WnCWK1pGzvayZ13feizSPWVtyE2fdsL3sxWmxqE/ySD22Dn0TWm40i6hUc1vbJc4p3xOW7W+JrF1t6615bX9IZHW/5s6dm21xp2xr2/arva0d81eRB7XLNt9tUd/3Tu0WuNSpJ5HY9zND235Snz3Hi30/11fO5w+9ta3b8n3O9aSe/6aMAddkraNQfT7L0bV831zbGvORyw7dhkTtko/752tL8rhsrFacOb+vntCCUvvGJ1LVinOov6GxELtl7frev8tm6w/2s70TIHxTvnqXMvbaPU8u4tzukKzwuvoTuw3dagax7zm32j60DwIgAAIg8CoBiHNkNLDosrD5bjnr4kU9l02J/PFSgAAIgAAIFIcAxDngC/mDJa38S1/FGSqwBARAAARAIC8CEOe8SKMdEAABEAABEEgkAHFOBIVsIAACIAACIJAXAYhzXqTRDgiAAAiAAAgkEoA4J4JCNhAAARAAARDIiwDEOS/SaAcEQAAEQAAEEglAnBNBIRsIgAAIgAAI5EUA4pwXabQDAiAAAiAAAokEIM6JoJANBEAABEAABPIiAHHOizTaAQEQAAEQAIFEAhDnRFDIBgIgAAIgAAJ5EYA450Ua7YAACIAACIBAIgGIcyIoZAMBEAABEACBvAhAnPMijXZAAARAAARAIJEAxDkRFLKBAAiAAAiAQF4EIM55kUY7IAACIAACIJBIAOKcCCo128KFCwn//3MqLeRrJIERSx6g2z98FJ1z4mENqbbR9TXCKLbpgU9MpmmjDmpEdagDBApLIBdx3rNnD/X09JQhzJw5kxYtWlRIKPWKa73lWw0lZn8svdX2+9rnSf3ctx9Ot33orc4sd9z/PP3p1x7v6Im/HYSvHWws6jsAu9qLQNPFWYRZR5Pr1q2jOXPmFJJUveJTb/lWQ4nZH0tvhf3Tph5PG+66m8aPH+9tnif1E95yEH1zwVHOqOvEG3ZkZX3prehX3m22g/C1g415+w3tDU8CuYjz8uXLs61e12Mne/07/9zd3U29vb3loitWrCj/HEvnjH19fbR58+aszNixYyvs0OVHjRpF+/btc0b3HPXzIoMfu2Wt6587dy6tXbvWu63d399f0Rfu2/Tp08tt2rpkAZPyuatv2tYQV7Zj9OjRwd0N1+4HGz5mzJjyQov7t2bNmqz/Kb7xcbWctM9dYyhVnDly5sdGz1dtfDr7vOfefVnkzL/ztumVp7w5+5yjak67/5LJzjH8wa8/Qd+477ksjRcAOp9sDXNUrtN0maWnjiq3ze1KFC+N6a1qXR+n2zS2//afDtirH26D++Oqe2qpzROuH1ic8CM7DFYIU/tp7XJBq7UusalaHzkdhw9BoMAEmi7O2aQ3uKXtEuiYOGvR4Yh7y5YtZYHlsqF0m59Fjh/ZUrflOc3ao8uwQOmFhq2ffw+JM9clbYsAifDYujidhTv1c1ffQuIs3KwdschYp3NZ9of0iW0QsY75JsSVy8YEudp3SiZ1FiF7ZmnTtu3bT98qCZyIOAuJFmvdNovEN3/6XFmQOS8/UlYidi3Ytgz/LgsDbofrkPIipq9cfUJWr67PlWb7ZhcWsbp1eS3O1fTT2mV9VU9dYlM1Pqp2rCA/CBSBQC7izB0V4ao2wrORqo0Aa0mXid8lRKHFgiw0urq6skVBSvmQk2N9cS0WpD5f276+hdpKscPXrhZSXoTJAizGxqZz2RDXel8WmdQ5qtxaEl8RPxYK+V2LEf8sgshb3r6o2bXNqsv60n0LBNdFJ2uXT0BT29Is661bLxp8dlnfVcvMZ2Oqj+odOygPAq0gkJs4S+dEpGsRkRRxtJO8jcBiQuQSZ+sYWRC4IrxQ5Cl91/WF6hJxdkWRsbZjOxKhqDp029y1szBjxoxsW3z9+vUVuxK2HusbH1fpN/9rt/5rfUlCE7yIis7DEeb733YY8ZYvC7jvIpkWCLEtJHgS/YqoucpIJK376rJR6vKluSL+euoO2WwFN3Q2XC0zH89UH9U6ZlAOBFpJIHdxFoE966yzsm3bakTEilW10WNqeZ9wWUfFokOdX5/HuqJQn6hX87kW7Gq4xhYsuh+2Xtna5u3scePGlc/Qa/GN60WIbbNzmdQzZxExiZY5StVRtBYB3prlrW3Ow2fFvq8nVRsFWkG14szbtfZ8u5bo1nVO7vqslrq1za2MnFN91MoJFm2DQK0Emi7OPHnv3r274na2nnA5muLIiy8/2TNbzqe/duU6Vw2lc35uW7ZaY+eyIt5anG0ZDdqmycUtV+Rpxdn21dYlZ86hz0N9i3FtVOQsiy3+V98piPkuxFUz5n7IQs43yKsVZxFI/je0FSs3uH1b2lyeo7f7n3opeOZst7DtubRcjuJ8VpzteXQoQo1F7Facq6m72n6GIud66rL1pvio1skR5UCglQSaLs4yecttZ/5db1Xqm7n2tjNP8PIZl3OdV4fSuUzstrYVUhFNLfpshzzWBn3jWG6W+7aFdV7XzW5bl9zk9n0e6luMq0+cXf3XA9SV7hLamO9kIeTiqnkzp0Z87c5O6vqsWWyweayI+l7U2M1j1x/NYFF54Kn9WZV841p/x1qn2ZvcKeLMfZPb42Kz3MAO1S1iXett7dQzZ1nUhG64p56rp/qolZMs2gaBWgjkIs61GCaTdzXnn7W2g3L1EWBx5t0P/bWwlO3o+lptfmk502zUX9zyWcxb63yL3J7pNr+H7d9CXj5qf1LoQbsRgDi3m8cKZq98/zl08a7VJnO0mfqIQGrBrKZ8rB2XAHM0e+JbRg6JdmN1dWp6yEdY4HTqqBh+/YY4Dz+f5taj0Bl7O0fO+gy4GX/DWW+Ds7NCf1Y0N2e2WUPN9lGb4YC5w5BAocV5GPJGl0AABEAABEAgSuD/A+sUR7mfElA/AAAAAElFTkSuQmCC;" parent="1" vertex="1">
          <mxGeometry x="928" y="266" width="487" height="233" as="geometry" />
        </mxCell>
        <mxCell id="9ONS5Pu-zSQsGi_yFV8N-8" value="" style="shape=image;verticalLabelPosition=bottom;labelBackgroundColor=default;verticalAlign=top;aspect=fixed;imageAspect=0;image=data:image/png,iVBORw0KGgoAAAANSUhEUgAAAWYAAACCCAYAAAB1hGI2AAAW8UlEQVR4Xu2dP2wdxxHGz03cOYURm7QtwIWK6E9SEHCR0khamoUdJ1JqkzCQQinTRFCalHYRgKBYW7GZuCAFJCkcuEwh2oUluVKniJQUuJCrKI2j75B5GI12d3bv3Xvcu/uukd7b29mZb9/9bm5upX3uuydHw4MKUAEqQAWqUeA5grmauaAjVIAKUIFWAYKZPwQqQAWoQGUKEMyVTQjdoQJUgAoQzPwNUAEqQAUqU4BgrmxC6A4VoAJUgGDmb4AKUAEqUJkCBHNlE0J3qAAVoAIEM38DVIAKUIHKFCCYK5sQukMFqAAVIJj5G6ACVIAKVKYAwVzZhNAdKkAFqADBzN8AFaACVKAyBQjmyiaE7lABKkAFCGb+BqgAFaAClSnQG5jfe++95sqVK80rr7zS4O/vv/9+s7a2Vlm4ee7oWPJ6+GflarKIsX3veEafCjz329vNX351qnn7/AvNp7e+bd756G5z7uXnm1uXTje6rc8xaWtcChSD+fLly83R0dFMhd3d3fbvfQOlb3sl09bH2F1tdO1XEt/YzwX85Lj9m9PN2ZeeX2jIGC82zvkP7zRXfvZSC+k+jtRYXezDHvz73U9/0KX7wvv0He/CHe5pgCIwAxpvvfVWs76+3g4PQN+/f7/NjPsGSt/2SvTqY+yuNrr2K4lvqOeePfPD5q9/+3vz+uuvR0PQIJRs9bs/nFtoyCl49A2Wvuz9/h//bi5/9rCFMg6CeaE/kWLj2WC+evVqs7q6OoOyHcmWMqSsgfN0lq2/l8f77e3t1hzKHysrK+35crzxxhvN5uZmMDD4dOPGjbZNbhjaJsoqGC/lA9qsnYODg1lZpi//tT5ffvllIzFL3FL2SZ0nTyfFszySDh6Yv374uHn32t22ZCCHl7H+8k//aj756lF7us4c0e/2g8ft9zobllIEyhOnX/xec+eb/87G+sWPv998fOG1tlyBPuc+uBNtkyw+NL7cUKQzyiJnnmT9IXs4J+ZrzrQD0DhSYLb+6BtdauxQbFo/Ke+EYsB3sXhz4hr6OdlgBjBSYIiBGdDDAbgiw97Z2ZnBEn0EngKr3NLI9evXm8PDw5kt9JfMXQNZwBvzwdrBZw3mvvzX+sCm3GxScXuaD/3H17f/AMifb37bwlEOwOHnP3ohWEoAlPZuPpqBHP1RckAfHLBjYQ+waKDgPJvF6s+pttT4EoPN+q29lK85+uaAGWOGnjpSY8diC+nn6b2MclSOVss8JwvMACqy2C5gto/msLO1tTV7SWgzaP0CUbdZUWKP/KHvS3zAOF7238X/VIkiNh7LGmWXQggyKfDEygL2e2SFexdPtbXqUJ+uYM4tS+SCXjJP8TVHvVwwh+BYqlPoJhb6ztM7J66hn5MFZoFVVzBbkWLwTQExBOaQPzEwp3ywdqwfffivbUpWru2mNMF5Q17lsqyLpDRjjmWC+uWh+C5g6hvMoUxU6r9at9j4KV9zdM8Bs8ATf8pqE/1dzM9QbDH9rK8pvXPiGvo52WBGpruxsRFdAtcl67MQLQVzKKPOyZj1pHnn52a6XqYtdvCydH9/f1aC8fqJr8yem8arMQPMeKFla8yxDDI3Y9a/l77BbDPRUAwlGXMpkHLBLHZTvng65WbMOXZK4xza+dlgllqoztxiqzJsPRWihF7gzQNmXfuFfV1jtsC25+pJsm3yIlBspPqW+B8Ds61pxwDs3RiH9sPr4q8HZti0qzIsqPW4uraJ70M1Zutnn2AOjY/xtM+SPccySGujVNdSMGt9U2PHtA3pl7KTW+4pjbv287PBjECk1ixB6ZdsqWwXbV4ftIce91OrMvRqD7lhpGrPIR/aC0GtzYYdrJiwte95/dd+6fGwmkS/bIyVUfQyxdp/VCfpH17W6bf53lI5vaog9piuX/aFQCHwtKsyQjXpUF1WVn/I+NonrBQBqAXMdixorcsZ4mtohUpoXnLArO3bNc+hsWWckLappxTpp/UOxXuSv69ljV0E5mU5xXGoABWYTwFk/wB+reuT54tu/L0J5vHP8WQiDL0Im0zwKlA8JaA8ACjrp4eha+E9/Qw9Pu0/wTym2WQsVIAKjEIBgnkU08ggqAAVGJMCBPOYZpOxUAEqMAoFCOZRTCODoAJUYEwKEMxjmk3GQgWowCgUIJhHMY0MggpQgTEpQDCPaTYZCxWgAqNQgGAexTQyCCpABcakAME8ptlkLFSACoxCAYJ5FNPIIKgAFRiTAgTzmGaTsVABKjAKBQjmUUwjg6ACVGBMChDMY5pNxkIFqMAoFCCYRzGNDIIKUIExKUAwj2k2GQsVoAKjUIBgHsU0MggqQAXGpMCJgdluocRdoMf0sxpWLN6+cl77SUVrN0bVW2OdlE8ctx8FssGs9+2ToUO7VOe6tehdnz37qb0BJS4vZrTv7u7mhszzlqhAySalHni99tywQjus2F2yc23hvL78io3p2c/ZZdyLGe1T2pkkd36LwKxBLLtmdwWTB87cAGLnefZzwZyKmWCed5bK+ufskg2LshEp/n7r0ml3kK4Acg2bE+w42JfvnY/udgaT53epf/Z8z34umPXNx8ZMMIdnqTOYYc7CTe/+bLPpq1evNjdu3Gi98HaGlp2q9S7cubbffPPN5vPPP59FG9tluwuYbcwazHKjkoG73rDmvZjG3D8XzLLzs2hhNyRFNv3JV4/aZrsLNb7z2rXGAhr5LlVOCIEstWu2zaZTfoXKGoC+3nFa71qdsv3rn7zY/PGf38zClN2/c8FtfbFj2XZmzM9etZ3BfP369eb4+LjZ3NxsrQK8OPD56Oio2dnZaQBnHDj38PDwqc8HBwftZ8DX1ps1kEttA5Bra2vP3DRs6F3AbGPWYGb2XM8tAQDau3iqdejda3efypoB7b2bj2bf4fPlzx42Ag+v3UYJWH584bX2ay8DthDGWMjupb8uv0jWLxm/55eFnQay3GzwJ8bybCOOt8+/4JZKumTMNmZmzOHrpgjM2gSy3vX19dlXoex5a2vrGfBKBwvjEKRD5+I7ZM8p2zinr1KGF7Nkxt549WBr3J5Y6Aikz770fBu4l7V67Z56qcd/W29Ftq6z+VD2jBsMfPf8KslSEYPWJQewobhz+uXEzIz5WXWLwCzwtBmwgNCa17C1j/alYC6x3SeYvZh1XPKykCtMPHwtrl3KGAI8+zmUoXmP1inYSsatI4q90NN2bAYsNw2rjNjK8VufGyoflNiO3cS0jVwwx55GZAyCuScww4wuXXggDGWTpWCOrQDJKUmEMICse2Njoy17yIESDL6PZcGhmEO1ZGbPiwFvTo3ZZmjiiVz8JZmn9I0BCI/8KIPoF4xexqyBaVeOlPS14CzNmEsBG5pRZN3I+lH2kANPLOc+uDN7oWljCsVMMPcIZgtjCy09lG2TF4GxGnPoxSHsST07ZTu3xoysH3VuDdacm429oYTAHIL+YlA1LasemEOghEIaIBYM8kJNgOm1a8XteLZebWfHuymklvh5fnlgLrGdW2OWeDVYc2423hPKtH7V4Wg7lTLElIWbXvdrX+DpVRWy6iIXzHITkHE928iCxbfYqgzJ+mWlCD7bc0OZr47ZvvwT/2z9nT+05SgAKKAea1dh2BdOenUCVlFg9YLOZL12HY0+N7TCw8tMLdx0xm9f4KX88sAsGbb449lGFiy+xVZlwJZeKYLP9tzQzUjHzJd/c4J5OZcWR6ECVIAKUIHsjJlSUYHaFYjVl2v3m/41nf+RzVi1I5jHOrOMiwpQgcEqQDAPduroOBWgAmNVgGAe68wyLipABQarAME82Kmj41SACoxVAYJ5rDPLuKgAFRisAgTzYKeOjlMBKjBWBQjmsc4s46ICVGCwChDMg506Ok4FqMBYFSCYxzqzjIsKUIHBKkAwD3bq6DgVoAJjVYBgHuvMMi4qQAUGqwDBPNipo+NUgAqMVQGCeawzy7ioABUYrAIE82Cnjo5TASowVgUI5rHOLOOiAlRgsAoQzIOdOjpOBajAWBWoBsx2L70+d5qG7T7tjfXHMNW4UpugQhOvfQi62a2nsKWW3kR1nhhgu0978/gylr7FYE5tujqPKH3uLN2nrVRMsT3/pE9sZ29pz9nhW++jGLKrfZhH/7H1TW0+amP1wOu196ldid8l4/YZQ5+2UjHo/QBDu9PofRpDdmJ+2puU7avtntSehEVgPjo6anZ2dto4AJ0+jz5h2qetEjBrEGO37u3t7WSmngvmkF3ZnXtKYPZ2yZa5+vrh4+bda3fbj7cunXZ/ph5ovHZ3gMwTSv3ONNue1mcMfdoqAbMGJnbyxia6qUw9F8whu7Lz9yDAjB2i9bG+vj77KOUCwEgOgQc+57SHds1GX2Tpspu17EAt4JOxUKpYWVlpsBu3HLLrtQWgtmd33LZ+pkogNmO2GTJ83N/fj97EuoBZtNRaaZ1LLtahnZsLZuzCrA+7a7be2Tm0s7XXrm0LIOQ7DQp5xAdAcHiP+ym/rS3YE3gIeGXHb/HFtguALLBsvNArFNeZJzuQn/vgzix82RE7Zc/uxl2iic2YbYYMHy9/9jB68+0CZnsTGwSYAb2tra12YpA566wZkNGQA8QPDw9n5+S0h8Bs7QB2a2trLaw3NzdbXwTSOovUkNQAtPZsaUb7ae1akHlgthAN9Q+VO2y9XZ8D/4+Pj2exTyljzr2RnP/wTrN38VR7OjJnnTUDfns3H82+w2dc3HLRe+3WB0Dt4wuvtV8LzHS2JWCybaFYUn4DEBpy1s+c9hCYrR34idqzF5d93I/pZ0sz2k9PEw/MFqJW0y5ghh54cpE5rR7MUsYQGAukAeMYgFKAsX1i5+aWJVJj5fiRA/WTArMeV54Y5DuC+elZkXKAwFhgd/ZJthe7kG3N0WZmJY/uKVspO4v2O+ZXbmy5cYXspQCbGn9ZYNa/IDxB6Ses6sEsZQwpX9jPIYBqeJe0W5CGHtUx/sHBwVNXZawU4tnLhXpXMMdKDaWlDJvty81tKqWMnIxZygFycdnPoQvNQkeXALysTDJu7VusZJCCUI7f9oahbzoh27F2L17E0jWuHH1j2XYo49VPH6GXfSlwlmbM9ulB5t7+HnJ+h/Oek/3yL7Q6AIPHMk0LjRCEYqUAL8MN1W5z4VriR+xJIJSthuzasoOdLNy4NjY22tKMHHgywfcxXUOll6mAOafGjIsxdKQu8K4Zc6jGmZtZhiDUxW8vrlC7F+88cS0zY7ZlB6sfbkzIgPWyQDyZoE4e0y1UeqkWzLGXWBosAJO8bINAIYB47aGM19qBLzj0SzXJnnMyZti7d+/erPYd8jNWny7JmK1PoYtOztFg9fyxN4splTI8MMdeBukL1F548uJLsjGvXc+jHc/Wqy2kYhlcjt/oKy/b4EMIIF57KJO3duALDv1SrSQu2Lv14D+zGn7Izz4yZutT6PqSczRYPX8kS9ZaVQtmwGJ1dbXRqzAQgM4IAQjUP6W8EFrt4LXHwIobADJJHLJKQn8ndqW/AK/rqoyuYNY/Dht/MI37/w1MVpzgHH3zshAWGxroUwJzTEP5Hhcdasl2FYbNrADq2w8et91kJYOGhdeu/dDn2hUeuWDO8Ru2xD7GD6128NpjJRYbLzLMVFwCvK6rMrqCWetu44/9NvSKE5yjb14WwmJDA736GrN3UXgv6bx2zz7bqcCUFfBe0nntU9ZuiLFn15i94Dzweu2efbZTAU+BWH3Z61d7Ox6lBbx6HbH47bXXHt8Q/Ft2OYNgHsKvgj5OXgEvI/baJy/gwAToDcwDi5vuUgEqQAWqVYBgrnZq6BgVoAJTVYBgnurMM24qQAWqVYBgrnZq6BgVoAJTVYBgnurMM24qQAWqVYBgrnZq6BgVoAJTVYBgnurMM24qQAWqVYBgrnZq6BgVoAJTVYBgnurMM24qQAWqVYBgrnZq6BgVoAJTVYBgnurMM24qQAWqVYBgrnZq6BgVoAJTVYBgnurMM24qQAWqVYBgrnZq6BgVoAJTVYBgnurMM24qQAWqVWDSYD6p/7zfbhwr22X18SuB7T7tiU9d7Z6UxlZLuwEptpTSm3T2oT1tUIG+FMgGs91s1TqATVK3t7fbTU6x390QjpOCRp/j9mlrEXNWi399/0fyfdtbhPa0OVwFisAM4G5tbQXBi81RccTaa5TopKDR57h92lrEHPXpn7dLdsr/vkHat71FaE+bw1WgCMzYwRnH5ubmUxFj12Yc2CFbMmbJoOVE/Xgtj8XIsHHotlQ/nIsdu2VXabs7Ntr17tk2e/f66qBK/Ee/3d3dWXcbX6g9tiO49RE7k4d8WVlZaWOVo+uO4NA+NA/2Jx0qv5T2m/cyyQWz3hkZO0dj12xbyojtim13cJZdtOE7/n7myS7cet89u+uyjvHTW98273x0d/aVLp/AH20bJ+l95bz2ebVk/7oVKAIzYAIYWODJRavbABgBuIBF4IXzkX3Djm1L9cMN4PDwsO2HA5/1zQB9cWDco6OjZmdn56lzU33tNOX6L35o2zq+WHsIzDY+aLO2ttbejFJa6vnQALX2tD7wKzUPHphj85fqt4xLAVvP79181Ny6dLodDnBELTkGZkAcx8cXXmu+fvi4effa3Vlf9Dn38vPtZ4GswDMnY4Zt2BU/AGndX2yj3fqtxw61L0NLjnFyChSD+YsvvmiOj49noMDFL59Tj60244rBxANC7KYAUNjxcaOQ0krIt5LH7JT/ArlYFpxq9+yGfhq5WsZi1jfIPuYhd96X8TOPATMGZnv++Q/vNHsXTzVnn2TGti2VdesdumMvFlP9oU1J+zK05Bgnp0AxmC0AY5CQbFaHFgOXzfKQBcf66ZJBCHhWSj1mqq/tV+I/+no3gVi71c/6CNslvnj2cqFecoOsDcyhreZTYLaxSjmjBMyhSxhZ8OXPHj7VFLONk1I3Bdt+csjgyMtQoBOYJUteXV19KnuWC/T+/fvN/v7+rIzgZZRd+3l2tYAlGTNKCCX+ix+xTDTV7mXMpb549tA+1Iw5p8Y8b8asfzPzgBmlD0BZSiq5GXGqVAJ/QjedZYCCYyxXgU5gFtDgz9CjsAWzrQVbSMbAnKohY2x5USY+2BqqltK22b76XAvDkP/ysk38wJ9SB0Y8Xnvo6cH6CD9w6JtErpZ4soG9e/fuzW6QoRrzMksZoZsG4gu9twhdBjlg1jVj2CipMdsx+wSzZM86Y9YvDq3fGDvVvlxMcLRlK9AZzLq2LE7rC0+vjrCrJ2JgBkxS/eQixos9HLKiwMJF/JEXVPJZ2w711eJ7/ktM6GPHQXxee6ysY33Ey7+ULwLqrqsylgVmC2D5DZSAOffiQEng9oPH7elS782tD+sXcikwC2hTqzK0H1gdggxag1m+g596XHzG2Kn2XC143jAVyAZzjeEB0IBWqC67SH+9l4Ze+yJ9o+1hKOCt6vDahxElveyqwKDBDCi/+uqrz6yr7ipGbj8PvF577jg8r0wBvTKirOdyz0adWMCr10SLFznty/WYoy1bgUGBWf/jCwil67jLFM4Dr9e+TF85Vp0KeBmx115nVPSqLwUGBea+gqYdKkAFqEDNChDMNc8OfaMCVGCSChDMk5x2Bk0FqEDNChDMNc8OfaMCVGCSChDMk5x2Bk0FqEDNChDMNc8OfaMCVGCSChDMk5x2Bk0FqEDNChDMNc8OfaMCVGCSChDMk5x2Bk0FqEDNChDMNc8OfaMCVGCSChDMk5x2Bk0FqEDNChDMNc8OfaMCVGCSChDMk5x2Bk0FqEDNChDMNc8OfaMCVGCSChDMk5x2Bk0FqEDNChDMNc8OfaMCVGCSChDMk5x2Bk0FqEDNChDMNc8OfaMCVGCSCvwPwNaR1Pk9liAAAAAASUVORK5CYII=;" parent="1" vertex="1">
          <mxGeometry x="938" y="513" width="358" height="130" as="geometry" />
        </mxCell>
        <mxCell id="9ONS5Pu-zSQsGi_yFV8N-9" value="" style="shape=image;verticalLabelPosition=bottom;labelBackgroundColor=default;verticalAlign=top;aspect=fixed;imageAspect=0;image=data:image/png,iVBORw0KGgoAAAANSUhEUgAAAQMAAADlCAYAAABXu5LgAAAc2UlEQVR4Xu2dTYwexZnHHy6QCywHhA8gZPA4Zhzg7hyyQrYRHrLaiSOtRJBW2tgyYECyYVjZua6ErTAGtICNEWalSF4kJMxEu4z5sGUlB3yHxGMWGywCB7Noldg5EC5sV3dVd1V1ffbb3W9Xz38u9vRH1VO/56l/PVXdU33N99kP4QcEQGDVE7gGYrDqYwAAQCAnADFAIIAACEAMEAMgAAIVAWQGiAYQAAFkBogBEACBsWYG539N9/3sfdr69il6+k64GQRAIIaAdZrw24fvpP2//3s6sHKU/jGmxGleCzGYJn3UnTgBsxjwTkW3fkl3PH6eXklFDSAGiYcjzJ8mAaMYnH92C22/8DidmHmJtr9/H5344F8piawbYjDNWELdiRMwiMEKPbv1Z3QxzwiW6JHZl2idPgf/7cO0cR9lU4htdHJ2H/2eQ7j1l2/T+0/P8t+Kcj647236d3qCtr/+JT/umXqIDn3wPvpg3+v0JUnX5/X+rkJ+6y9VoTKJQX6MlcN/fnKQzh2dr8rQy9TPJ+5gmA8CoQTqYlB29GKtIF87IFsHkjoq73RUCkIhBv+R9UJZJLxrEaLzah09z1ZeJ/oXSZhqZeliUBMHbtMdvD2185n4PUz0iiwWoSRxHQgkTqAmBrXOr4lD3t782EWlY7LDeYctpxVaxytBsWwjSysOWtYiuBjcoZy33aMd1zo3a8vLM3K2ImxnWU0mdqa2Je5QmA8CTQloYmCaFhg6oq0TKceraUI1dWBm2o7zJlhT/Yv0mOHJhtLhlXurzKQOR2Q05uylKUzcBwIpE1DEoEjFy9m12i45bU9IDIq1D5+LCsFjax/quofvPpwHgfEQkMTAMWLr0wKLGKhTDEt5vhV/4/nm04TaeofDd+o0ZzxORktAIIRAJQbOTqp1bLECX8sWfkc/Kef6VQpeO0baUwDZUosd1gXEz6Sy9Hu5nVX9bGHj1/TIf/0DvcKeemTnH6GjZeYAMQgJGVwzVgKlGOSjutyxtBYXnXGduvB2kGi/9KhP6XTl2sBB2vr+vvypQv6jPw7UyTpEqTaN0R8Dmu7VHx3GPKocq9fRLhAwEGj2V4tBq/CehUK4AwRAYFAEIAaDcgeMAYHpEYAYTI89agaBQRGAGAzKHTAGBKZHoJkYTM9e1AwCINARAYhBR2BRLAikRgBikJrHYC8IdEQAYtARWBQLAqkRgBik5jHYCwIdEYAYdAQWxYJAagQgBql5DPaCQEcEIAYdgUWxIJAaAYhBah6DvSDQEQGIQUdgUSwIpEYAYpCax2AvCHREAGLQEVgUCwKpEYAYpOYx2AsCHRGAGHQEFsWCQGoEEhODM/Sr2Rdp3ckTtGNtaqjHbO+Y/cLa9ijR4fP0zL1j8aG5TUYxOLP/TnqMjtC5A0Nr/ZiDzhVoQ2932/a1Xd5YOnG37aiLwaXX6OdPXqANWb1bTxykYcnBag2Sobe7bfvaLq/bTjSW0mticOnYdnqKnqND9GT+71tlPs4ddHiOlncvZnsfs595enlFCIbvvI5Mu352gZZP7CSW/eeZyRK/XjqendGmCZfo2Pb76VBuzEZ6Sp4+nNlHG3eLQmQ7NTuU67IWlemgzT5HnYaokNsyu/BuxvNzrQ1am3S7T87QS9sEb4a8yti8nCRf5e2iiknVzoH5hQ1G0e01gZf9L/uVBZglNozH68Kk+nSBNiwu86lrvQ8Ec671J3bAFmum2FxHr7IpdJDPzTGniQGr/Emi57I5ObEMgegQ76BFR3yUlqTOyYRj7p1MHPJrfOdNQaeWlzdfKZMLQzllURuhTGfyjEbYy657j7aWQmXT7qy9+0/R5gOFCBVBQlzg6u3JL5GnUEqd9TrUtlyiM2eI7r3XJQY2u+sB6ecksRVBLoREaecQ/RLbXr0NPr+aYiOMvc49/32R+ECkxUwkZ6dPa/Gt9x1T3dlgaPS5zLdqtyoGSoWSMBQ9xbB4pxeqL+650j1fecLBspNc9cn2Nk0zY9ujM5KD0maDftxXp4m9jZ0IclcdNl/KvEP82KVffPaLNoQIvt7eUL+YePhiNsTuUM56Wb749tVti7PquCIGYoogpgbq7yYQPgNjO4tJnV2NyNRRGRTkqQJXSpZZO1aCC2U/J5UiyrA53lWnLga2EUjubCYnFnXUpizlNCiGU6iY+IJUb0uXfjExcdVvycqMfhU8dMa243o7Qzk0EV29P9lizSdKPp+bY04Sg6rzqGjFfDt2NPKpd0iD9DJCRlFT2mt5HMnSuBdnyrUKNfsJta8eiMWR0BEo5Dqf6rs4+QIjhFeM723tCanHJki++rWynX7VBdsUG/5RtHq07YpJFwtfm5rc6xtkxHlz2ZUY1AAyaMUCxsUn2DNWLhb6ApYyn8+UzHo+LBjyOfkn2mJiyJqBrU8qbXAHTX3+Vw+UmMeu6rVizYBypssPsMXEtcUaSTnnlO3T2au2xHCqC1NsoPG1kr78YhBSd3tj/GpjHMZe93+xmGjLJn2c3f3FHmshA5VrAPGIAav4pZkiQBUsLFgvPJG9c0DFmsHCD+nQIk/OTSv91vNhYpCPY8FPE7RsprRHPV6s4qvtKqyRV2uJZhcMK8O1F5xsdZrUSC2/TPulVet6nVVqKNtdTmdiniYo0wrXqBEyWvbpF76QzNL8oPbq7H1+NTG2xYzecXSfHiHabRtxfWLg6k8io5OmCkp8+9Z1QsWganfEG4i+9M933jp04wQIpEsgfxR6gR73PrkKHwynBQNiMC3yqHcEBHiWsKHJ27rDGzwhBiMISTShPwLKFJZVK01j4qxIWgzimoqrQQAE0iIQkRmk1TBYCwIgEEcAYhDHC1eDwGgJQAxG61o0DATiCDjEYHgLHHFNm8bVxTPbZhthTHJvW22dxOdDsN/FYZK2mcptu71tlxcfE9rryKEvpsRXhDtSINB2h5lmm10v3UzTLlH38FhDDIYQF4OxYXgB2hwNxCCWXSEGxg0l+OvH0mYJ6mu9gRsvZBaFb6yRXWzdbEQ/Z9uwhAeBdRMWhijQ9vz1z8k3jSicItnbYBON7F3p+h9U6RtZiG2pQjd2YUilV7/dr2PLnUtjLHPKX4Gu+0D/y1F7vYYQ9m1Ao792/Vq2x8ZOfUMYXzwHvG4teGvt3Xxa/8tX9mo7fwXeZPvtpg1cuH3S6+/e1/Jt/o9VAX69JzPQN8gQG3+4Nvng7zqL4I3aWKPJphR6y7X6Wdd3bZjSw6YR6tZxzD7/nzbHb14ib8oS9nf+/o06bNPGOuP6X3zaY8ddr+5PX0y4bNTPhduk/pGQr72Szcof/DW1PWSTH3tbGmoBRUwTDCNDqWKufQ0mSddcddqabEp1m9rO6vDZbyvblnKHHLe1IWTzktBUP5aTzxeu8zH3+kK5aT0uP8byNsWF7Zjcnqa2i7JD/O/jZz8/gRiEbrzg60yqcfbNRgQQ06YUNuDi+HQ3jVA3KrG1Qw+USTbR4CMZm5xYN3YxZSiTBmvIX+/56q0Ha/gGNKH26x3XZ5NPOAubTX/529z2SfzfTBAmEAPb9wt8nd8xck28KYVLsW2q6hOSmPaEjPohI0XsSBVbb8jI1mQkDRUD35/f2tJuUyeOmSaEXusbiQ38TPuBRG2eE5I9DTIz0DcqdXUoX2eyOz5s4w9dBfmo6Nhkpe9NI9RNYmR77RuYTLZ5iZwRic1p6qOFe6OOwjbzJiy+kdLtc3e9mp1ah1JjIsbGAJsCN2/heYC0J6hFjJ22t2mPT0jCMoXaHoj5foB5R9JXN03Gh2y8ECEG3s1GzBt/qE3l9Tk3WanS6PzejjeNKKoQG6yodavHDbsZBW0ZrwdDCCdmlWujDpb3VluK+zd+iUnRPfUqDnVtVOKyUd8gxRfPAU8TlI1uqvbecVTa2l/Ynveh26Wt/PXNc3z2xdjTgRiE6cfQr3JMQ4Zu+mq1r/EGIasVWDftHuHfJkAMugmVrkqdZIOQrmxaneVCDFan36fa6vY2CJlqM0ZX+QjFYHQ+QoNAoBcCEINeMKMSEBg+AYjB8H0EC0GgFwIQg14woxIQGD4BiMHwfQQLQaAXAhCDXjCjEhAYPgGIwfB9BAtBoBcCEINeMKMSEBg+AYjB8H0EC0GgFwIQg14woxIQGD4BiMHwfQQLQaAXAhCDXjCjEhAYPgGIwfB9BAtBoBcCEINeMKMSEBg+AYjB8H0EC0GgFwIQg14woxIQGD4BiMHwfQQLQaAXAhCDXjCjEhAYPgGIwfB9BAtBoBcCkhj8mR7e/xW9StfT8oHbaJuo/uvL9OPnv6Gza26iT/esoZlezGKVfEsvvHCR9l6+lp7fu5723BxbsaU9scUEXS/qamprUCUSk+y/vfsjxMY+mYfYg2tiCEAMYmhZr+1JDIQw53Z0LTxNwEAMmlAbyj0Qg6F4IsCOC6c/pfWnvqNd91xPr350lTZtWUcfbv5BwJ19XQIx6It0F/U0FAPhdGFSNbU4+cYfae4jMWrpqT6/z5biyiPfPTfR85e/0aYJ9nrrcHyBKWyr7tz10I/o6F3F70U76ufMxw11udpC0tRry99o/fGreUXuzi3szVjvvY7+TZ+6ydM5U5m+8zpA6frn12R++Ej42OUDE3Pt+ntuoe8fvNHJuItAR5l+AgYxsNxUdmA9GFRBWC9Gr7xjVdfmgX73X/L1BzKNaEoKLNsghMVdb7nGUd7qEwNTebyur7+ga3gHFcXlQkGW42U7eYfxtaUUg2tp0+Xv6Gxps7ZeI2NQ1m7+jv5bX08pz+tl8jZZ67RMN2ptYLbdQEv5upL+owuFTTiK+/JYWPO1mTEXY3/o4oq2CUSLAfHOXi1gVSNs3mFuLka9vMPnDv8bbVqTBfyabES4+0oeAPIILBokUmAqRw51Hv7Tj4sU2VpvLYh8YqCiFCM+s+3py7wubTG1tFFfZCW1LiGItrbsER2znPf71xxE3SJ70H+nsvNWnVu0SRbis9Jag3Jen24YyivbXw4Mmu81UaxxkATtVBYLW5g/ayzbDnGUF0ogepogxEBOadXA/LZ4KpEFzHLm8LmPb6A8zbzMfz91nfq0gltaC27taYIQA3u9+tzZIwaW0bsQKj1rsGUn+vFiRBSdoLJVmy7J04T8CY3vyUl9SlM6WHRMw1MfhSnPyuSnQnXmUtj4yuPiYfQ97+ClGOjRmNt8HT2rZBlDXBAN7UbjuK6xGFSjnj46iPl2lq5mGQHdvY5+Q3/KRvUsPWQZApkfUdYyA21kKjODMnOo16u6xC0GciZw9C57WeUagTTXZfWox0l5LBucGdRG2NCU3TCNKrMNkaKbM7az5Ujs4ecQA7vvfRmSudPYGI+ji6XTimgxmClTYtu8kahKp6mYEvCpA5sbWxfJfPPsm9tdM5BtlFuiThOqM8zuQtRYaqse/3Azz4ZER/O1JTIzqE+hivrN0wCLX6w2WdYpjO+X+HygCbAj+6qmYjrLIT0dSacjt2FpAzFg1XpW9csgqC8kmdYLREPkDrppyy30Tx9/1eHTBKkN2ai/TF/lTw+MYsCzgpqA1NY3qo7lbEuUGFQjuC6kyhz+F0T/zJ8w5NOzXLSkTEPq3MbzejRZXzaLfJpgEAQX4zaCGmU0I4DXkZtxi7vrD+IphONpQVyJ9at9b4r6zk9aP+5PngDEoBMXmtPpTl8S8nV23/lOOKDQlAhADDrxVl0MOhUC1gZfZ/ed74QDCk2JAMQgJW/BVhDokADEoEO4KBoEUiIAMUjJW7AVBDokADHoEC6KBoGUCEAMUvIWbAWBDglADDqEi6JBICUCEIOUvAVbQaBDAhCDDuGiaBBIiQDEICVvwVYQ6JAAxKBDuCgaBFIiADFIyVuwFQQ6JAAx6BAuigaBlAhADFLyFmwFgQ4JQAw6hIuiQSAlAhCDlLwFW0GgQwIQgw7homgQSIkAxCAlb8FWEOiQAMSgQ7goGgRSIgAxSMlbsBUEOiQAMegQLooGgZQIQAxS8hZsBYEOCUAMOoSLokEgJQIQg5S8BVtBoEMCEIMO4aJoEEiJAMQgJW/BVhDokADEoEO4KBoEUiIAMUjJW7AVBDok0K4YXHqNfr5tkTYcPk/P3NvQ6jbKaFg1bltlBCaNtUnvHxjuCDE4Q7+afZSWtAbMyx2/DThtlDEwyDDHRCAgnroGFxlrl45tp7nFH9LLKwcpH+si7++6OZOWHy0Gnyy8S2/tWFvUe2YfbdydycP8ETp3oGkqoDVhZIAnddB47y/EoPN4ahFgTQxaLHsIRU0mBkwcc7UkeurkCdpB6jShOHeOt3Njcc1aEQQLtGFxscw0ygxDE4Mz+++kx6R0ZDYXI6Jj2++nQ7RAyyd2Epcmyq/9RD3GVYsH3hGae+dROrRSHJWzGnM9rGSTvawtzxE9mdlgKEvcI8wubBZWDsHtQ7DBIAZ6POXI1AxCZmmOr3zILuKD+6YYrIjHgIi7eXr55Ay9VE5r3XGp1kWU27H5lDYt1uqlrA6RRZRxZI/BaXtlYjFQUqXbJTEgljX8DxcA5tPX6NjtO0sxWJJAFR2Rg1PEIIN77HPasaPIOpTr8qxEKr+Ebep4IqCEIHGnlWLiqKcMRuHYKjiFmCh2iUDcwLMlnj0p06lpe30Q9ZvFQE29uZ9MLK3xZfNtIQZy3Kl1Cb9WHVj1qxj4bNMEvV4tXss4ssXg9J0yuRjInVBWytxZGfraYqIhCGQBkAVFn3koAqCVk58jSYlluPU6nSmfqx7R2aWsRMmOPtdFqgiS5QeQHajhbhEDOZ7ueEUTfIllfs4QX7VBQtTKO7s8pVUGHk9cZrHoXDPQxSlPUORMOTIGp6ANk4uBoyMrqVXphEgxEOsSJRyhrNw578zlU4XPWXZBtrWLAEdY66nfW5uOSAG4+bQ8NZI82ua6yhQCpf0q/ZnBrs/cLE3xZRd5X2f3nYcYSDHgmuPx1Mm2+Mc7WjHf+9y6cJRnEbWphqT+uurn9S3T3Mkn6OK2R4msjzQ9YqCn8s7MgKd/8tqEfH0tM2i/G42jxIB4so7yGgE5vmrZhJoZKAuWvsxAi4tmmQGLT3mtrMoQh7YgOVlmoHciCe6uz/bR6c0HszWCKl0iSQyquZs211LKkBYns3KKOVyVGYiFomXaSCtUZAj5mlPtxy0Gt8uLoLV64jIDsUC6JGcC5XrJOLpxO62wP02oppaG1J6z3HzaE18lf7EeJBYQpemaQQysccnCWIsT4/qGNH1UM8iA7LQdsI1LiRYD9T0DebVUnSPVUjx9mjA/T7S0lHVi9iOVoy8gSqvC89k9S0vyomF2q5J1mKWgeiJgU2V1FVitJ1YMKg5iMTtbenYIVWPfJX6j+pSgaIwWT+wQjwedZbYQIz2pYrfKU0StbOVpglsMPrHFZW5fVa75aYJWr+L3UYlBW7FnWzhqWH5oKtmweNy2Wgi0HJcJYovIDNpqXZvQtUdPbZmIclYhgTbjMk18yYpB+ZIQUvA0I29wVkMMpiAGg4sCGAQCIJARgBggDEAABHICEAMEAgiAAMQAMQACIFARQGaAaAABEEBmgBgAARBAZoAYAAEQ0AhgmoCQAAEQwDQBMQACIIBpAmIABEDANk34v2++BhwQAIFVTABrBqvY+Wg6CMgEIAaIBxAAASwgIgZAAASwgIgYAAEQwHsGiAEQAAETAawZIC5AAASwZoAYAAEQwJoBYgAEQABrBogBEAABrBkgBkAABKwEsICI4AABEMACImIABEAAC4iIARAAASwgIgZAAASwgIgYGBAB9gWjF2ld/rlyZpb2O/+gbmGw/EFW+SO58he5+f2Hs69x716kFXxpK9rXkQuIf6aH9/8vze5dT3tuZnVpv//hC7rm+FVuxPW0fOA22pb/9i298MJF2nuZ/f9ael6//6Eb6M3j39DZNTfRp3vW0Ex0M3BDegRcYsDOvUdbVw7SvVrD8s/qEf/iMvtC85NEh07spLXiC8kQgcah0KIYMGG4QvOlAFQ2nXzjjzRHt9D3D95I9PVl+vF/Ev0m7/Tsnq/oVYhAYweme6NPDOSsQbRSv4dlCZkaPMeyC/1cumSmZXnLYiBnDaJJejbBsoQ/Ef2CZRf6uWlhQL39E/BME8RIzyYJh8/TM3mKUHwcdUkxVkwVIAaT+rBFMRDThmykz/6766Ef0dG71GOVsWKqADGY1IHp3u8TA1M24OrwEINJY6FlMTBlA64ODzGY1IHp3l8sBC4/8C69la0gXjq2neYWiZ4qFxRFy4rrLj5RZAfKmoHSeIjBpLEQKQbFQuCbd6+jDzf/gC6c/pTWnyJpQVCYU1y3sqXIDpQ1A8ViiMGkDkz6fumJwezCAm1YXOZPF9TpwOxCIRjFjzZVKBcMIQaTxkKkGGTVSU8MNm25ie4+dYU/XeCLgdyiTVsKwSh+1HNULhhCDCZ1IO4HgbYIxItBWzWjHBAAgUERgBgMyh0wBgSmRwBiMD32qBkEBkUAYjAod8AYEJgeAYjB9NijZhAYFAGIwaDcAWNAYHoEIAbTY4+aQWBQBCAGg3IHjAGB6RGAGEyPPWoGgUERKMXgr1evDMowGAMCINAvAWQG/fJGbSAwWAIQg8G6BoaBQL8EIAb98kZtIDBYAhCDwboGhoFAvwQgBv3yRm0gMFgCEIPBugaGgUC/BCAG/fJGbSAwWAIQg8G6BoaBQL8EIAb98kZtIDBYAhCDwboGhoFAvwQgBv3yRm0gMFgCEIPBugaGqQSaboVebK1O5VeZwNVGoGMxaLoVerG1OpVfZYIDQaCpGIBcKIGBikGo+bhu9RCAGHTta4hB14RRvp2A9EUldlH1gdXilvxTavwrq/UvLmVfaT48R8u7F2lF3Ev7aOPu4gb1Y63ii85cUPT79O++r1KfxYuB9EUlxqz6wGpBMP+U2kfF/+tfXMq+0vzQDfTm8W/orLiXvqBrjl/Nr1c/1iq+6MynGvp9+Udd8ZMugewbivtP0eYDO2lt3vNZRyZ6eeUgsb6Zf3vxnayznyjOq99i5J9YE59WE6Iyf4TOHWAfZJTLkjMK031VnemybMfySDHIvqH4xl/opw+uoRlWfy4MRMsHbqNt2a/5txc/voE+3VOcV7/FyD+xJj6tJkTlnlvo+wdv1MqS1xpM91V1toMBpUyfgN5pxWguLHOdd33ROea+6VOYpgWRYqCbqndaMZqL61zn9cVF27Wu66aJDnVPSqAY7c9JxWzkX2FmHfg92sqzhOKCmE5tuzb0M/CTtizN+6PFoBjtv5Naey3/CjPrtFdonmcJxQUQgzTDogerWSr/4kw5DXB3dohBDx6hODFgqf2p68ppgLuzQwz6cGCydWhioK4J8MVD4msALC/IFxPlzEGeRmCa0EYcTCQG6poAXzwkvgaQWVcsJsqZgzyNwDShDQemW0a2gLj9fjrEHgVkP+rTAnZEPT9/+AjRbu2pwMkTtGOtnjW4sghME1zxEicGlC0gvnCR9l4uilSfFrAj6vldD91CdFx7KrB3Pe25Wc8aXFkE1gzS7fCwPCUCkWKQUtNgKwiAQAwBiEEMLVwLAiMmADEYsXPRNBCIIQAxiKGFa0FgxAQgBiN2LpoGAjEEIAYxtHAtCIyYAMRgxM5F00AghgDEIIYWrgWBEROAGIzYuWgaCMQQKMXgr1evxNyHa0EABEZGAJnByByK5oBAUwIQg6bkcB8IjIwAxGBkDkVzQKApAYhBU3K4DwRGRgBiMDKHojkg0JQAxKApOdwHAiMjADEYmUPRHBBoSgBi0JQc7gOBkRGAGIzMoWgOCDQlADFoSg73gcDICEAMRuZQNAcEmhKAGDQlh/tAYGQEIAYjcyiaAwJNCUAMmpLDfSAwMgIQg5E5FM0BgaYEIAZNyeE+EBgZgf8HSaMypU2dkXIAAAAASUVORK5CYII=;" parent="1" vertex="1">
          <mxGeometry x="50" y="727" width="259" height="229" as="geometry" />
        </mxCell>
        <mxCell id="9ONS5Pu-zSQsGi_yFV8N-10" value="" style="shape=image;verticalLabelPosition=bottom;labelBackgroundColor=default;verticalAlign=top;aspect=fixed;imageAspect=0;image=data:image/png,iVBORw0KGgoAAAANSUhEUgAAAFwAAAAgCAYAAACfDx/iAAADFUlEQVRoQ+2YT28SQRjGnx5sOEDChbtJm1T6ESw2aRoTy4nUo72JFii0puVgvSnGVgNNDSlgYm/1SrhIY6LhA8C5VVMj38CGQOpNZ2b/sAO7y/JvmobZU2Hmfd99f/PMM0On/pEH8hFGYEoCF8aaFZLAxfKWwAXzlsAlcNEEBNeTHi6BCyYguJxUuAQumIDgclLh1wH8Q6GAR2trcLvdtuVbrRY+nZzg6fq6w9es4IU/ilIoj7O9JfOYynPMx35i57SIx7cdpr3B05jCa7Ua3h8eIpfPw+PxmLbTbDaxmYgjHH6CuwsLDlumwLP44QeCB2ZA6zhe3UaZZDMfd1jmBk3TLYVCP8ikCfQCvF4v10Kj0UB8I4ZIJNoHbJpCAY4QUEKiS+X141XsIIi5dBkzmsKZ4kt6/VDuO96wzaHkmskFUY6lcU6+aY/RYas4JVVl9w421LT+ZJKvCbrwD5ChSTE/1t3GeTiF/u7tPo5yefh8Pvail5d/EItGEY8n+oRtgHSawK8VAouzDRUgN0Ya3/2K5b0wmLswiMDR+T6WGHBiT/4kykUyzo3ZxQF0YYOfyULROJKWfU5DB8sWA6rt1T/i4TaQUeeOevN0HZoU+utUCgXi67empwnsCLa2ng0A2wi8iOVvpMmLtspZ0+wzFOWaeri2KNSOjH/zubu93y6uM7Yzr2JzMLXA4fGb3lKq1SpSr17C5XJhk8AOBAIDVrJq3BqIor4zQz1ti9sDt4/7gvtsl2hPZ32yc7gOx2crltdCCv3v1RXuLS4OCLtbhZqqy7NZg9oNzf8mFpKd1be+7ttM/TbA+4rrpfAh2nUQOuZ7uBkkqiajgqyB817rHLitR+sHaPsdOA93AG2YKYKBqweWwct5FRtvCwB/m7CzFLs4iocfD5FLAWLGc0M9kDWS2sE8DFmL2DEDH8MbjyIlvYmsXCDO+fooEvfOMYHAVbXP2fz67c1t4BkTAdz4o4eRsvtXw8AonQVOBHBnKMTMksDFcNarSOASuGACgstJhUvgggkILicVLoELJiC4nFS4YOD/AdfWQr/IhMVGAAAAAElFTkSuQmCC;" parent="1" vertex="1">
          <mxGeometry x="50" y="668" width="92" height="32" as="geometry" />
        </mxCell>
        <mxCell id="9ONS5Pu-zSQsGi_yFV8N-11" value="" style="shape=image;verticalLabelPosition=bottom;labelBackgroundColor=default;verticalAlign=top;aspect=fixed;imageAspect=0;image=data:image/png,iVBORw0KGgoAAAANSUhEUgAAAPQAAAAbCAYAAABLPaKpAAAFKUlEQVR4Xu2aX2hbVRzHv/lTkyKm61rcOtZtNrS2IOJoYa111baKbX1UGWtVZN1Diw8DnU4riDKs7kEERbuXDGUkKviyB2l9GEJqYOBkZcjQlKolc21pg65NE2yWXO/uPTf3b3KTku2G6+8+5d5z7rnnfH/3c35/ch3x1RUOdJACpIAtFHAQ0LawIy2CFBAUIKDpRSAFbKQAAW0jY9JSSAECmt4BUsBGChDQNjImLYUUIKDpHSAFbKSApUCvJJxI/CurudvHYXndkbvg83JIZ4HUlnzNX8dfoIMUIAUMFbAU6E8vuRBdc+Ymdrwjiy9+duXOOxsziKccmFf0ee/JNHwe+uuc3mdSwEgBS4H+KOLCb2vytF45xPFAu9VAJ52Yj8se+t3+NGp4z00HKUAK6BWwFOjJMHBtVZ7UyW4nvvw/Ah0L4djwWfg/DOPtbnpNSYHtK2Ap0D/8kcVyQp784/tduLosh+CNNRySaSCelD10b1MWHnfpHjoWGsXRqXlg8AP8OFFh1BDQ23+D6U6VApYCfeGaC9dvyrAOtGYx86sMdNsuDl0PrGFu81skMqto9vbigKdrGyaM4P3Db2GhpRnRqB9nZidQUUgT0NuwKd1ScTn055eqVPnxsfYMzimKYiMHU4h6jmMju5Kbe5/vDTR7nijNmpFJPPYmcCZ0AAFdaMtgHx+Df+osptnIg7nw16xdOxVt/wG2gcQQHB3BVFTqL13nz3VAi2NIc2kZD+LccKNwYy7SEM6aMR4KYERsooMUsPZbbh3QHTzQl+Uq94m+OXyfOKkyU2NVO4Z2nC7JdJHJHpyCGGoLvxfG8FVgGCIHEjwyYEKfaencrN0Y6GkogAWDGfJzVc9QAc36+llqIGxGMxA2GNz+vSBDHAkhuG+YgC7pbbB3Z0tDbjMP/VrvdXy3+bLKAm3ep9Fz34nirSLAchH9kicTAFFAwYBeUHhBtceUPK7sJfUeVTkdtgEoc3XdMzVeeZ+iKKaFlm0GF/v55+8/L8NdUTlD8eagnndWAUuBvrHhUH00ov2wpP5eDr9nv8blZBBZ7hbqXE14pvY0qh21RauiDlHl2+Qw1gxYs3ZjD63aIEoA+qVFVrzTDss2CNV6KrHAV7RlqOOdUMBSoAuF3AcbMuhsDSO8/jE66p/D31sxbKb/gSvjxVO1r8Pt8Bahhxi+Ct6N5aBCkG0QUusBZGFutwHQyjBY5ynz9VdGBZKHZpEDCnnoPMtkc1Dm10UIQl1srkBlAc0XxQJ8UWwv/wnokY6fcGGNr2TxR+f9I2jd0Yfz82PIcGk0VT+Kofp3zE1j5BkFlkQvKBa+tDmyNt81ay/CQ+fLoaVcXpVDG4XsYq7cMzuJ8OEJMWdm90CZKpgrQj1sroClQH+mrXKzotjzD2Xwp3sU8a1FQf6aexrwcN0QZpcCOXMc2fMJdnkeLGgefQGMdWcwRIWQFeJfWoMDwPQMxCK0sqDFPG7e9mKAFuICVeUaLYrCnLbKLc1PGpr1hfRfunSdQm6b41n68iwF+sqSCysb8qQfaeAwt+RA+96bCN54VrWaarcPqVvruWuHdr6Arp0vlr5i3R0GIbKqj1l7GaZAQ5ACZVLAUqDzreGv1C/4ZvHVgkts8/VjcM+pMshgBqxZexmmQEOQAmVSoCKBvr22WPIqUOALz93VLahyFlMYM1PKDFizdrPxqZ0UuHsKVCzQd08CehIpYB8FCGj72JJWQgpY++kn6U8KkALlVYA8dHn1pNFIAUsV+A8txBGJb4XSdgAAAABJRU5ErkJggg==;" parent="1" vertex="1">
          <mxGeometry x="50" y="700" width="244" height="27" as="geometry" />
        </mxCell>
        <mxCell id="9ONS5Pu-zSQsGi_yFV8N-12" value="" style="shape=image;verticalLabelPosition=bottom;labelBackgroundColor=default;verticalAlign=top;aspect=fixed;imageAspect=0;image=data:image/png,iVBORw0KGgoAAAANSUhEUgAAAF8AAAAjCAYAAADyrNZPAAADNklEQVRoQ+2YT28SQRjGnx5sOEDChbtJm1T6ESw2aRoTy4nUo72JFii0puVgvSnGVgNNDSlgYm/1SrhIY6LhA8C5VVMj38CGQOpNZ4Zd2IFl3YFlN5XZEzDvn5nf+84zs0z9IQ/k4wiBKQnfEe4sqYTvHHsJ30H2Er6E7yQBB3NLzZfwHSTgYGrZ+RK+gwQcTC0732n47woFPFhbg9vtNpxKq9XCh5MTPF5fNznlCp75oyiF8jjbW9L3qTzFfOw7dk6LeHjTZNj/xIx1fq1Ww9vDQ+TyeXg8Ht2lNZtNbCbiCIcf4fbCgsnlU/hZfPMDwQM9uHUcr26jTKLpj5tMc03NOrJDC3CQSZMCFOD1ernlNBoNxDdiiESiAuBpiDZ8hIASEn3dXz9exQ6CmEuXMaN2PtsJpU7+UO4rXrFN0441kwuiHEvjnPzSHaPDg/zaoSq7t7ChhPUnk3xO0Ca4hwwNinnbdiGn+bQAb17v4yiXh8/nY5O+vPyFWDSKeDwhCF4D7DSBHysEHCctCkxujEDY/YzlvTCYAjGgwNH5PpYYfCJh/iTKRTLOjRn5AbTIwY+kaNSPhGXf0+hAZoWBIo3197i/DWQU23Fuqr4DlxbgZSqFAjkHbkxPE/ARbG09GQK8Fn4Ry1/Igi+63c8AsO9od7Su5qsFopKl/czH7j8rjPx6fXvjtqUQujJpbSl0bzvVahWpF8/hcrmwScAHAoEhsw6CMBhOuyvPNPlUGTCGb+z3CXfZ7lGf3vxkR3ErtEd6Bl41aQF+X13hzuLikOD7u1Pt9vJsVrMLNCB+EpnJznbkoaPzbFcYwBfy+1fnj7BcQdcx3/P1gNEu03bWYPi8NpuHb6jpncO3OwdO8wUBjmJuM3zlsNNoP9/d2lsHwN9KjGTHyI/i4cdD5EKBmPacUQ5zlaR6qI9C1oTvmOGbmIETJvRGs3KBOHcO2D+RCYSv7II5g7dum+owEfC1L1iMq9HfHTaBp2kmAr6NPIVSSfhCuKw1lvCt5SkUTcIXwmWtsYRvLU+haBK+EC5rjSV8a3kKRZPwhXBZayzhW8tTKJqEL4TLWmMJ31qeQtEkfCFc1hr/BarJTrYMJlpwAAAAAElFTkSuQmCC;" parent="1" vertex="1">
          <mxGeometry x="938" y="654" width="95" height="35" as="geometry" />
        </mxCell>
        <mxCell id="9ONS5Pu-zSQsGi_yFV8N-13" value="" style="shape=image;verticalLabelPosition=bottom;labelBackgroundColor=default;verticalAlign=top;aspect=fixed;imageAspect=0;image=data:image/png,iVBORw0KGgoAAAANSUhEUgAAAN8AAAAYCAYAAAB6FCggAAAF+klEQVR4Xu2aTWhcVRTH/5PMm1gySfNBHAXTVtLGjQsRRSRNXBQk2QmikAQV2moTEHRh/Ug2cZGo2F0XKUqykUwUpIigcVPUxnRZRLsQZaBNFFqa1ppOMp1MMs97373vc+57M+/lvc4k3IE2bebdc8/9z/ndc+65E7t184YK+ZIKSAXuuwIxCd9911xOKBXQFJDwyUCQClRJAQlflYSX00oFJHwyBqQCVVIgWvjUbexbPoOG1e9QaH4WG4+OQ403V2mpclqpQG0pECF8RSSvnoayfgn5tpegrH6LYn0K2cdmoNYna0sF6Y1UoAoKRASfiuQ/7yKR/R75lhewnppEw52v0fj3BAqJJ5A9/DnUun1VWK6cUipQOwpEAl/jjXE0rJ8H6qFBdq/pNSTuLqD+3jKwGUNBeQrZI59BjTXUjhLUk5U0jg+dQ9fHFzHeQ3+xhMneD7BA/tU9OAjMz1veqy3XpTe7T4HQ4VPWf0LTzVEgTu7uc1uEPi5KkfzcjpHfx4GteuTa30buoZMBFDOB0Ad3j85hdqjTt62V9AkMTnfhk8UxaKw54Fua6sN7mRHMzwyhswRM39MR8475/JtwHcFs/8Xe7+Y+h2g/TFNR6hCmn1HbCh2+xMaPSN4m8CmEuqs5AhqnTyXgUQBTD5C/FORa30LuwTf8rW9pCkff/wE22AgUk4u9GA8DPoc3Nvj8eSp8OrKg0zaGCziWnsFwJ9ucYGTvEBwP2URkOoTsZ9TmQoePEta8+jLi+A24vsmA01808zUrKMZSWDv4DWnAtPtYHwuqjGeWs2dFE1J97Ai6ps+RMrIfp0cz+FTPFDRZULu9i7zsnMOh2WFM/2m6N/DOCDJnrCXpCuZOWJ4Z+Ai/jPVAA5bWqfyl+2DLTPp82obh5jNNxJZshiMY1eASSKZtShn+fmXwudt294d4JFgz+OdiassqCbEdNx0qXquPiKn1RyOAj3xtRs2iae044oVf7esn8BW3OrCW+hLF+CP+tLEFmGgoD4wuBgGhQMuSA1oG0AOh3ywxiYngZSefC3p5R/6fXsbw0AH+UytiOYjmnKU7vofPsAJFjaUxd2BIDJ8QCuaD8OXU0rDtpaHbmhl8dEMzynfdH+FnIdDd1R9/IbLbno4EPipCDHkk/zsFpXDJ0KSoEvDaviIZzyd4IlCcSpfAyYLlwjF6HlxmAcKzkz40MHxOMCoM8pL5vHw++IVl8ygXVpYsY6zRIwPaNiaL7bL+6NnV6g+f26qt52fRWbrpuflTbtm7/P3I4KO61BWvo+V2H5OIHP3WWs5jS3k8mGRlMp+znDEm0YJCL43sjZmg8L16zaNxwgPJXKRZLjrn8/a5x152OjYOw76tEWQB4ZVrlnNgqeS2ubltL3/mD83am1OGydLjQGXrsjS6jM2VN4zc1hoscmp2VKTwxdQ7aM08CSTInYNSh83E88i2nw0mBg8yuJ35POEUnxeDwjfulvmcO7jDp/KZz0UaUaOJP1paylqyYCVdT6ttLduKshuZzFVfgbYVbZR2+EyWBU21YBFT86Oiha/4L1r/eJrAV6f9WW+bRD75YmBR9B2VneOM6OPdTkFpaZxlvOCD2cio+KrBWWqxM18faHYw7bHmizPzWebTmxK2ko2d7foWp3Cxd4yd8bw2HgGYRtPHJYOspN1sl9fQLN31c66oqhCVouaZlX2Opg7u/vi/PgocXFUYGD18Vwh8JOtBiSPfSL7t8vDUzpZZUtaBN1XMIDWalMbO79YptVyi27qdDG7vez7HfaMW6KThYumADgz0Y2HBmkkc89FuJwfL6TNsnU6yNq9SzKkJffa5n7Uzo+jOr6QstNp28YdhIFqzuKR3W5fTDu0Gf4gJ846STiPLzp0xQkfHtknmu/wMg49cruc63kQuNbJzw9KCVGAPKBBt5lPz2H/5KGLFDUKiQr5SdhaF/b17QDa5BKnAzhWIFD7qXvzu70heeR0bhyew2dG/c4+lBanAHlEgcvj2iE5yGVKB0BWQ8IUuqTQoFahMAQlfZTrJp6QCoSvwPzFrllXX1rLeAAAAAElFTkSuQmCC;" parent="1" vertex="1">
          <mxGeometry x="938" y="686" width="223" height="24" as="geometry" />
        </mxCell>
        <mxCell id="9ONS5Pu-zSQsGi_yFV8N-14" value="" style="shape=image;verticalLabelPosition=bottom;labelBackgroundColor=default;verticalAlign=top;aspect=fixed;imageAspect=0;image=data:image/png,iVBORw0KGgoAAAANSUhEUgAAAeYAAADFCAYAAACB3FHjAAAgAElEQVR4Xu2cX6wdR33HfxFFAiokXqgKL7EdK47Th9IW1EIlimsHJw60N07VCl6osFWwEzdg31axC4SQYKfStZvUiR3SGJWHhocSY6nNDQ4xF/JS2hJKHxrHwbGdhz6QtoBCkOAB6P7fmdn5s7tn99w593xOHuJ7dnfmN5/5ze8785vZc9Uvko/wgQAEIAABCEAgCgJXIcxR9ANGQAACEIAABDICCDOOAAEIQAACEIiIAMIcUWdgCgQgAAEIQABhxgcgAAEIQAACERFAmCPqDEyBAAQgAAEIIMz4AAQgAAEIQCAiAghzRJ2BKRCAAAQgAAGEGR+AAAQgAAEIREQgKMxXTu2UHUvP1SZvXpTl07tl3RCNWLlTrt/7ghx48rTsygq8Iqd23ihHz4tsvuUGOf/l/1auDVHhcGVkXJ7YUbFYOXid3HamKH/hpDx3ZEv2R/r9gxu/Io/nDYzi0+jTxKqFE8/L4S0Ffyn72Pw7CvMjN2JFDm3eI2cUHyj9evnm3A9yX1mQh87fJ7mXTOej+WhR5ebFHr555VG5db/I0aHiwJDNXy3bxqy3ESddwFLfOys39PCrWY5nQ7pPLGV5hLkIMKYQJ05ySO5LgniPJqQO9tT2SrTMEjLnuLjPeb1zjYH6OpdXPaAPANNuXYxTcUui2LFy8tG/1smfLPpUDFGo+nRcYc4nBBLtZCvlO6mNmfhJPTGTLKjmMzZVBBv3Td65wRIGmySOLUKeGBFs5Ji2+Sofst7ecauvMM9qPAt6w8ze4BTmUQJHC2E+IMeGW132dnB/f6bBu7bTMhjSQXrTRbm9mLnq96+er4RXauOukCcVvWmQm8jGrN+XZUeRAcrLulYeenKjPHhTMiNRV6fZvUuyKctUTKNlA2ZvhhQhs+mTjtkxbVujwjyr8Ww6o2Z1arELsxFg3KaVK7D8jjwdmq078lXiviTVu3dJzicrtLsWX5C7lZR4fm8pah+VS0UKu6xr4cRJkb1qWqZOcxe15alAZUUicn21GjPTtbVtLpvL1VKZtnelGo0VsDUQtLlnyh1eCIEmDg0T2qyYdX71KrBM4S7KgQtL2XaE6hONNKpjS6Rtv5kpWL38su9KmxZk4cwZOVNlCuxtcNmYOLO2nVP7kg7QTAdWV63sC9ablNX1yC7hXzG7x0Ui6Xl6vrBvYXFRLjyhprLbx4Ghx2zYNhOqLY6k8UePV/k2w4hMju2TF28qmdaxxu7/xuTfEfNyFnXM1MtaY/Fs5LGy2sXbhTnt+OMbA3vJuYOX+2a5UxyXa7LVgmPl1ZgNNx3JvhJtBrErpx6Vy7t2iyT/X5/8f11K0rS7UZ/HZtFXubKyIitbtlj2AC2DpJF6M9PXfVNMA7pHMZhdopLXFBJmY/9UK7MMYuXkqAyAZtDxpLJNGxNBO3V5t+zKJnDKvq1xXy6o9aSs7jvTpsxJvGU1VsxOmxwB3ya0jkmRU8gH7Ha1KLcwh8dyPc7zlfdtF/RzCF3iwMpQY7aIM27bwn2Ux5Ft+cKgOltRjwVfuyZicr4eF9btDy2m6PHDzU+5z8jarbl4NtIYiaXY/sJsEe964Cd6mTj6i/uMNF1fYc6Co7Q4LBMQTZ/NW5/W0pDODjJXyNbUmynMEewzDyHMjUMoqshJ49CTKXLBNHFhY+NAkq/ej7yYpYTtmQBDhMvJm3bgUL/HJczhQ1KmuCke5BPmNNXd47BOnwDSPPxVTGYuNyfi1VjOxkW9LZPP35TDX33igGb8pGPWY5sJyRlH8r7T4lUwVkzCxDhzEowpvom9es0U5npbZc3Fsz4DYIae8aSyDcezOnmZ3Kov5gEsFWbLgadJhNm1gi+CXpE5TQxRUjZmfVoKyLR5XR5wkiCfluVcWZqDqE0qu0ztr+YBsAFS2WZKtyKYnUAeQJjTmK+mjYt0t7fe957NDlfZ+6spzLYT6Vk7ilPUtsmDzabEW4zPbAiz9Q0B37jY8HAze2YKc3G4TQXijQNDjdmQbbaYZY0jlonzNJl0FWYnP0PA13I8myGR7WOq4/CXJ8iUtXjT3Y4V4tDC3JgBd59926HlAV2sB3PM2atlNtsQ6whS2dWraL7XdPyp7FwgXalolwjW9wdXzGpnKKvno7LfXa83ExC2qSGvvja6VvT5MjJbdR2dxVS2byzbVpnq/V3jwJBjNmTbpMLsWgyE6u3KpIswe/m54sxajGd95G52nnG/LlXOtrT3MZOGJY6Rvy6Vd/YF63uQAwtzsS+o1pXtDW24KLcpg6c6BVumBq0TAYfNVbvqINtIxVcBWM8GmHtEjb281Top2lCdMiPQ93UpW2o42Qden+wDrwuLYFCYV8qyUp3Lbc1T1Jeb7wZX9zb3sht7zJoP+9pgeV3KaZNlzWy8217hj/7wl28sm9fMyVvHOGCI1kRjthEXQm8VNG2t95jNDN8UmXQVZmfMU4R5HuLZ7OhsZ0sDPzBinmCsU355TUWQq6otA75rT7W+Xz+Vnf/Qgv/YvlFXlubcJueU09ybk9Oim5YuKi/Ym/V5bDbTQ+aEREGr26mslop8urkf2by/cz8N+IClT6vT7KHDX7VgNrcOwsKs+YvtVLaZPlT7wJf+VH6YJgdlnso2Tj57y1L8LLVx30XZoaZqPX6RTyYs+3o2YS6+i+d1KddYNvs82Zc+kbxtcdx9Krvmb4sDuv9NNGazoVdvP2VvZTRsayybtRPmycvlRRyx/dbAlJhYM2z5ie1mnPTxM/eY8225fEi4T//PdjwbMDRGVFTwl78isjUeU8wTj17LIjj4FQ+5NW9J2/f/9ZPNax4LDYyZAPEsut5BmHt2SdtXXQb7taWedvLYtAlYUuWGCeEfepm2zdQ37wSIZ3F5AMIcV39gDQQgAAEIzDkBhHnOHYDmQwACEIBAXAQQ5rj6A2sgAAEIQGDOCSDMc+4ANB8CEIAABOIigDDH1R9YAwEIQAACc04AYZ5zB6D5EIAABCAQFwGEOa7+wBoIQAACEJhzAgjznDsAzYcABCAAgbgIIMxx9cdo1lx18L9GK5uCJyfwiyO/NnkhlAABCKwJAgjzmujGcCMQ5jCj1bwDYV5N+tQNgbgIIMxx9QfWQAACEIDAnBNAmOfcAWg+BCAAAQjERQBhjqs/sAYCEIAABOacAMI85w5A8yEAAQhAIC4CCHNc/YE1EIAABCAw5wQQ5jl3AJoPAQhAAAJxEUCY4+oPrIEABCAAgTkngDDPuQPQfAhAAAIQiIsAwhxXf2ANBCAAAQjMOQGEec4dgOZDAAIQgEBcBBDmuPoDayAAAQhAYM4JIMxz7gA0HwIQgAAE4iKAMMfVH1gDAQhAAAJzTgBhnnMHoPkQgAAEIBAXAYQ5rv7AGghAAAIQmHMCCPOcOwDNhwAEIACBuAggzN7+WJFDm/eInHheDm8Zs+PSeo7LNU+ell3r1kI9k7RBZTE0/6HLm6SdPOsmMEQ/hcoYY8yF6hyqz8ewfSjbVqucabEfsn3ufgwK88rB6+Q2OSnPHRlVmSZobV8n7fvcBKZWj5p197Ul9NxQ9QzR5rZlhNrUtpz0viHL6lLvtO5d6+0bsw+HYOcrY4jyXX40ZtnT8t1J64mRQVeb+grzlUfl1v0XZVPC8IbT90mc0twVRukQfZ+b1KFswaavLaHnEObpZCKG8Ik+ZYT6v0+ZsT0zVhuHKBdhXj1vGaL/hra+q009hfnKqZ1yQI7JUdmf/f9xX5515U65fu+ZoqUL8tD5UsivyKmdN8rR8+ml6+WAka7NVuTFY5sXv5LUcTlP657YIct7l+T85kVZPr1b1omlHEkmDjcl95R8Fxwre9O2JzfKg43nxFLvNfJIlWIuIJZ2JXUuGCluvS2LsmlpuZmeTic7obqTsnMW6/KWafYX9a4PtL1PPTbGhQkNF7bZlM3cmpwSixV/aHk985Om4zb9JTGwNZ+ijxUfVMtLoBe+Zm+H2d81k8AEqM/YcD5T1Grt33zq7G6T2Yst+6IxFt11pHU/uNHw3eMb3WPY6l+FXY8mMWC3ZXyH2OQUGttD/vHpilOOcW8df4V/Wex+SPZ4uCielPD76nvLrTOjDWmff+4aefyIEavMeOEcx+EY1vDpNnFY6UM349AiwaMTXeK3GjcmjdUlDGesU8ZTr/GoM8nZ5bHSk8pOQe0XOZYEyFQAk38ezQTS9kkrOCs3VGKsO1qVCs9W4HU5qfDveCIZfIXwrqyIbNmSCvMeOaMFySIQlCl1rZzQLMVlm81RzHrVe9J/K9ezzpJKcPS2iGR/L0ljIlIorRE0fGUn/XDwadl6pGCv1dum7eretb8N2raF0Vd6r4ds0jnqbAwbkoKb10ub9fbZ/UU68PGVZ/hYFtjd/a3z8AWdPmPD/Yy/XpOl2SabMHfrq7QE09c1v0n986nt1daXKtTt/cscd6YP22ONj01ofLpt8/lBqN8Vuz1cNLvV+5IxeGj/sly4OV8UlQulfPHi9s1+bQn7RjXps8bhpl/oMdAvzH6bbf0dYj9UrPbFOsdEV5n4e8eKMnncei7Ri4v7qnHjFmYtMCsi7ZvhNg4vmfDUclyiYvu+TznVdMdxsCo0gzNn3SFHMA9v+UQzVHfbZ/sIsxnk7CKYDLN6YmafjSle6QukIY6+66FyXZNEV5tC5amCGOojte6uvmG2OZM7hXeoX12+7Ro7LiELjbXQddWOsg6Tofq96ns+/woJc5uDkm36uo3vd+nbkN0li7TtD8sG2/agEneTm+QR2SEXLqar5C1JJmSnXPqILZPkq9fnV23jjMvfQj4b4tGHfxvf79JntrFoiyshPbGVExqPxfXFa+XoxXoym2Z7nMJcz87yqGz+3TQ9rSSZpSQX6pRf/V19f5nOVgewL8iVDc7LtpcTGqgu21wiZeuEUGebwa+L0/tFIJ95Ptej7SFxMQeOi3Gzt7vZFBrAruumfXaBaW9LqLy2gcTk0YZzl7Gh+3y3FPokfthmgmAbt3r709VPlo4VdfXsiwU+nq7gZvIMleHjEopTbSez/slAxSVNg2cpadupnXIsHBPZn4r3dvlqlo0s/59uEYZiUdtY2SVGtYnDIcY+jr7Y0zV+h/h0GSNl9tMWf9vEgRCTtN3qVl/O2SHMNkdNHzALsM0s/M5ZP+FyCtdAdImvz7lCg3VIYR5pxXw5CW7VHp05Kwu1vY1guGattr4tvkvTbZ1sUoO5q39tK6sWvtTJllB5Pju7BLE2vh3qO9vksE0gsPlh1xWza5Vr+p9qo1JHkY5d3nhcHtlwunjVsG17u/h42z4JxZS25YRsC/iXlUtznOUCflLkKZHD5Ur5vcmW31OlmIeEp22s7NJuV9/7/NTHIzQWu2rLJHV5OHjjy6Tjsag32wu/KLdXW8EuYW4YU86kb5QX94Xe6c038cv7fK9b6deuSL3H3HQsdzldBrxqW0i0ugzC5l5evpHfPOyWd2WobuW6Icz+fZuujqLb0frVOMM/mjYls0DlIJ5ebjHp8163Txas/iIPa5OEzvtaF+oDX007QxO3knfuV8s354ee3OcL2o+Nuif1Z/Qebvp+1gZnm2z+Eeorx1j01pHbdWHztXK7kq5t7V/a+PCN7/ZszLrN8dk+vkwoADvPZp3gfcslGV+3Hn9BpNhbLg836plIt2/2a0sodhSRy/P6rJ+xf4y084228dsfX0O+oJHwxrowM/94NOK8cmbJumJunKws6s8CjrJBXZtVBNviC+1EcXmIprxZO9SlnsQrU+C+1YaS7lDKqVKZ1lPZbtv055ondnUBDYmp2ZZkxrvXnWL3163WpZe7eVE/7e1vu5KGydiYbbS1yc5Yd0GfTUWZ6b7JUnXcvnnaOXTdeirb5i9d+PQ4lV2dmwhMAJWTm3of9RkbvmeMnii3OcyJTrnvYxyitAp7q74wnlTeptBPs/sCuN4u23O2iWtzrNQ+qsca1Uazv0Lj02Wbf9z7xrFtbLYTIKPO7MTvsuxw+mLbcRyKYT5+5TVfHwYYO8dIuVixxZ4+8TvUzpAvqBz88cWUZmefW8ejbmf5bDoBC/7AiFkxf7ckkA0mNT3R8rmZvy0gYGv+Rz9mqQNDfTVLbZkNW6t95jh/FGJgiDPiXxHGaoR5YFfMiytmWZti/sW0URqeFBoajKHrY9lFuU0C9MVUvSJCARi3/bPgX3HGaoR5IM/M96yUwlw/djJQffEWExqMoevxtmztWUZfTKtP/WdOpmXFtOuJ079mIVYjzNP2VeqDAAQgAAEIeAggzLgHBCAAAQhAICICCHNEnYEpEIAABCAAAYQZH4AABCAAAQhERABhjqgzMAUCEIAABCCAMOMDEIAABCAAgYgIIMwRdQamQAACEIAABBBmfAACEIAABCAQEQGEOaLOwBQIQAACEIAAwowPQAACEIAABCIigDBH1BmYAgEIQAACEECY8QEIQAACEIBARAQQ5og6A1MgAAEIQAACCDM+AAEIQAACEIiIAMIcUWdgCgQgAAEIQABhxgcgAAEIQAACERFAmCPqDEyBAAQgAAEIIMz4AAQgAAEIQCAiAghzRJ2BKRCAAAQgAAGEGR+AAAQgAAEIREQAYY6oMzAFAhCAAAQggDDjAxCAAAQgAIGICCDMEXUGpkAAAhCAAAQQZnwAAhCAAAQgEBEBhDmizsAUCEAAAhCAAMKMD0AAAhCAAAQiIoAwR9QZmAIBCEAAAhBAmPEBCEAAAhCAQEQEEOaIOgNTIAABCEAAAggzPgABCEAAAhCIiADCHFFnYAoEIAABCEBgcGH++qUfZ1Tfs+GXoQsBCEAAAhCAQEcCgwvzp59+OTPh09t+paMp3A4BCEAAAhCAAMKMD0AAAhCAAAQiIoAwR9QZmAIBCEAAAhBAmFv5wDNy12+elA1f/qJ86Or033eI3P8fcve7Wz3MTRCAAAQgAIHWBCIV5lz8/vm6O+T0Y38qV2vNUUWydTsnvHHoOocub8LmrTrfIe2nLAhAAAKzTSBuYU7YbrrjjDz2IVWaV0PUhq5z6PKGdMKYbRuynZQFAQhAIE4CvYQ5fSWqfC3KbFbodan0Narwq1SlOOyRS7eYaWNTOF6SL3xwQf72+dSS6+TPs3SzyDN3/Yac21qmm41nXvp7+eDnN8hjjlx0+uzH/ylvWT4xeMlIZZdp7fQOe/2JBfkz92+Xsx97QC4kd74vTX9fndR9S/539nn/A/KszY5nPiW/9bHCCHm//M23PyN55txVX16c0/bSjioLYSlHWtoWpy9jFQQgAIE1QSByYU5E9qVUoEQRJl1kMyGSQtxSwT0ociRNf6fCdm5bLnrJ93cdPCvf3X5ftvp+6QsfkIOS/9v8pNd2nt1epNBfkmeeEXn3u93C7Kw/E2YlHZ8JbdmO0Ko0vf60bK3EuLbSXV/STKftzW0Bv93qxGNN+DmNgAAEIDAzBHoJs691w7zHrAuXLjjmQSxz9XpnosyJoKerv0KkJRGsz8t2+e6lfJX8zF0fkMsfzlfW+sclmK46bav3ov7skJhqm8/uPnaUq2dXfWWZtjZ1sXtmfBlDIQABCKwJAjMhzGX69ux2W1o5WQ1qXVGms9NUbSpa94kcPCXrH9sm57JVaPn/MjWsPuxaqfqE2VX/JMKcJaXzFXfyrywFnuWx6+9qq8v2trFdFeu2dq8JP6cREIAABGaGwIwIcylK6Qo03XdWX11yp13zfeYHRM6J3F2ulLcme77nXPvLk66YTZHvu2J2leNLgbex3beKbnNtZvwaQyEAAQjMLIEZEuZ0wVgeiNIPeVV7zGY3JPd/8OHvihR7y+Xz9Qq02W/a3mty0KrTHrNW3KQr5rKw/JDWpY/mq2bdPt3+sO31/e5yQvvfM+vrGA4BCEBgJgjMljCn2pydmK6FuZHe1d59tpzGvuWsbC9Obtt7SD2tXKaRffvDRnq5qt8nzMVBrQeSo+TWU9l6mforY6760taEbDdX4ko6W+GW7ek7bZsJv8ZICEAAAjNLIFJhnlmeGA4BCEAAAhCYiMDgwhx6j3kia3kYAhCAAAQgsMYJDC7Ma5wXzYMABCAAAQiMSgBhHhUvhUMAAhCAAAS6EUCYu/HibghAAAIQgMCoBBDmUfFSOAQgAAEIQKAbAYS5Gy/uhgAEIAABCIxKAGEeFS+FQwACEIAABLoRQJi78eJuCEAAAhCAwKgEEOZR8VI4BCAAAQhAoBsBhLkbL+6GAAQgAAEIjEoAYR4VL4VDAAIQgAAEuhFAmLvx4m4IQAACEIDAqAQQ5lHxUjgEIAABCECgGwGEuRsv7oYABCAAAQiMSgBhHhUvhUMAAhCAAAS6EUCYu/HibghAAAIQgMCoBBDmUfFSOAQgAAEIQKAbAYS5Gy/uhgAEIAABCIxKAGEeFS+FQwACEIAABLoRQJi78eJuCEAAAhCAwKgEEOZR8VI4BCAAAQhAoBsBhLkbL+6GAAQgAAEIjEoAYR4VL4VDAAIQgAAEuhFYu8J85VG59aYl2XTieTm8pRuU7O5Jn+9RJY9AAAKrRIDxvkrgB6p25P77yU9+Il9f+Zp8+9ln5aqrrpJXf/yqvOENb5C3v/0d8nvv2SKve93rBmpIXsxIwrwihzbvkTOGqQt9RbJPkzt21JVTO2XH0rXy0Pn7JNPxjs/3MZFnIACBrgSuyKmdN8rR8/pzE8cWxnvXjhjl/pWD18ltZxbqOJyvkvI+l0VZPr1b1tlqHrH//ufll+X++4/JO9/5Lvn9rdsyQU4/P/rRK7Lyta/Js89+S27fd4e8+c1vHozJqMJ8YfEr8viuAuPKnXL93kSqF07Kc0f6LGEHa7O1oIYwj1sdpUMAAr0IFEF6U5xxpFeTeKgmkOnEC3LgydNSSke5SBJVT0xmIwnzz372M/nM3XfJh3ftlquvtk4J5PKlS/J3j3xO7vnsYXnNa14zSG9OT5jTeU+2KhUFur6y3qyAz+99rmjk9cozxow5E3rJVugXFhdl09JSslJPZlxPbpQHq1R2Xk99PS+2nGXrdYlkdmx92kiFmzN1dVZXln9Sdjyxp5rNTzyLH6SLKQQCa4mAW5jz1VY9rsuAft4aI/QYoGfIzHhRjvU+8WotsZ9GW0r29aJO1Y0Nn8v7uPxUmqEK8/rmNmZz4eXuS7WVz3zj6/LKK6/I+97/B9XX//md72T//vW3va367vTjX5Jffctb5F3v+t1BIE1VmHXnNwZYsaLOxEyMWdPKo3Jq/e5kBmWmNJK/T12WXbtyYc4E2ZqKLjuhvm6mTPyp7GYqRX++LL+cQLRIvQzSfRQCgXkj4Fsx6+PuspYWDcQAbcXVvLdKp5Yr9Vbxat76Zpj2ZrH1Qp22zv6WdAG2voj3ecZVi8GdhNmjPUYy9/C998jH9x+Q1xfp67TeH/7wh1n9b3rTm6oG//jVV+XhkyfkwF/85SAQpivMosyGNjxspCxyWMs3JzOl7Fois+aetC3NkXdRLsxqmtwy0LTUupH68AqzOVFIqwyUT2p8EP+kEAgYBGx7zMqEvBTMhQU5c0aNIc2VmDaGtVWWJZ40Yk+LeEXf9SOgsc77Qmznk9T7RFklh1bMvr6s8ue56Z/8xCG5597DWju+8fWV7O/00Jf6uetTn5C7P3NvvzYbT01XmBUx+7NLaqpasaoQVy29rH2nHNCqHgsMui2h62Wa3XH4C2EexNkoBAKTEwjvMZcp7WRPSjks1F2Y1Ym8ud1VtcMTryZv67yWYC7gpM6ElmeVKjRFlrKDMK/Xtkmb2qNS//Rdn5RP331PK2H+5F8dTPaZk33VAT5TFWZtFelc/RqtKjoi20torLLLe0PCa7mupqKSiU+/FfOy7MgOKbj2RWyTiAF6jSIgMLcEAsLcZcWsxgDLirl5eNU4lGTrAzVeGauvue2yHg0v09kHNi0lp7GLg35GzBbXitmyENPS3m21J7H7yGfvlTs+vr86iZ02xbZi/uEPfiAnTz4kBw99okdrm49MT5hNqLb0c7GXvPXcnXJu6335qbxilZ2fyLtspKz1PWZ3qtrcM2ruATcOpmmpascec7UPgjAP4o0UAoEggbZ7zNvkXPZalXlwq/zbGNOhra9e8SoNYHx6EVBWxvoh3frwcC62lhXzFjNem/HftlVRnmPSrU0Pf738ve/JH/3xn1QXbIe/vvjYP8hb3/rWRnq7V9uTh0YVZv09ZvPdtFp0q1cSi9RTstmsnMhO7tNesTLekdZOXCqvZ9kGWrLvlGw8SV6faU9drv1UtlFvIE3GHnNfl+Q5CPgI2N9jTsfs7RdvrAN1qonaK5rFmxuuGBAU5r7xit7sR8BzAK8QjIXsHEGRxVBT2enWr5byXpADiy/IUcvvVJjaY06lfv7zn8snDt0pf7hwi/z277zT2pRvfvNf5PSX/lEOH/lr+aXXvrZfc42nRhLmQWwbsBBLKnvA0ikKAhCInQAxIPYeitW+73///+RY8hru29/xDtm67QZ54xvfmJmansQ+d+5p+ddEmD+2f3EWfmAkNsQMyth6BHsgMF0CxIDp8l5btZU/yfmtf/83+elPfyqvf/0b5BfJfzP2k5yxdQqDMrYewR4ITJcAMWC6vKltEgJzksqeBBHPQgACEIAABKZHAGGeHmtqggAEIAABCAQJIMxBRNwAAQhAAAIQmB4BhHl6rKkJAhCAAAQgECSAMAcRcQMEIAABCEBgegQQ5umxpiYIQAACEIBAkADCHETEDRCAAAQgAIHpEUCYp8eamiAAAQhAAAJBAghzEBE3QAACEIAABKZHAGGeHmtqggAEIAABCAQJWIX5+//7cvBBboAABCAAAQhAYHgCrJiHZ0qJEIAABCAAgd4EEObe6HgQAhCAAAQgMDwBhHl4ppQIAQhAAAIQ6E0AYe6NjgchAAEIQAACwxNAmIdnSokQgAAEIACB3gQQ5t7oeBACEIAABCAwPAGEeXimlAgBCEAAAhDoTQBh7o2OByEAAcujWdgAAAaXSURBVAhAAALDE0CYh2dKiRCAAAQgAIHeBBDm3uh4EAIQgAAEIDA8gSkL84oc2nxcrnnytOxal/57j8iJ5+XwluEbRokQgAAEIACBWSSwisI8BC5V6Icob9bLgMes9yD2tySwcqdcv/dMfvPmRVk+vVvWaY+mY+Gs3HD+Pll/aqfsWHquuLogDyXfVWuBK4/KrTctyfnsqnGtKq9lWZIvNnKrrpcD2QIkL+SKz4b0hmB7WnKZ+9vcfZBAdvZPfi33l3qduHrfIcxrypER5jXVnTTGTiAVseMbLWKs3J7e89R2ee6IyKGDIoeP5OE2E8iL+5Lv07+vyKmdN8qL+4qsnavcvmXtlWISkIxLpw2FKIfagy+0IGDpz6oP3Nfk4HXy4MaTiV+8KBs2LsttiX88JHtW9btRhXklafBt1aT2K/L4rstGKrtMa2dDJhskR7OpqzrbLMTmxA5Z3pvPbBfS9Pd6daabfnmyGGyW/lNno+Xz2Thtlq3PmkPXHb6i1afOwl1tzMtx8irbXq0MLOVIBx4tXJxbIBAngdT3H5YNp9WVjWlpes9+kWP1irW6I10hJ5eOZitsc0VkWyG1LEsrt45nleirJmr3tmlPnD2xOlaZiw/l7zQGVn1r9EGqF65riRakE7ZHLl4rFzZ+NNGpdVnTVvO70YQ5m5k+kYhpNgCuyMqKyJYtbmHOREkKcW0MniQ9VIpSJnrKTLTas3a5SeL4B5+WrUeKVFfjeaXsojNqu4vUh5Iq09tlq9M2uBXhtbaxmMlbeen2VQLuZKVOdlZn6FArBEYjkMaGz4nsuLBUTOKLibp6TqUhkoo11erXsWLOVtlKYW3L0sqtx/tX32s5Q6Pe26Y9o8GcxYI9wny5zJIoyehEV7I+EM+1SrS3yblyQleJ/Op8N5Iwu1Kq5uEv9SCYuXouZ7yejsgOkKnPqXsIlgGbr0s9q/Y+18s9pbK+Nm0vZ3OuNpYDxlaW+Z06oyeVPYuhBps7ECiyUVnWTM16Kfu56STfKojZfvJFuV3bR1SyT5a96rZlpRP2A3KsWm2VKy7zOzFtaNGeDnTm4Fa3Hmw95+6Do7K/Xf9EQnBEYTY30n2ipwtqzqZMZ3cRZjtV/eCFr+w2gulJbVXV1+3RA0gt4s02hnipYu0rhxVzJGMLM8YgYNkHTsXzwY3pVtm6YuLdHEvWTFcmksuyoxT1hnDbs1/WslqsmJ3PGfvLenvGgDjLZY6wYo7wraARhdkmEG1XzKrjTCjMjYHcZsVcDmzXitUmojZnD9XlWxmbE5nQva77Z3kQYjsEDAKW1LK2qrUIpG0161rR9i0rO1WtCaw+gXfZkK2gtb3P/KyJdcWPMxQTLzNLWvydprJdfeC7ls7nIvuMJMzFQaZyH7TrHrMGaVhhzlfPUrzKUKxslYNj2l53ebzeeT3Um/pJQL1s/Vn9mm1Pvr7fXQ6p7FCPcH3WCRina7VVriWble3hXiOPq/vGJQLrCrkM+h3L8p3w9tlgPmdNt896nw1pf97/yzfnGRI9nvtO2bc8gT+kqROUNZow66esbfuv/v3h+t1EnzAr7wc6T2WrJ5jTVx4XZdPSsvIjJ8lAXLxWji7Z3oks6nZed62S61Tz5sUyxVauaJU0tLanpduZp8B9+9X2cqq0ve+U+gQOw6MQWH0C6taX8gaH7aCW8UZGbrvyjOuNjT5lud6JDtngfb929WlHZ4HCU4/niaW+99JbvbMeR2tHFOY4Gui3IrTCDF2fhTZiIwTmg8CQKeAhy5oP+rRySAIIs/d1K4R5SGejLAiMR8B+UKtffUOW1c8CnppvAggzwjzfI4DWQwACEIiMwJwLc2S9gTkQgAAEIDD3BBDmuXcBAEAAAhCAQEwEEOaYegNbIAABCEBg7gkgzHPvAgCAAAQgAIGYCCDMMfUGtkAAAhCAwNwTQJjn3gUAAAEIQAACMRFAmGPqDWyBAAQgAIG5J4Awz70LAAACEIAABGIiYBXmV3/0Skw2YgsEIAABCEBgbgiwYp6brqahEIAABCAwCwQQ5lnoJWyEAAQgAIG5IYAwz01X01AIQAACEJgFAgjzLPQSNkIAAhCAwNwQQJjnpqtpKAQgAAEIzAIBhHkWegkbIQABCEBgbgggzHPT1TQUAhCAAARmgQDCPAu9hI0QgAAEIDA3BBDmuelqGgoBCEAAArNAAGGehV7CRghAAAIQmBsCCPPcdDUNhQAEIACBWSCAMM9CL2EjBCAAAQjMDYH/B+Lh+0t3seCsAAAAAElFTkSuQmCC;" parent="1" vertex="1">
          <mxGeometry x="938" y="710" width="486" height="197" as="geometry" />
        </mxCell>
        <mxCell id="9ONS5Pu-zSQsGi_yFV8N-15" value="" style="shape=image;verticalLabelPosition=bottom;labelBackgroundColor=default;verticalAlign=top;aspect=fixed;imageAspect=0;image=data:image/png,iVBORw0KGgoAAAANSUhEUgAAAH0AAAAcCAYAAABMKLDaAAAEWUlEQVRoQ+1ZS08TURT+yquCtVZR4gOqSdMa49voBlAXxETia2ekjS5Qk3arJr4W4MIHv4BuZCVl406NbFgoNrhzqZQ0Vir4qK0kaluKtN55dmb6GopDx/ROQujM3Pnuuec73znnzhiika8Z0KOqPGCgpFcV3+xiKenVxzklvQo5p6RT0hUe8H9MildaLXWIxRcRT2X7PseGegS+L4hjDm4xorHeUI1+/K/WXLSmNz8Iiou52m7Bs8k4AtGUeM17ugXup9/E84krVjCBQA99e4CSrm9+NLGOkq50a9iHXqcXtoevcKdDE59XHLQo6QPjMdHA9rZGTJHUHiF1XThO7TCRlP9LPL98yILmxpqlL4p3dEB80g6P7xFcbUuHWvYT1U76StT0sO8Segan0C1Vlv8+Om+Oyq8tm00KIHjgn6R3Yx0w/wdYeiPnx70jtxD0DGPIKZc1Fww2DIxfQOiSC4NwY+SRE8Io//2juBEUrnE4L/hVOUQ8Ad8N26CX3D9RGq8f6JOl9/zY8vkB9vwFg38bTFVgz/EAr2/rr0Ysi/R7x9djZDIG0yrgyxwwdLIN+zY1qJcUq+hg/lQuvTetHCcNFmCYCQob72BZlhAIy5LBGpczrwTvyLikpocLYl/8KAQlQ7Iwj1CWuOfGunKDWb1ztBtZlPRC+/R6shd/GvyBt5HfMsvMDTXw7G/B0TYTMpnS33GyaubUITtktVWREVjSwKkqh0Cpw6e5DNCtVFwRPOm8UAabBFsaHFbS/PWHYMMoggzR7L0xdFWqLykRL2UpfeCsFZZVBjyfnEUkwb+cIRx3tJrhOmTFutoU1iDb8BW0Qa3SSU6XptNpSeoUeoKcOViiUbB8FMKDhHROzVO55rPYVlHNd9GPPvLH/O8J9eL1sZfoHNouK0fa6XbpyGWRfrV7M5KGNFw7NyKZTOHlhxjO79uKz/EF/Ej+gd2UQWtDWoU1amo6nwWEAHnYhbGbki1VscDh026+nkFM8Uq8okqXL4mr2254gl6EeskWj8kMhGyPzUt6EH3Wc2YFZZF+jZA+O8+9mdu7sQkXd7VgYuYnQeOcYm8CWo0qlE7Gqu/e+QBx2BEIMA2eUBL4eipN4X4fhq1OsuUrHFQkd3BZQImXp6zIyoOILfQGo+SH0DNkmz7ZbkRF+K/kkKKkn3k8I9pybo8ZE+EEwnMLaN9twad5Lq0baw24fngr3scS4lh7E1G6UY3S+Uf45iu78Pz7dCFAst05/4Ryn++Qd/V5lS4JOBmecp9eEJuZWxlwfOMXUDSOK8moirnK+p7+JpLCyIc4FkkdV5KeSWdwwJzGOvoKXoX7KzOkLNIZU6NE6E/IV7jA3Dyr9HfRBEv0HtMi6uiHtsqwqXLWskkX8N+RUr7NshoLqTjW1pbepqm0iw7T0APLJl1D2yi0Rh6gpGvkWD3DUtL1zI5GtlHSNXKsnmEp6XpmRyPbKOkaOVbPsJR0PbOjkW1/AVc8GUrIl0ftAAAAAElFTkSuQmCC;" parent="1" vertex="1">
          <mxGeometry x="938" y="907" width="125" height="28" as="geometry" />
        </mxCell>
        <mxCell id="9ONS5Pu-zSQsGi_yFV8N-16" value="" style="shape=image;verticalLabelPosition=bottom;labelBackgroundColor=default;verticalAlign=top;aspect=fixed;imageAspect=0;image=data:image/png,iVBORw0KGgoAAAANSUhEUgAAAF0AAAAlCAYAAAAgAOVvAAAE6UlEQVRoQ+2af2wURRTHv9cj9cqRlHIVC6UQehwtGi3aUKPRSiQGf0AiGKjWNKA2/oarNFU0KlJMGhVir1FMMAYLWPwFmIDGGmO0hto00ooJWvpLW/oLaLHgtb1ie3Vmbve6u93ebrnLrl5m/upmZ/a995k37715PcsYGeDDUAIWDt1Q3kwYh248cw7dBOYcOoduBgETZPKYzqGbQMAEkdzTOXQTCJggkns6h24CARNEck/n0E0gYIJIVU//utGL8hP9+L51AD3eEaZW0oxpWJ5qR/6yBKxYZDdB1egRKYN+fmAUGz7twPG2QTgdsbjk8+Ozh1PgJ83fdR+1I95mRVPvMLIX2rE/Zx4c063RQ8JAS4LQ/xoaxS27W7F0rg277ptD/m4hwOfj5pQ4pk5N+xByKs6g+ulUbDnWjV97fPjpKSdmxsUYqG50iApCf+TzTvj9QPn6ZFT8chFl1X2oIYClI+vdVmy5zYEHM+KR+3EH7LExeH/t3OggYaAVDHpj72Us3/MH/nxhMWKtFjx2qJN4+HQ8npUgU2V3zQXUd/kY6OGRMaS+2YgfnliIRSQUGTeqsO2m95B65CA2LAhXKv2WGyitx/bscL+lfz2DXvRVD3b+2Kd/lWTm1jsSUXL3NRprA8Ydk81Kx+YrAhdJ6HpNjqxMBj3D04x96+chY46NaXH1jgacLnRhliJRnvOOYmlZM7peSmPzqNc/SsJS/WanDuiR9M5IfctE6LaXf8Ol7UtYaKHD8uIpjJVcp6qR9N3AZT9mv96AgeJrw4AueFHpSlQWeHCafGmV4rhXbbsRzx0NiEhzu+HyVArhZeJaYDXeriuGNFpI1yPdjcMVGxGITFIPnkSPBR8id01ALzZWe3CCxqKqV5FZICilIjMUEObpFHr/a0tgmzY16IP/jCGx+HcM7ggXOgk9IgxmDILg2sofwtrKlUFQ7NkDITQJYUsCUnW+ZD3bAAjgJkCfTA9leKHP32KFYnP1nptgeDmQk4Lrk65i6xzFDWgpWjyhHLwwOIq0XU04/0o6m1fX6UP+4U7UbdITXpQxXfRINYPE8KEWS1W8U5Yb9LwXgYWaq/edXtTj88JOpM9nJ+KNe/Qk0snisBZ0pUdpQW1Dee5WoIRWN2oeOdl6LT2U+o8XB8pwqLUNwZKRXoyai1xIiLMi/1AXS6qbbp0lW+853odTZ4exh5SMfcTrXTsbUfuMU0fJGCr7X4mxWidBzZNFU6Qbodebp6K/FnLJ715oFTJC7vu0ijl48iIoYLXLUeHtDuTcEI+8TzoQS3LABw8ka0uRxU7l9FDQSb6SxWDh+ahYbgreJiY3mhrV5jeNJ8/QMV3qzVonSrSDnqz70fqk/lp/QhsgMzkOb92bhGXvtOBI3nxkCW2A2jNDWLO/HbXPOlH4ZTdOdvvIpjhJP0ZPG0CtTherlNDQgYBRZQ0BI1eVkixaoPB0twtlHqGSkFUngTVTql6C+UGuVyCBEyXYBkN270hzf4GKKdzUZA2vXtLwyiMNr2rS8JpNuor0V4604UVPAO27WGMsOPv3COs27l2X/B9oeEX20qLjyEZkimpr95smL/b+3I/vWrw4RzaCDtravdNpx8bMmbjLNSMiwsP/SBRBDx+GUV/g0I0i/b+Xw/9HasIWcugcugkETBDJPZ1DN4GACSL/BR5oV7+kGgkbAAAAAElFTkSuQmCC;" parent="1" vertex="1">
          <mxGeometry x="1058" y="902.5" width="93" height="37" as="geometry" />
        </mxCell>
        <mxCell id="9ONS5Pu-zSQsGi_yFV8N-18" value="" style="shape=image;verticalLabelPosition=bottom;labelBackgroundColor=default;verticalAlign=top;aspect=fixed;imageAspect=0;image=data:image/png,iVBORw0KGgoAAAANSUhEUgAAAWYAAADMCAYAAABA1gkqAAAgAElEQVR4Xu2de6xX1ZXHd1Ob1KT04bS1bQCvF2wAm05q03RQwuTiABbGiPRlKypTEKpAq4LlJfShvAqoLVWBakt5tGqV0rGigNybEtQmA3SaNCAFEYE/ah+TVE1t0pSZu46zflm/dffrnLN/957f/X3PX/f3O2evvdZn7/3da++zf/CW/+2+DC4QAAEQAIHKEHgLhLkybQFHQAAEQCAjAGFGRwABEACBihGAMFesQeAOCIAACECY0QdAAARAoGIEIMwVaxC4AwIgAAIQZvQBEAABEKgYAQhzxRoE7oAACIAAhBl9AARAAAQqRqBphHn16m+bH/7gBxm+FStXmquumtRnKHfufNLM/9rXsvp/8vAj5iMf+Uif+YKKQQAE+h+BoDCPGD4sGPX2n/3MDBs2PPhcmQeqJMxfnjnT7Nv3yyyc//jSl8ztt78p0rhAAARAIAUBCHMBil1dXeaWr37FvPWt55jNW7YkyZhfe+1Vs3nzZvPUzp3mxhkz+nRFUAAJioAACCQkEC3M73nPe8wtt95qrXr8+CvMO9/5zoRu9TRVpYy5EYH29/gawQw2QaC/EogW5oEDB5rde57pMw79Xbj6e3x91nFQMQg0IQEIc0UaDcJckYaAGyBQAQLJhXnc2H8zZ86cyUI7fOSF7CXZt1etMidOnMi+a29vN3ffc6/58Ic/3CP8v//972bjhg1m69Yt5i9/+Uvd8z//+Q7rqQz6fuGCBdmz9CLulltuNffee4/5yY9/Yv72tzfM2972NvPRj/6zWbNmjTn/Ax+wIv/FE0+YTZt+aI4dO2bIB7o++MEPmsmTP21mdL/oIxvycomo9mXOnK+Yb3z962b37t2ZL29/+7nmC1/8QuYj25S2bM7JF6vk5/r1D5iXX37Z/OMf/+je436ref/7329umzvPTJw4sQLdCS6AAAikINBQYaZjbSya0lkSlJ8+9ljdSQ4SxMlXX21efPF4j7jo+U9+8l/Mc889m92Tx+WkGF5//Q3ZRHDy5MkeNkgIt3WLtTzaRnVe2y2Uv/3tb50s3/3ud5tf/OJJc94//VPtmRhh9vkyZswY87377s/sxQrz5z77GaefOBmSYijABghUh0C0MLtcHj36X8367iyXL5kxk6B+7nOfN9OmTzd//etfza233FIT3vHjx5t77v1Ordy8uXMNnQ+m6/zzz8/Ed/DgC8ypUy9n4v7KK6/UnnUJ87nnnmvOOeccs2TJUnPJxz9u/vjHP5pld91ZE7Rhw4eb7dt/VrMjj7196EMfMnctW5bVSeVWrlhufvOb32TP6nIxwkyxv/e9763FsXvXLrN27Zos06Xr6V27u+sabOg0xmuvvd69UlhvHn300eze1+bPN+PGjc/+ft/73mcef/wx861vfjP7/IlPfCLjdt5552VlH3/scfP666+b2XPmVKdXwRMQAIFSBBoqzJQ1Lli4sObg//z5z2bUqMuyz3TK49nnns/+fvXVV81ll47MRGvAgAFm/7PP1W0fUGZ7+ZgO86c//Sl73iXMJIa//OW+uuyWyk6c8Kna9gpvDRw6dMhMufaLmb22tjbz8/98oseWBd2n5+i67/4HTEdHR/Z3jDDTJLGn+2WpzLQXLVxgduzYkdlYtGixmXLddTU2vj1m7D+X6uMoDAJNRyBamF3H5ei0xsiRl9YClxnz3s6ubK9WXnoPmu5RpkwZM12zZs02s2bP7gFy5YoV3ed8f+QVZp2FsxHat6Z9Zynq995zj9m48c1M/zvfXWfGjh3bo849e/aYr37lzUxUTjIxwjxhwkSzZu3aOpt6D1r+MMUnvtIP2lohUR9/xRU9JpKm631wGARAwEogWphjj8vZhDckzDEZYYwYuvZabYIotzFcv1x84YUj2b43XXLLpqgvRYWZ6p8962bT2dlZQ0mrgzFjLu8W6UXOl5ro8yAAAs1JoOWEmbcQmk2YqXsdPHjArFi+3Bw+fLhOoOmUiy3jb84uCa9BAAQqIcxyq0HvvXITyZeDvlMZck+by3596VLz05+++WKN94rl1ohrK4N+ej3r5puycjNmzKz98rEvMmbZVeml3/r162vHB2k/++ChX6M3gwAI9BMClRBm+SKOtkye3PlU3f4pvTQc230++o033siwu4SZTkHQvrY8dyzL0vL/0K//O7svRZdOXTzyyKPel39bt/3YXHLJJVn9fS3M3PemT5tWO0LYG/+QVD/p8wgDBCpPIFqYff9WxogRF5uLL744C7bIHjOVmzz5avPCkSOZDTprvPiOJdlRsUMHD5rly5d1Hw17rXbUzCXMVJaOva29+56srD5qp/egZZ3tQ4aYO+64w3pcTp47bpQwy1UDTQDfXr3GHDjwX9kPcZ7pPt3xRvcPVOgFJB0lpIuO8s24cXrGBRlz5ccZHASBXASihdlnVQpeUWGmH3nQjz34l3eyPjrORi/fYk5l0Asym40hQ4Yayip1Nn3DDTdYf9TC9dMkQT9MkeUakTGfOnUqO9bH55y5fvL5ie5f/PG/RW1rh77+96lz9Tg8DAIgECRQGWEmT1/5/e/N0qVLzK9+9atMXOknzOPGjTPf6P5xxbp13436SfZnPvNZc/u8uebo0aOZyL3rXe8yU6ZcZ/1pNdVJ9WzbutVs2bLZ/OEPf8jKkAgPGjTIfPnLN5l/v/LKHhAbIcxUybPPPmsWL1qY+UEX/dya/iH+06dPd/+sfWX3z9pfyn7aTdc73vEO87GPfczMnXe79eftwZbHAyAAApUlEBTmynr+/475jqBV3Xf4BwIgAAI2AhBm9AsQAAEQqBgBCHPFGgTugAAIgACEGX0ABEAABCpGAMJcsQaBOyAAAiAAYUYfAAEQAIGKEWh6Ya4YT7gDAiAAAqUJQJhLI4QBEAABEEhLAMKcliesgQAIgEBpAhDm0ghhAARAAATSEoAwp+UJayAAAiBQmgCEuTRCGAABEACBtAQgzGl5whoIgAAIlCYAYS6NEAZAAARAIC0BCHNanrAGAiAAAqUJQJhLI4QBEAABEEhLAMKcliesgQAIgEBpAhDm0ghhAARAAATSEoAwp+UJayAAAiBQmgCEuTRCGAABEACBtAQgzGl5whoIgAAIlCYAYS6NEAZAAARAIC0BCHNanrAGAiAAAqUJQJhLI4QBEAABEEhLAMKcliesgQAIgEBpAhDm0ghhAARAAATSEoAwp+UJayAAAiBQmgCEuTRCGAABEACBtAQgzGl5whoIgAAIlCYAYS6NEAZAAARAIC0BCHNanrAGAiAAAqUJQJhLI4QBEAABEEhLAMKcliesgQAIgEBpAhDm0ghhAARAAATSEoAwp+UJayAAAiBQmgCEuTRCGAABEACBtAQgzGl5whoIgAAIlCYAYS6NEAZAAARAIC0BCHNanrAGAiAAAqUJQJhLI4QBEAABEEhLAMKcliesgQAIgEBpAhDm0ghhAARAAATSEoAwp+UJayAAAiBQmgCEuTRCGAABEACBtAQgzGl5whoIgAAIlCYAYS6NEAZAAARAIC0BCHNanrAGAiAAAqUJQJhLI4QBEAABEEhLAMKcliesgQAIgEBpAhDm0ghhAARAAATSEoAwp+UJayAAAiBQmgCEuTRCGAABEACBtAQgzGl5whoIgAAIlCYAYS6NEAZAAARAIC0BCHNanrAGAiAAAqUJQJhLI4QBEAABEEhLoHLCPGL4MLPzqadNW1tb2kh72VrqOMjeffc/YDo6OpJEktpeEqeUkZQMmyHeRjCEzeYkECXM1Knl5RLORQsXZI8tX7EymoYefHkG40MPPWjWrllTq+vwkRec9coYGiH8ZeKIhlXiwTxcS1STtGhf+BxTJ/W7F48f9/ZzV98sMkaSQoWxpiDgFeaTJ0+aCZ+6oi5Ts31HkdL3c2+7LQv68e3bo4MvI2jUyXkS8A2WT0+ebGbPmZNlm11dXWbWzTcZn4hHOy8eLBNHkfrylokRnLw2G/18X/gcqpP7eaiP+/om9ce1d9/d9KvCRrd/K9v3CjN1riFDh5pp06bXMSJx+966dXUCTMIoL1nGJlrff/Ahc+P0abUikyZNykSWl5wknnTNnTevR/22BnMNGNv3Uqi1LRZu/l5uH6SMg9ju2LEjq2b48BF1LCUDvsd17937TN0qQTKy+X7hhRdmkytfkrNcOcT6Q3ZCWyrE98iRw1mVsg7dttqO9IHanVZDXF6XJdt6cg3F4LJFfrg46f4hx4QeH7ZxQeV1H6Tn9uzelWtl2coi1Yqxe4XZlz3QPTkwOAvIhKI7c5YZhS+btN1jMcqT3bo6u+17GlBjx4237tfKTEfXnyoOmsR2Prmzxkgvb6kem1jrLRgtBEV9z+NPqE1kLFqQZFzajvaBtwKkmEomtudDTG22Qm2sRUFmu7pv+RIZKcSxWXcrChJifpOAU5h5y8K15JcipTuaXqrlFTSdZYX2hH2+ciYvM3jbd64OIX1PFYdtwpMTneu+5hBadhf1nVj4/AlN2NJP2Rfy8GMfpJj64s/DNK8fsm/ohERz0uPF1Te1HQgSCEgCSTJmLXT6c56B4HvW1nQ6c9LP5M2Y9UsbuRxPFYdtUPpEVIsUfbZlZ2V814ISK+qaN5XTl0tcdR15fKA6tOjHls/TjjIWW6bLqy96Tm9P+Pom9pkhxD4CXmGmzjNh4oTgHrNtMFKlPFDyDIQ8whyT+dr2/VyDwvZsrECF/I4RXhcvLcw2P1P6njJj1tmmazUUWiXkyYi5TlfWn6c/2iYeOQHwxE/vYtrbh9S2x0J9ExkzhLmwMNtOYPCeHA8w1wsP+YJNCrxt79C3deFaNpNvGzesd75AkeX0qQz94pIB6Vi0r6nioCzr6NHfefeY8y7bQ777xCivP76tDN9xsJAP1A58yoZf5Mlsm19c8opBPx/LtIww2yZ1sif3v0N9U098kCgQ0ASC55hZnGVBmTG4XnjI42vytIB+287i5zot4BIBfQKB/bMtm3UMvqNy8kSB9jVlHLEnCGT2R7HRZMSnOfges/P5HuKcxx+fMLPosG9SsEKrCuk/nZSgkzmyPbk9yLZ+Ocpi7TvpErOlojnpAWN7cawno1DfxKkMCHGIQFCYQwZwHwR6g0BoMugNH6iOFCcqsL/cW63VvPVAmJu37VrK86oIM0GP+eWfq3Hwy7+W6raFg4UwF0aHgr1JoErC3Jtxo67WJABhbs12R9QgAAIVJgBhrnDjwDUQAIHWJABhbs12R9QgAAIVJgBhrnDjwDUQAIHWJOAU5kMHD5iuzr3m7NmzrUkGUYMACIBAHxFwCvPa1avMlVddbQYMGNBHrqFaEAABEGhNAk5hXr1qhZly/dTWpIKoQQAEQKAPCUCY+xA+qgYBEAABGwEIM/oFCIAACFSMAIS5Yg0Cd0AABEAAwow+AAIgAAIVI1BamC8f02F+tHmLGThwYMVCq3cnpZ9k665ly8zIkZc2JOZG28/r9PPPP2fuWLzYDL3oIrNhw8a8xb3Py3apWtxJA4UxK4FG9i0X8pRaEGrWonU1VJi1U0WdDAXP98n+3s6uusf5u0bXHetjMz43c+YMM3Xq1NpElJJlSlt9zZb72pkzZ8wN119Xc0f2yUcefths3LjBeo++JBt86YTHdo+FTcc+Y8ZM8/lrrjGrVq00u3ftym7bJlZXfdrPcePHm/nzFxRC7PNB9q1QLKHKYyf2UJ8LtZH2w9feobpcMfUbYaZG3bdvX13nkd8VBRTqDK1wv5ETbH9pF9nXtNhs2rSpttIgkWKBIwE4+fLJ2mebSLGo++7JPsgiweWoDhJouqhuurh+n00qN/iCwUlWhT4ffO2vY/GNNRbTmJVsqM/52sjmg7RH/UC2d6iuhgozwaClLl00U182alRdxjCq+/P+/ftrPvDsyzMcl6UHZHahZ1C+ZwuWOtmSJUvrtlTkd7pMKJOQ9ykmynI4g7EtvzkGV8fQsdJzdNnK+XzlTEjak5mQLy4XTx60tsxKZlSudvSVp3u22HkbSLOUjGW/0lypbY8fO5Yx9G2l6XaUIuXKJPO0FXdq3ddkP7at5KgcCc+dd34rE235t7RJK5VBgwbXntP39HYaxTt69GiroMrJw1cf2fTZcYlJTJvoZIlt2TLyWB84lvb29h6x29o/pDsyPhsned+WEOq+IPux1jg9dnh8J8mYWRh44LsE1JZ5SVGhWa+zq7OWXbg6tLZjg6e/k2V0PTqT0Pd5NnYJsyt+2YBUv36OO6OPm/aFnqWBI+1xPaG4XDxjyknx0/xjysf0ES3SrjKyvXwDx8WuiL+uttICS591JqpXctxeclDbBjgLEz2vbdhEKyQisoyvPhZmnrhsYqLFObZNtN+ujDIUi6yfhXDbtq11whw7dvRzIeEN3Zcx6nFq0xapeTy+kwiza9CGlsC2RnFlUK5ZmmccnSX4OoCrXl9G7svsfKLFfudhEcMgxE7W64uLnsvLIxQL24yZoItw1fXbVkuuuBoRr00kOXt0vTC1bTmQb5zR0980iOVluye/Iz/aLmirsyFXSXLVwbZDNtkPnTCxX2zT1yYuH3xtZItFrt64XvlcrOjHjh3bVor2gVYz9D6BNYBjdXHRMbsmpsoJsx5kDMK3d2TLBPV3WgBsLwllRhy6b8ue84iBT9xCvsaIi29CoHuSp4tfbIxlyhcVZj1R27YzXCuEMv7a2Et7PJjZH9vgtmVoKTJmV7zMioTrxIkT2Yo0lDFrvq7JT/azmDaRPoTGix6D2r6OwSbMNhs2MdTx+bJomx+8JUkTMW2pXHvtlGxbNVSXrc0orsoJs28w2QZf6KWfTaDyZoi+WS4me3QN5piVhmtGjZ31Y3jm5RETs6w3zyQUMxm4mOgBk5ddTIav21L3P1smKgXDdp9s6pdG9B2LxenTp+peKMl7fEzVNg40D/ad4vTVZzv6GhL92DaRPriEOTYWuactY5XvYVwTtu3Ei3xhSvbkasLG0vWdr+/HxE9x9bkwy01/vdcrA5f7drIThF762YRZz9q6Xttn2m9z7TEXEdhYsdK+yD1m3blCcbl4hsqFhLhM+SIZs6+fSHsudmX81WKi+59r+UttRRftg7qOnflOc/jukV3XnjOJOr8g1Flg0dMjNkFytQnx8PlgE3RbLDHCqMv5xo5Ld8hfXxuF/NBbMBSfT+NcPjZUmPmlGTumP5PTfOKBAtb7cXSfL54F5cCgv/mtNj/nemmgOwAB8Z3vlLMxv1XtC2Hm7IhPIPj2rniA+k4b2HjGlJOTgG7HvOVjxDg0Gci+IfuNLqfbkUXK1/4xdbPQ6v5HLPTpF24z1zldve3BbSSX4b6zsnqykOLh4kTPhM7fsp3YHxb52sRlK3blFxJE1+Rka3+f7oTayOaHrEPqFLeLT+Nc47u0MMcAcz2TZ/njmqVDL/3K+CfFnjb4Q3teKeqCjeYhUDSza54I4WlfEWhqYbbte4X2woqAphmRNvSL/vKpSJ0oU30Cjehr1Y8aHvYGgaYW5kYBkstcqqPMz1Eb5SPsggAI9F8CfSrM/RcrIgMBEACB4gQgzMXZoSQIgAAINIQA/jPWhmCFURAAARAoTsApzIcOHjBdnXvN2bNni1tHSRAAARAAgdwEnMKc2xIKgAAIgAAIJCEAYU6CEUZAAARAIB0BCHM6lrAEAiAAAkkIQJiTYIQREAABEEhHAMKcjiUsgQAIgEASAhDmJBhhBARAAATSEYAwp2MJSyAAAiCQhACEOQlGGAEBEACBdAQgzOlYwhIIgAAIJCEAYU6CEUZAAARAIB0BCHM6lrAEAiAAAkkIQJiTYIQREAABEEhHAMKcjiUsgQAIgEASAhDmJBhhBARAAATSEYAwp2MJSyAAAiCQhACEOQlGGAEBEACBdAQgzOlYwhIIgAAIJCEAYU6CEUZAAARAIB0BCHM6lrAEAiAAAkkIVE6YRwwfZnY+9bRpa2tLEmCjjTSTvyl9JVv33f+A6ejoaDRi2AeBliMQJcw0COXlEs5FCxdkjy1fsTIapBaLPOLx0EMPmrVr1tTqOnzkBWe9Mgaf8OepnyrL+3w0mAY82Be+xtRJ7fji8ePefuNq6yJ9rgFoYRIEkhLwCvPJkyfNhE9dUZcZ2b4jj+j7ubfdljn3+Pbt0U6WEWYalDwJ+Ab3pydPNrPnzMmyu66uLjPr5puMS8RjhEQGl/f5aDANeLAvfA3Vyf0m1Gd8bU3tu/buu5tmldWApoXJfkbAK8w0GIYMHWqmTZteFzaJ2/fWrasTYBJGeckyNvH9/oMPmRunT6sVmTRpUiayvEQm8aRr7rx5Peq3tYFrgNu+l0LNtnjC4c/sD30mDjt27MhuDR8+oi5uGRs/x6JP9Rw5cjgrJ7N0HWNoS6CoHek3caTVBfuhfSAf9WQVG7ctngsvvDCb1G08ZfvJPqb7m62fUVndpvTcnt27cq3U+tk4Rjj9jIBXmH3ZDt2TA5mzlkxMuzNnmQH5smLbPRa/UHYr28I1OG3fkwCMHTfeuj+q/aEJZ+eTO2vx6KUzP7937zN1y3H5nBYSKhMbY1E72m/eCpDCLCcZ2/MxcdO7AF88oYxZZru6rXyJgRTi2Ky7n41dhNOPCTiFmTPImCW/Hhh6aZlXmHV2GXoZ6POVM3mZwdu+4zaO2VqRkxL9Tdmo3iPVdiSTmDpc/sTasQmi/K7ofe4PPluheuR40hO8Zqv7n6uttZ1+PGYRWgsQSJIxa6HTnxspzDrT021WNmO2DXgtPLZtAHpGXzJbjZ18itqJ8VtPeFr0tSi6BDdP+0omtkyXVzP0nN6e8LU19plbQK1aKESvMFNnnzBxQnCP2SYeUqzyDNw82aQv8+U2tO1T+gZxTP06q6M9Yv1C0beEj6nDlTHrbNMl8CkzYulLozNmnkjp3UZ7+5DadlOorZExt5BqtUCouU9l8L4vC4LrBY18wSYF3rbX6cseXQJH2dbGDeudL3xkOX0qQ7+49IkdZXBHj/4uuMf80ksv1Ymz7xhXHmEuakeX4xd5MmvXLziJA59yiY2b95jzTBCSt22SJD5y/zvU1mQPwtwCatVCIQbPMevTCnrZ7npBI4+vsZhTWX06gIVansqIWeZLm7K9bNsFOgbfeWftD9mOPZ3AZfmUhVxJSKHJI8wsOhxjHjvyNAdn9ZIPtwXZ1qdN8sTti8fGU7aX7UWsnlRCbY1TGS2kWC0SalCYW4RDy4Xp22rpTRgpTlRgf7k3Wwx19QYBCHNvUK5gHVURZkIT88s/F0L88q+CnQsulSYAYS6NsDkNVEmYm5MgvAaBxhGAMDeOLSyDAAiAQCECEOZC2FAIBEAABBpHAMLcOLawDAIgAAKFCECYC2FDIRAAARBoHAGnMB86eMB0de41Z8+ebVztsAwCIAACINCDgFOY165eZa686mozYMAAYAMBEAABEOhFAk5hXr1qhZly/dRedAVVgQAIgAAIEAEIM/oBCIAACFSMAIS5Yg0Cd0AABEAAwow+AAIgAAIVIwBhrliDwB0QAAEQKC3Ml4/pMD/avMUMHDiw0jRT+km27lq2zIwceWlDYm60/bxOP//8c+aOxYvN0IsuMhs2bMxb3Pu8bJeqxZ00UBizEmhk33IhT6kFoWYtWldDhVk7VdTJUPB8n+zv7eyqe5y/a3TdsT4243MzZ84wU6dOrU1EKVmmtNXXbLmvnTlzxtxw/XU1d2SffOThh83GjRus9+hLssGXTnhs91jYdOwzZsw0n7/mGrNq1Uqze9eu7LZtYnXVp/0cN368mT9/QSHEPh9k3wrFEqo8dmIP9blQG2k/fO0dqssVU78RZmrUffv21XUe+V1RQKHO0Ar3GznB9pd2kX1Ni82mTZtqKw0SKRY4EoCTL5+sfbaJFIu6757sgywSXI7qIIGmi+qmi+v32aRygy8YnGRV6PPB1/46Ft9YYzGNWcmG+pyvjWw+SHvUD2R7h+pqqDATDFrq0kUz9WWjRtVlDKO6P+/fv7/mA8++PMNxWXpAZhd6BuV7tmCpky1ZsrRuS0V+p8uEMgl5n2KiLIczGNvym2NwdQwdKz1Hl62cz1fOhKQ9mQn54nLx5EFry6xkRuVqR195umeLnbeBNEvJWPYrzZXa9vixYxlD31aabkcpUq5MMk9bcafWfU32Y9tKjsqR8Nx557cy0ZZ/S5u0Uhk0aHDtOX1Pb6dRvKNHj7YKqpw8fPWRTZ8dl5jEtIlOltiWLSOP9YFjaW9v7xG7rf1DuiPjs3GS920Joe4Lsh9rjdNjh8d3koyZhYEHvktAbZmXFBWa9Tq7OmvZhatDazs2ePo7WUbXozMJfZ9nY5cwu+KXDUj16+e4M/q4aV/oWRo40h7XE4rLxTOmnBQ/zT+mfEwf0SLtKiPbyzdwXOyK+OtqKy2w9Flnonolx+0lB7VtgLMw0fPahk20QiIiy/jqY2HmicsmJlqcY9tE++3KKEOxyPpZCLdt21onzLFjRz8XEt7QfRmjHqc2bZGax+M7iTC7Bm1oCWxrFFcG5ZqlecbRWYKvA7jq9WXkvszOJ1rsdx4WMQxC7GS9vrjoubw8QrGwzZgJughXXb9tteSKqxHx2kSSs0fXC1PblgP5xhk9/U2DWF62e/I78qPtgrY6G3KVJFcdbDtkk/3QCRP7xTZ9beLywddGtljk6o3rlc/Fin7s2LFtpWgfaDVD7xNYAzhWFxcds2tiqpww60HGIHx7R7ZMUH+nBcD2klBmxKH7tuw5jxj4xC3ka4y4+CYEuid5uvjFxlimfFFh1hO1bTvDtUIo46+NvbTHg5n9sQ1uW4aWImN2xcusSLhOnDiRrUhDGbPm65r8ZD+LaRPpQ2i86DGo7esYbMJss2ETQx2fL4u2+cFbkjQR05bKtddOybZVQ3XZ2oziqpww+waTbfCFXvrZBCpvhuib5WKyR9dgjllpuGbU2Fk/hmdeHjExy3rzTEIxk4GLiR4wednFZAYp830AAANTSURBVPi6LXX/s2WiUjBs98mmfmlE37FYnD59qu6FkrzHx1Rt40DzYN8pTl99tqOvIdGPbRPpg0uYY2ORe9oyVvkexjVh2068yBemZE+uJmwsXd/5+n5M/BRXnwuz3PTXe70ycLlvJztB6KWfTZj1rK3rtX2m/TbXHnMRgY0VK+2L3GPWnSsUl4tnqFxIiMuUL5Ix+/qJtOdiV8ZfLSa6/7mWv9RWdNE+qOvYme80h+8e2XXtOZOo8wtCnQUWPT1iEyRXmxAPnw82QbfFEiOMupxv7Lh0h/z1tVHID70FQ/H5NM7lY0OFmV+asWP6MznNJx4oYL0fR/f54llQDgz6m99q83Oulwa6AxAQ3/lOORvzW9W+EGbOjvgEgm/vigeo77SBjWdMOTkJ6HbMWz5GjEOTgewbst/ocrodWaR87R9TNwut7n/EQp9+4TZzndPV2x7cRnIZ7jsrqycLKR4uTvRM6Pwt24n9YZGvTVy2Yld+IUF0TU629vfpTqiNbH7IOqROcbv4NM41vksLcwww1zN5lj+uWTr00q+Mf1LsaYM/tOeVoi7YaB4CRTO75okQnvYVgaYWZtu+V2gvrAhomhFpQ7/oL5+K1Iky1SfQiL5W/ajhYW8QaGphbhQgucylOsr8HLVRPsIuCIBA/yXQp8Lcf7EiMhAAARAoTgDCXJwdSoIACIBAQwjgP2NtCFYYBQEQAIHiBJzCfOjgAdPVudecPXu2uHWUBAEQAAEQyE3AKcy5LaEACIAACIBAEgIQ5iQYYQQEQAAE0hGAMKdjCUsgAAIgkIQAhDkJRhgBARAAgXQEIMzpWMISCIAACCQhAGFOghFGQAAEQCAdAQhzOpawBAIgAAJJCECYk2CEERAAARBIRwDCnI4lLIEACIBAEgIQ5iQYYQQEQAAE0hGAMKdjCUsgAAIgkIQAhDkJRhgBARAAgXQEIMzpWMISCIAACCQhAGFOghFGQAAEQCAdAQhzOpawBAIgAAJJCECYk2CEERAAARBIRwDCnI4lLIEACIBAEgIQ5iQYYQQEQAAE0hGAMKdjCUsgAAIgkIRA5YR5xPBhZudTT5u2trYkAfaVkdRxkL377n/AdHR0JAkptb0kTikjKRk2Q7yNYAibzUng/wDJ/RhREhmpmwAAAABJRU5ErkJggg==;" parent="1" vertex="1">
          <mxGeometry x="948" y="939.5" width="358" height="204" as="geometry" />
        </mxCell>
        <mxCell id="9ONS5Pu-zSQsGi_yFV8N-19" value="" style="shape=image;verticalLabelPosition=bottom;labelBackgroundColor=default;verticalAlign=top;aspect=fixed;imageAspect=0;image=data:image/png,iVBORw0KGgoAAAANSUhEUgAAAMIAAAECCAYAAACsfggxAAAbrklEQVR4Xu1dfXBV5Zl/UkBA1FZxAxqQoBQMO+MMRmdYQC2LixJWZHEHd7FbKAnRgN2OEIaP/oH5Q8AlxGEFY4Ww2xViawdK+Ajolo2Vho+RggVLhCqkRBEVLEJAYAzsec+577nvee/5uueeezkfv9POmJzzfjzP7/n93ud535PLzbuqXIQLCMQcgTwIIeYMgPsqAhACiAAEIARwAAhoCCAjgAlAAEIAB4AAMgI4AAR0BFAagQxAAKUROAAEUBqBA0AApRE4AAREBLBHAB+AAPYI4AAQSGOP0DTvbpqxQYBsfC0dWjTSFYas7/IB22hdaaGr9lFqpOE2nla0LCZ3aBm9z7R/lLDMti8OpVEr1U14lJYOMhK/qW4V9S8tIzfU9lUITXNp8MsDqHG9u7mzDR7Gjw4C9kJoXUVPjGmkkq3ryeuCDiFEhyxR9sQhIzTR/KIKolc+pIU2ub21bgKVVB9K4DSYZgnCMROCXXs2iPE50Xhl/n942115xudbSjOTNhVVpmQRaxu0LPjxT2qJplfQBtJKG1JLvFoq2VJBS1s0V5ldC/uzxaKatFvGMijFd5bRpvMaU8DJ4r4zdmxKMVtz27fRXS8rmVw1yhgPsrIhyix34ZvjqREnTFGleZ2vPt9SkiSaCjTpdbEcTKf22nwDk3W1kpXqjpVRKROii9KI72eS9qaWd/Y2aO0bFVKX1CzWM6E2bpJUupB0kaXOY/Bdzq5Nil/9Fb9Iyrr8vlJ3mmInYkPynInfW5J2qnYfTiwEVja4qXFdkCnMTRyFoDqnAqitekZBsIzxMt1lKJ34qqRlEWMwndo7ZCC3QiBpM28ggJMNCSGMNQpfJZRhXBNbJftShfARPStvnFXbTO4z3RsOGszs5rHh/U1sF8e3mSvMJPbDdndC4DPxtMrTsSHNGs1RywZZCE7tyZhNUhx0KYTUUyqBRMfE8sTMZqOQdddTTr9MiGknBL56K6sJx0Ybm6/i8n1JCFKmTVou2mFiu2ERsJ7LDzKFeYz0hKBnh8QGWiVVsgwyA8KwqlkGM9HTzXOHUyPzzbksBDubsyWEhI96dpWOVU3uu8MuHSE42BBmJmdoe/pCIKEkUDeK9qdKtnWybLzTKZXLjGAsYViNIQjWaY7ECv3xT4wHBKkCSzcjiM6al188OzQmyjJX2BnKHaeM4MaGDBkV0u7Ox6c/v4vWCS/P5M1s6ksfJRjzfkujFmln/TKB3LQ3vISSN8suMhB7+ZcsPzThHhY2+/Y2ZCkjKGKcT4sTp2/CHEo5aHo/ZX+lYWl8QScLykEISga3miuk/PXNbFfHp+JLZfmIkFkiv3kWN9RmpYpd+9TxxOO/ZI1rPDYUKmaTY06zttY2ZEkIwoEDs1bHyOq+ySKiVqaGo2r58MJBCOoJFT/qlfv6xqlQDuShNAq2n76+wAu2q7DORwQgBB/BxFDhRQBCCG/sYLmPCEROCD5ig6FihACEEKNgw1VrBCAEsAMIKAhACKABEIAQwAEgoCGAjAAmAAEIARwAAsgI4AAQ0BFAaQQyAAGURuAAEEBpBA4AAZRG4AAQEBHAHgF8AALYI4ADQAB7BHAACGCPAA4AAdd7hA8OHqC339pGHR0dQA0IRBoB281yTfV/0I9Lp9HNN98caRDgHBCwFcKSFxfR7DnzgBIQiDwCEELkQwwH3SAAIbhBCW0ijwCEEPkQw0E3CPgmhHeOnqf697+mr77poOu75NGtPTrTcyN6Ut/vdnFjB9oAgWuKgC9C2NF6garfPUX/9c8FdMv1nVSHjpy6TD/+9Sf0y0l9YyCGffTaNOUbdipWUvm91zSe12jyTPzPpK9/7mYshI4rRH9Xe5SaphVSj+u+Y7Bs7yff0Iu/O0W/fqqvvcUnNtGCBRvpBG91fwWtVBnFQGqg26qq6LHbvTjt1N/puZc50ScYCKQX24yF8P6Ji7Tm/TNUXdLb1P9Rq1ppe1mhNTaqCPbSfQLZT2zaRCcfe4zuhRCCwalQWpFjITT/5QI1fniOXniklylcf7+ylf5PyRaWFxPCz4mernqMDIu+VZbY9xpNq31PH+5+vRxJOF5xH+2tVbJL/iDK/+IwfZGSZRI3TMavUL4aquG2Kqri6YfN1XAbVVUV0GaWmfjY6hD3K5VQuSJWdomgS3awllLJtO+1acRduH3cOCrYuNc661n6KyOaOq/RRtb+BG1asIA2qqn3dhqnLz5S39vHmfqs+kFJ/FOw5+MZbBZwMr2fSlgRH1Jt4dxwxlZFxbLCUCIlYC+OnXFGOHvpCo1Z3UrNFXemcP3E2W9pirJPeNv2u2kTwSHRYT6UDJLS9rU/UHF5AhgVWFaaM0JqteZ7ZsBZllbS+Gy8vfclyjINNE0YJ1PGPrFpAS1Q2mpBkoUg2GGwkcVI7Jf4fSMJpBRhtPPXTAhG/+W5VBJQouw0LEBW2Ml+KAsQL1tTsOclLBtLyfD6IiHG0up+svy1tVmOsYStEZFUgdmNnbEQ2OTztn1OXTvn0fMP5+u2XO64So//z3Ga89Ct9IM7ezgmV9VItlR5JrJZKnRKj/JzMYhMoJupoIqLTN6rmGQBVXBmY4oksRvHCSY7f5z8N1lUtFRsYrOc5Zx+t8JC9MfKdqe+YkzssLXIkHLWMyyKybEzFsLhLy/Tj978hB4e0IPY6dFIhfRMBO8pG+XZD95Kjwy8wSm6hueaIAqEVd5IHF0wei+e4p2IYGaGeVree59SAvRWSrbNBVRluWlnQjEjkpMQ5FXRXqzW/joFnpdCoo3KCm/olg52Tn6JcUpkmJSy0Oy+LAQ7fDIVgvXYGQnhT59foon1bdTwoztoQM/rqP3yFWInRQN6dqU+3+2clgCSjbVS6bPH2VGkSemi1uxSzWi6EputYi7IkyiPqm5roM0FVYnjUCuRcWDtVjU3K57FyZi+RzHz14UvailhZqPbvjK5rX53s9pbZQc3+Fj5kE6GtI+hZyEcOHmR/un147R5cj8qyu/qkfRKNyXYCz79x+QG1WzjKW7CBCFoqyWvr/3JCOrGVznFYtd9alnEBaWspvqxbmLTxettO5ulky9Dna66zzbO4sZVgFISgtFfMzLb2Sjb7FS2OK2+TgTmGYkvauJ81oudisenyf2iES8nm+x9shvbkxD+8CkTwV9o85R+dE/vbt5FoPYUTzK0ocRTFr00UEnYWzj1YNsJ8cTFfHUw9k9922X2XCarfio0roA2bkwUF5Z7GadgGf29v6KCqNbqXYmxrf0JU2JeSxsFQfOI6T64WUTclkbJ8odNc/s4fgpnd9/ov+OpkW3dL9QWfN8pL2C8PhRi6EkI/RYfofX/dgcVF2Qqggw1lKXuLBDqPkHXjX0dn5EZ6lHfZ/R4yilLuqNm0cZ0TQlhe09CCKGf7k02JWa2SJZY8Qv4m3T3Zqa2zJaNmdgUnr4QgqEkt6rX/SOZIe1rdaD+3iIz2vhnY2Z2hLM3hBDOuMFqnxGAEHwGFMOFEwF8eD+ccYPVPiNgKwT8cy4+o43hAosA/u3TwIYGhuUSAQghl2hjrsAiACEENjQwLJcIQAi5RBtzBRYBCCGwoYFhuUQAQsgl2pgrsAhACIENDQzLJQIQQi7RxlyBRQBCCGxoYFguEYAQcok25gosAhBCYEMDw3KJAISQS7QxV2ARgBDsQtO6ip4YU02DXvmQFo5MM4aZ9E1zKjTPHIGAC6GV6iY8SktbREcH06yt68n2H8/LHBdthEzInElfv+zHOK4RCIcQBtXSoUXaktxaN4FKqil3YnANJRqGGYHQCSF1lW6i+UUVtCERhaLKbbROTRfa/cOVlTSoulp5Pp5WtDxC/2u4xzqxDFNDNDOZecbzUkha1TURHkrMlMxMpvdJLqvk7MbsWUyavLmttVSypULPgLodYWZYSGwPuRAS5OIZo2kuDZ6uUF4lMhdIKuE0UTASJkXESdc0726asSHxXBQCsbGPJDNR0yqq619Gpccs7huEkLCTKqlxfRmpMhXn0e3g4kptHxI+hdbM0AnBQCCV+AI5SSNQ41iWFY5pmWJ8sqxKrrw8a6QSzlB6iWRWhcBFJsTbID7hvp2IUvYfPCNwu3gJOFDIGqHlWCgMD4cQDJvl5ApvLEkEvFXyU6I0SpIrVQiJlflwcqUmUVxSeWOYTxCY6X0IIRQC4EaGQwjCZtmAbkpGEJ+mrrKZCkEfPZEFkvuRxBPx/qjfJo9e5bJKzwiNVKKegCEjXGvVhFsIvLYWyx9eu5uQKxMhlB+dS9tHLdaObROrPSkb86X0qun9daIQRlrsEfRMBCFACLYISJths7YJUurVUxEvc/zNCOVHxRMjxZCE+FLKMy7KlPcIxtMt0u0UT42wR7hWggh4RrhWsGDeuCEAIcQt4vDXFAEIAcQAAgoCEAJoAAQgBHAACGgIICOACUAAQgAHgAAyAjgABHQEUBqBDEAApRE4AARQGoEDQAClETgABEQEsEcAH4CA0x7hq1NfACQgEAsEkBFiEWY46YQAhOCEEJ7HAgEIIRZhhpNOCEAITgjheSwQgBBiEWY46YQAhOCEEJ7HAgEIIRZhhpNOCEAITgjheSwQgBBiEWY46YQAhOCEEJ7HAgEIIRZhhpNOCEAITgjheSwQgBBiEWY46YQAhOCEEJ7HAgEIIRZhhpNOCEAITgjheSwQgBBiEWY46YQAhOCEEJ7HAgEIIRZhhpNOCEAITgjheSwQgBBswtza2kolYx6lFa/U0siR2leDu70y6et2DrTzD4HAC+GJCROopYV/273meOPWbVRYWOgfChYjZULmTPpm6tj8eXPp8OEjtG79emI/b9iwQR+SY8dwHTRoIC1ctDjT6SLR3xchnD17lm666SZXgKTTlg0oB6yubhUtra7OmRhcORWgRk1NTTRjegUdavlQtYoJgZOdYckuJhB2DS6621O2C5C7vpniixCefXYGPfnkv9ADDzxga9iOHTvoV7/6JS1fvsK1A7IQzFZaFlB+zaqspNLSMj3Q7HcmHHYxcrC24j12n62Ss2bO1DMPL4XkubgI+Vx8dTW7z9rIZZWc3ThZOSmZXY1bGlPsYM+t5paBZMRnl9lKz8cQRWLV1nWAItLQFyFcvHiRmBgmT55iKQYmgl/84r9VEXTr1s01fE5CEJ/z1ZATmQtEJhwXBScg+y/vw0sJ1kcUAmvDVlpOfjZX//796dixY6b3ZSHIq7E4j2iHWLqw+2z15n7Jc5uVh3arvFgysbHl7OE6KBFs6IsQGC52YvAqAjauLASRQDJBePuSsSVqVmCkGD9+vGF15BmBZw2ZoGLpJZKZC0HeOMvi4xyxExFrI2cb2S5x9baaQ+YjH9NsD8XHE+3n7cWFIoIcd+WSb0KwEkMmIuDEljfLPHByucA95uSXycVXXrF8slolGZnkVV2cTxSY2X0/hcDssJpbjLKVEPjiIYvYTjiu2BOhRr4KQRYD+91LOSTia3e6YZYRxL5+C4GPzecVBcWeifdHjXpY3yPwbCKu1DIJ7TKC6JPV3GKWEefhIjDLEhBCElnfhSCKgf2c7p5AXmScjvnk8ofX7qx+9lMIR49+TIzcbFxOICYEdpndF4XA3kGY7RH4EadZphJLI/az2Ry8vJPFL2/2rY6bsUfIshC4GNh/09kYm2VaJyFwUvK+RUWDDceD8qoti8NtacSEwE+f2Fy8NJLLM37f6XRLtNONEMzmNsNLPDWyKh25MOxOmCJU9bhyJSsZwdXMaJQVBNJZ5fEeIQcZIStRxqCuEHCz0jtlWlcTRagRMkKEgglXvCMAIXjHDj0jhACEEKFgwhXvCEAI3rFDzwghACFEKJhwxTsCEIJ37NAzQghACBEKJlzxjgCE4B079IwQAhBChIIJV7wjACF4xw49I4QAhBChYMIV7whACN6xQ88IIQAhRCiYcMU7AhCCd+zQM0IIQAgRCiZc8Y4AhOAdO/SMEAIQQoSCCVe8I2ArhPZzZ72PjJ5AIEQI2Arhq1NfhMgVmAoEvCMAIXjHDj0jhACEEKFgwhXvCEAI3rFDzwghACFEKJhwxTsCEIJ37NAzQghACBEKJlzxjgCE4B079IwQAhBChIIJV7wjACF4xy6QPS9dukS7du2iDw5+QHl5eXT+m/PUvVt3uueee2jo0KHUtWvXQNp9rY2CEHyJQDO98MBqKqyvo6f6pjMg6zePaPG79LPh6fQzb3v69GmqW11HxfcW07Bhw6h79+5qw/bz7bRr5y46ePAgTZ4yhXreckvmk0VsBAjBl4B6FYIvk6uDdHR00LJly2jikxOpT0Ef04HbjrdR/Rv1VKl8wUmnTp38mzwCI0EIvgTx2gthz5491N7ernyzzijdo0OHWtSfBw8u0u9t3bqV8vPzqbi42BfPozIIhGAVyeaFNGKu9oWC7BojlS/NCx+kOVu1ZwMrnqG7arcnSqOEKBaPou1zX6UjvC8lx0uOJQrIop/Lkmn5y8uprKyUuiXKIWYX+3J3dolfBn/h/AVas3YNlZeXR4XDvvgBIZgXEbR24Q56cP4kUkt+VRREL+6YT4yXbfWl9K/bR9Ebddpz9fdaogp1j6DV/VsHPqM954Ias4h+P1/pbRhLFoLcLzmnU7SrlS9VZyWPeO3evVv9lW2SxaumpoZmKl+wjiuJAITgig0mK7dhY2z3XC6brNratXM2suall2jmc8+5EkL1kiVUOXu286AxauFJCP/+1jmq/9NFunrVG1LKqR5N+ttu9J+P3OhtgBz00lb5PwszfV9Y8X9HP0hkB63BtRfCiuUraGrpVP2kiFlllhHOfv01vb5mDc2YMSMHKIZnCk9CuLXmS1I14FEIpAhB+T+dmvk3wUSKlS+rC/XSx57owRAC2yyfPnWKSsaO1TE12yw3NDRQr169UsqlYAYid1Z5EkLPpV/6YuHpWeEQgnEPwMp8ZaNMiZqf5QN14yxmDPGdQm5KoytXrtASpeQZPXo0DRkyxDQ++/bvp22NjTRnzhzq1LmzLzGMyiAQgmkk22ht6VNUy458lMt4KsTuGJ+PWbyIaC4nv1Otn509ArPqzJkztHLlSvUt8vARI+iGHj1U+9lJUfPOZtq/fx+Vlk3DCzWTmEMIUVnSEn7wP7E4cOCPdPnSZeUL37srFexV/ImFQ5xzJoSi/K5U9XA+Taxv000KbGkUMXHAHWcEciKEAT2vo3fKC6ls3QnadqQdQnCOC1rkGIGsC4GJYHtZIT39G6MImJ/ICDmONqazRMAXIQzvdz3tPH4h5b3CnbdomeAZRQSNh5OZgFsDIYCZQUHAFyGs/2FfOnnuW5re8JnuV7/vdaGmaYX0080naVPLOVN/IYSg0AB2+CKELp3yaMvkO+ij05dVMfS+sTPteLo/zdpykjZaiAClEcgXJAR8EQJziInhzUl91MzwUP8eNP+tz2nDIfNMgNIoSBSALQwB34TABuv8nTxap5RJde/91TYTQAggX9AQ8FUI6TqHPUK6iKF9thCAELKFLMYNFQIQgi/h8vpRTX8/vO+LKzEdxJMQIv9n2GmTwasQ0p4IHbKEgCchxOGDOenhDSGkh1fwWnsSQvDcyIJFIfvwfhYQiNWQEIJpuJXPG4Tsw/uxYm0WnIUQXIEa/A/vu3IDjSwRgBAsoAnbh/fB8cwQgBDM8Avhh/czowF6QwguhBCGD++DypkhACFYbZZD+OH9zKgQ794QQrzjD+8TCEAIoAIQUBCAEEADIAAhgANAQEMAGQFMAAIQAjgABJARwAEgoCOA0ghkAAJOpREQAgJxQQAZIS6Rhp+2CEAIIAgQcCqNvjr1BUACArFAABkhFmGGk04IQAhOCOF5LBCAEGIRZjjphACE4IQQnscCAQghFmGGk04IQAhOCOF5LBCAEEIQZv6VsR8c/IDy8vLo/DfnqbvytbHs+5SHDh1KXbt2DYEXwTYRQgh2fOj06dNUt7qOiu8tpmHDhlH37t1Vi9vPt9Ounbvo4MGDNHnKFHyJeIZxhBAyBDCb3Ts6OmjZsmU08cmJ1Kegj+lUbcfbqP6NeqqsrKROnTpl05xIjw0hBDi8e/bsofb2dho1apRu5aFDLerPgwcX6fe2bt1K+fn5VFxcHGBvgm0ahGARnxEPPEhv1K+lvn37qi3E35ubm2nO3Hl6z9/veFf/eWppKR058mf1d7n/i4sXqf0GDvw+ra6rc2TG8peXU1lZKXVLlEOsw9mzZ9V+N910k97/wvkLtGbtGiovL3ccEw3MEYAQPAiBiUIkPx/ihYUL1R9/Nn8+tbW10YLnn9cJz/q4FQAfr7q6Wi15xGv37t3qr2yTLF41NTU0c+ZM8NwjAhCCRyGIqz0fQs4iLDtUKWJgWUV+5iZeNS+9RDOfe86VEKqXLKHK2bPdDIs2Jgh4EkIcvijErjRiOLLn7GLlzvDhw9Wf+T0RZy4YL0JYsXwFTS2dqp8UsXHNMsLZr7+m19esoRkzZoDkHhHwJIQ4fHWUkxDMsoAd2b0IgW2WT586RSVjx+rhNdssNzQ0UK9evVLKJY+ciGU3T0LoufRLX8AK8tfLsrKGndY8NWkSra2vp9raVw2bXw4Aa1c6daqaFcQ9ggyQFyFcuXKFliglz+jRo2nIkCGmmO/bv5+2NTbSnDlzqFPnzr7EJY6DQAgWURdPhioqnjEIQSyB2DMmFjFD8J/FzbEXIbBxzpw5QytXrlTfIg8fMYJu6NFDHZ6dFDXvbKb9+/dRadk0vFDLUL0QQoYA5qI7/xOLAwf+SJcvXaZuyp9XXFX+hz+x8A/9nAmhKL8rVT2cTxPr23Trg1wa+QcxRgoDAjkRwoCe19E75YVUtu4EbTvSDiGEgRkxszHrQmAi2F5WSE//xigChjMyQszYFmB3fRHC8H7X087jF+jqVaOnd96iZYJnFBE0Hk5mAt4KQggwM2Jmmi9CWP/DvnTy3Lc0veEzHb5+3+tCTdMK6aebT9KmlnOmsEIIMWNbgN31RQhdOuXRlsl30EenL6ti6H1jZ9rxdH+ateUkbbQQAUqjALMihqb5IgSGGxPDm5P6qJnhof49aP5bn9OGQ+aZAKVRDJkWcJd9EwLzs/N38midUibVvfdX20wAIQScFTE0z1chpIsf9gjpIob22UIAQsgWshg3VAhACKEKF4zNFgKehBCHP8POFuAYN5gIeBJCHD6YE8xwwapsIeBJCNkyJkjjBuHD+0HCI+q2QAgWEbYTQq4+vB918gXJPwjBoxBy8eH9IBEl6rZACB6EwLrk4sP7USdfkPyDEDwKgXcTSyi/P7wfJKJE3RYIwSLCQfjwftTJFyT/IASLaATlw/tBIkuUbYEQohxd+OYaAQjBNVRoGGUEIIQoRxe+uUYAQnANFRpGGQEIIcrRhW+uEYAQXEOFhlFGAEKIcnThm2sEIATXUKFhlBGwFUKUHYdvQEBEAEIAH4CAggCEABoAAQgBHAACGgLICGACEIAQwAEgoCHw/x2coHNtFZbcAAAAAElFTkSuQmCC;" parent="1" vertex="1">
          <mxGeometry x="1120" y="1190" width="194" height="258" as="geometry" />
        </mxCell>
        <mxCell id="9ONS5Pu-zSQsGi_yFV8N-20" value="" style="shape=image;verticalLabelPosition=bottom;labelBackgroundColor=default;verticalAlign=top;aspect=fixed;imageAspect=0;image=data:image/png,iVBORw0KGgoAAAANSUhEUgAAAG4AAAAtCAYAAABPl145AAARI0lEQVR4Xu2aZ1RVVxaAP+Dx6L0qQgRUQhSjYgSjUWPEjigRHbErIBYiRgjFStRBRbElYiSIsWJXjEFFkSixx45d7AICjw4PeGUuJE5GY1yDZC2HWZy19MfjnrPLd/c+59y9VZTCoGHUOw+oNICrd8xqFG4AVz+5NYCrp9wawDWAq68eqKd6qygUioZTZT2Ep3L//v0GcPURXMN1oB5Sa7gO1E9oDfe4+sut4TpQX9nV6cuJUiatzraoiDTqq/31Vu+3BqesLCFr60jUtI0x84xBRU1cb51QHxV/a3BFZ+PI2uaDqpqIxj4/ot2i1xvsLyRh4XIK23ji29sJVeUTdqxMwdl3FHbaL0+TFhdSpaqFns7f8yL8N+tdP7ydu+K2DOjWvEaZsjtHmRt3EjdvX9xaW76Zq+Ixa4KXclNFBbGuJR7e/nRqYfDKnEou7Ilh/VVDZnw1EgtN1b9cU1GRwbY1p+k8YTD6peXomBgges3TbwVOXpLN4xXt0WzaGWVVGfLiTKwmpb0h6nKInRBKmoE9ocFBOJo9YumkzfRcNAcnvZe1+mX9Uq7r98DX88O/JRDS4qO4adQLn4Gt/3K90xujuSjuysShzsIzVRxYHMojRz/8+jmg9tc+rllPIb3G4ml7GBgdgv7tRCK+ecDs1dOxUlf5Q578BpET4+g+byEdLETC5vLXQ1l+mcXBh+g7w41DUakMiZqGjdqfn689OKWCvKQw8g5GYe61jOqUmbt/JhbDYtF38fkLjZ7zQ3gsas425BWY4D+uFd9N20jPyCDKk+PYcOgGmpZ2eHn35uDMYH5Ra05AaDi9W5kJ61VwIXEdm1MfYGCsj4NLf5zEt9m29xLN+wzDUe00e45eR9venS9H27N1ThyPtJXkFGoywrc/x2aHkyZqwZczwrDPSWXd/ovo2zgzenxv7iXGsuPXbMQV5dh+Oha/gR9SknWOOWNCeerYg7kzp1KWFs/GwzfRsLRlbMBE5Ce3kXAkA4c+Qxnm1hIVaTrRIT8yYFEIzTUr2b0wDNGgCD4qTmHtzrPoNG6Gg00p6xfvwnFyBEHdG7F701ou5psw1t8X0aUfyTDswsAuYrYsTsJ5fCeORO1Ex16d3T8coaVvGPNHd+dVdrUGV5l5hSdruiMrzMPYbboQcZXkH1uFhqBgk0nHUdNr9Bp4z4kLjqHVV4EU7YyjwLUzhQnHaT+xC/uikhm7bAaVR2NIKm9G2/Lb3NT+BJ9Bv0WIovA8/4xMw2d2IDc3hnNarw+fis+SlPkhcwJ6kH89he92H+DuTS2+XOnN1qmxDIqeR/neVVxp0pN2BSdJ1+nB+H7qhA2bidypNZUFElx7deHRyWx8Q8fzyzfB3LEbxbSaKK/kp6ULKe7oi5fjQ2bPPIb/8jBKD39LsuwDnPJPcULWhZk+nX+PuHSW/Rucgp+WR6DeawgXF0eSafMBoqJMWg7yQrr/FF2/DsFRlMf+7Qkc/OkkjsOn0Tr7OHdM+zLeXYsVAZvoOtuT4wuT6B7c/beIWxyIdZ0jTiEne9tois5uQUVVia7zUCHipJRcTRQ8rBRABmPSd/FrwX0f9A2OQV/jrDzPyrXrefLImvHhXdiz8hxTV3yB7GQC+yTGNJfcJsPYjbH9HWrWkeeeYuHqOwTPHsX17Uv4We6CqzidK3QS9ks1IhccofuYj0hbl4rbdA9SI5PwjJ5OgbCnnFa0xqH8PPdM3BnTQ0qIbzyffTWJlsK+oV12gdUJ+cwI8+L42gguG3sQMLjNb+CWRFLUcQJDmt9l1oJLhKyYIkTeZg4UW9Ls+XXum37GmH4f/DtVLgs9yNDlQVhKzhO96ByDQ7qz+avvaDV5Mh0aGWCsl82a8EQ8lgiZavdqzqq3pHnxBZ407oxD1nFumQ5iXG8l8wO24D5nsGDDTwK4Tzm05CSjlk7BvK57XOn1H8mMd0cpByFjYtBxNAohVRZf2C3kbSWqOjpYTUhB07rDK6Kesz5sDc0CwuncWI1ruyIJ35bD0o1zuRcXTXKGDB0tEwZNHofxzb0s3HUNT/8w3FqaCIIK2LtkHofzDTEuz8T04xF0Uk/nsgDQp48ZS79eTL6eEXKJOiPCPTm28AAeUV9SuHcNZxQudDW5xtJdVxk6JRDVk/Fsv1CGmW1TvAa7cW3DMtIqzdDOecJ7fSYz0d2pBtzB5VEUdxiDV0ct9q1axvFHCnS0zfGaPIay5HhuGPX8Nzil7DZfD4+goIU9phpauHqM5jMnM04nLGfDCQkWTa3pNaA9F9cdp9f8ICqPreM7IfVqyWTY9/Phc5sHfB1zFF1LDSR3tZi4eAipC3+i14wRJM38gpyOE5nr3YVXt9papcrqk6QkJQoVFYWASSHc3gV6L0Z164qKOqb9I9Fp9fkr4BRIS6WoaWmjXq2BUkZJaQVaujqoyaVkZeYi0jPB1EBLCLFK8iQSRLqmGGi9OE/JyJfkcfj7lRR8MIxxPZshV4rQ1BBRWSwht1SBgZ4OmtpiKssq0dDRqskEVUp1NNXl5OVJUNczR19TTk7mc2HXVMfE1BxNZQmZecXo6BmiJVZHLP5NXmV5GUqRJhrVysrLBf3yUNc3wURfC5m0HJmqGE3xi/wlpyQ/nyLBPrGuYIOhYEPNkJGXlU25oKehkREiIVupa2uhpqhCkpOLXF0HA30dxCJVCnKzKRV0NdLURkP3Dxsqi3MoqNTE0qT6BCfjya0M1BtZUvksu5ZfTuQyqgoeCo6vVqz6vxf/hHOSAE5FJEZk+J4A8E3nptfE/Rt/KiN53bek3MpFqjBhQmgA75u8cE5t16rPz5ew458x6Hv0I2/PwVqCeyd2KykvLqK8SiFEaHVk/J0vxTsx6K2Fyqtk1NxP5NXZrqE9760d+S4nNoB7l96vg+wGcHVw3ruc2gDuXXq/DrJVCgsLG3pO6uDAdzVVJSsrqwHcu/J+HeQ2pMo6OO9dTm0A9y69XwfZDeDq4Lx3ObUB3Lv0fh1kvzW4O7lnyCq6I3yWVMXK4H1sjdvVQY2GqbX1QK3BFUlz2HppBqcf7qKkQlLzPVlPw4wudiPwaj0HbfGr/RYvVFIiLczm4VMJaBnS1KYRGmp/53dHJaXCV3q0DdDR+P3LfVUxdx/mYWFtLej4mmrkf3hLKVQBMh8+pahCqC4YW2Fr8Xo7SiVPySoRY2tj9qdSy386Xy60dBQVyTA00X+lVUFBsVANyMotQK6miY29LdqqCvKzslAKFRFjoTrw34xagVMI5ZjonweTdn+fUI4AVcHvcuEyIRKiTipT0MthLP4d4wS5fwZSnnWF2O92UiLWokyignugLy5WQr3tvxoybv9yBnVHFyGyX9c6U71IFXvnz0ch1NU8natLj5WcipvH+sfNCZ7iRTPTN1cUCh8lEz55A40/aSk4UUK7AX54d2v2knbysjusmLUMefvhTB3WiTe5OO/uQdb+8JxR07rw7HYV7V2b/+6VQjZMDxGKqdZY6+WTq+ZKcIA7mWdSkNt9TLumf/Xiv+yoWoG79CyJqFQPpFVVNatUB4y2WJ/JnX7g2L04rjxLZrZbKi3MXF+WItS99kZHUvFJIEM7mFZXgJAJdanyXKGWVlCE2MQS1cIMHheo8J5DSyw0pOQJNbBMocVAZNQEW8MyYgLnIuszAT93FzTLn3LtZhYm7znQtJEehZn3yMiRcHnHAYw8J+HR1lx4OdJZErAYm4kRjOzclPKcB9zMyMbA2oHmjQ0pzHpGjiBby8IGKyNtJBmHiRUcHRgxAh4cJWLlNaZETcVMKN5eTX+KQRMbFI+SWBZzC/9ls3FUL+DGnYcoDG1oY29JQWYWqkYW6InKeP68AqVQYd+4+RFt28rYeyBXaL2YRBsrI8EvBWwKX4715Ll0tSplw9xINPv44P6+IQqhHqcolPBcUoCmxXuYivK5Jsg2sm6BndXLQGsFbuvFcBIuReLcpCva6gacepgoRFgMTY3bsijFHUlZDn6uK+n9fsDL4MpvsWh+CsPn+6M8t4/NKU/oPdqLh+siSS60w3vc52g8PkTSyevIDXowYZCIuYEJOH7mQHp6CcMDenJkVhQS1yEEeTtzIn4LT9BCxdiWwUJRNXHtdkR2Tbh74lc+DYnGs7UxOXePMe+LaAyHBjKlpwmbl29FaWlOTlY5Q6dN5M63szhW1YoxfkPoYGdaA+67uCdMWCBU4ZEQHzGPFmNDyU5YQ3qlUOA00MZcXELyj+kMioikn2UeCbsTOX21HL85k7kXsxod71B6GF9g6ZLreEz4gMNbrmJhkse+Y8/wCg5hsIvt7+CiMR8XQs9mOtzcv5QUZQfs7p+k2HUAmilrOZBnx9jxnbm9bz+PZRoodC0YMXYUTQ3+qIPXElwYWy4sxK3FPxjebjFXMg/zvnkXIX1+Tobkak1Z1afDcvo6Tn0ZXGUGS0N30S8ymKblj9m8aAU6HuPQTduJtNsUBrUWcWTLepKv3kKh9SF+o5uzLS6DsMhxJC+ah6z/cEQHtqM5OIiuasmMmbQJOxc7yjSFtoAPtLhb7MRE77bsjAhHxT2Qz9tVp8rqN3sVDkGzsL6xmZg0QyJC+nFrzz85Y9kHneQ9iDyD8GilX6Prb+Ce4r9gLEaKZ8TO24rrSBe+nfoNxu1bUKFmyuA+jpzbn8W4uSORXj7K2qTjPPj1If0WzEK2dRM6/wiiu8llVi5Np+/45hzc8pR+Qy1I2ldKwFcev3dqVesVjcX4UNzstTm/ZTX3bD/G+EIyRR/1R5y6jYoe0xhs9Sujx8Vi7dKMUhUz/Cf442D+R3KuFbi0B1v45sQIKoWNbUDLqQxp8zWrT47m1IO9NfU9dTUNgrvtpU3j3q/sXFKOrlzIOcPuTBRa4FLXrEDRzQvVo9uR95pCL/HPzN4pZfIwU7Yk3GfgEHsSNz0hcMFoUiIjqHAbhlrSJqRu/gxocptZ804IzvsSO2Mxkhv7iE2UMsHvE+JnzsZ2UjTD2pkK8oVezsBoWny1ACfJXqI2ZPOF0Bh0Jj4WLY/BFP2wAQ2vLxngVJ2+BHD3klix6i4+c0eRlfw9x/M/ZsJwDRYE7mLgrBCczDWpyPqZVavuMz1qBJvnLqLJEG9KEzci8vBD5/BqMttPpod6CvO3lfDFJEcSNzyi/xAL9mx7hu/MUUIjrLogKZ/1QZHoD59OF5MM4r9No2+YP0/jl1HQUcg8KduR9fqCgU1vERp2iOFzg3EQ7NTQENecKV6MWoGTyoqZl9yD9KyzCO0eNDZwILPoVs2eVSE0ELlY9yL400REQk/Gq0NZVcChhHUcvfwMfXtXpvgO4N7+vcha9xbmlbF5xTfcrDChVcvWdOpgzvnjefQd1o1re7ZT9WEfGj1LJObnXMb6jKHi4m4SDqejsGnL9JFunNnzPb/kqmItnG47DBpC+6bVPRpFHP3hABb9hghdXVJO7IjnwKnH2H3iiY+nM2cSdiD+2J32Nro1qpbnXSFmwXqy1LWwc+7BiM8/RVdNwY3UBDbu+xW5VUu8+7Xm4cVCenh359mJHWxMvoae0L3cfeQYWknPMS82CUzNhIbfNnRxs+R8ai7d+jqwY9VCZM5+TOxd3RlWTuq6NRy49hQdY2sG+vjRRmgUurh/N9L3XVFPP4WsVU9cm+ly+fBGEg5eRWHlxBSf0Vgb/EGuVuCqDXxUcJXYM5O49TxNiLzfTpZiNTWcGrnh6/It5rp2f4L2Nj9UF+ZVXuld+c/fagr3wt+rTXnds28j8395Tl56Kkfu6NKhWQmXnhq/XeuCVFbC2Ud7eCC5KIBTw96kAx/ZeLw20v6XnVGfdMu7eVK4hmnT1raUa5lGbweuPhn8/6prrVPl/6sj6ptd/wKNnj7Y8TfjwgAAAABJRU5ErkJggg==;" parent="1" vertex="1">
          <mxGeometry x="979" y="1200" width="110" height="45" as="geometry" />
        </mxCell>
        <mxCell id="9ONS5Pu-zSQsGi_yFV8N-21" value="" style="shape=image;verticalLabelPosition=bottom;labelBackgroundColor=default;verticalAlign=top;aspect=fixed;imageAspect=0;image=data:image/png,iVBORw0KGgoAAAANSUhEUgAAASgAAAAgCAYAAAChI+XAAAAGmklEQVR4Xu1bTWhcVRj9AhZMAi4EXWmnGQ3txoU/qF2Y1k4xCy0YxYVZtAU3FcGJO+2iQ7rpsh1BWtSGRiUFwVpoRQYblEF0IaniSq0mmVbdFFwopkWRet/vvHvf/Xv3vUku4bxd896779zznXvu9313OnSLXYQLDIABMOAhA0MwKA+jAkhgAAyEDMCgIAQwAAa8ZQAG5W1oAAwMgAEYFDQABsCAtwzAoLwNDYCBATAAg4IGwAAY8JYBGJS3oQEwMAAGYFDQABgAA94yAIPyNjQABgbAAAwKGgADYMBbBjbEoC7/dpN++eMfeuGBO7wlBsDAABjYeAbW3aCWmDntfXeFdo2N0vn9WzeeASAAA2DAWwbW1aC++/0m7Xp7hR65Z5g+OVij228b8paYaoB1qfXQSap/fJYO1IqMGLzXJDrxLc1OFHlvkzzbPUIPz1wg2tGkcwsHqRB1g6KgEkyuelBNavPrZN0M6ptfb7DMadXZnLqtB+k1ptn0Goh4ByEgF4Ma1CrzYVwTxz2an36Wlg9Vac7RQr7ITX8HvWq9cVSFKTt3Ew9lMbvG2oTLdVy399bFoAJz2vPOKj16r0vmFAXqSvM8LWTSkG7rCNHsUao2wag6OFWP5xZkv94ycWK67zIbyZhxRvSMVZZaFaaiBiVsboUwu/AUvFPVXF2/z79XyqA+/P5Pqt+5JcyKVNfXV2/QU6dX6fGtw3SBGUzRsi7InE7VeXPivxUTemKSOjNt+jHJrJKUPH64L0TheXY/vFc7Q9NT7P1k8H1tWpLVV8pxoxezmd72ZpPG2524xFN8l+JyJsEROq5EyMn8uOfkrPMY+txxWSiXgSqwJe7PzXkfHb+cbAxRZvHmDwGObEbiyrGQNWRiYI1dmlkrFl0wr1P1TBkpm48Ck0lfaXYmieVbTKuvmLRmg1mjk5QHVYwket1/gOi9eekaKML/4fE2fZRdszHPS6xcL3qVMqip96/S4s9/U+elbbSTGZB4fdVbo8m5Hj3GMqeLTj0nGzePBcQJkwWl9Tntno37F6GYKF5YwvO5e7qSTDcuUW/+RXquM5kKPvx3m+JSQvZdVrMmi1CJQ4c3H24eQ4+6XaKJiVoOWyg4SkzYxMklaqSm1P8mN0aPGfwbRMfCnpFpPB3H+ZiLvGqxS1eASkf83/XzyWI26Sv7rCprMmnbBrM4NitjBYNWz0nUa6KVXq5vWpj/QMuLe9MN3pxkqG2rlEH9+98tevpMj75cXQtN6oltI+mXAnMKek47ayPuDfFA9FPLdEi7Y5sCrchIdDucdW/ClLLr7ou4bYWsm6+NqJMQBc8mxmOLJSsk8Z1gp36dOVRwIOAyXhaXaoHbYJeJ3YaXIvMRv2EbZ5NedPzK+DGN5zInXexs+c9qK9DFaRpbcGvHlDKoAG5iUt2VtdCIGvePUiXmFHKRnagqeHLxRdlLWHvEV1KClFk88a6jHFfMNGyFqzNRG8HIhCPyVRZb1GTmS2VV47kMx7J3i2AvalBZk7adj0kHg86gZBuLbB0Ef9PNSZYZV8N/kDUtNuLWyVydFhyPo0sbVGJSz39wjT796S9qNe6mY19cZyXfSNhzGt5S5qcEUf3cmRR7UIadI9dbsDUKQzZWaNwimVuVBiUrn1Titcmgim0M0dNVG5Q4J132Z29Q4Sa2/HJcihTITAvpwDYz1mVl/XtqzKoYq8ppm6xSFksxcVCME5d55+onaW7srPPPZSoxqGwm9RnrSe25b9S9rBPjFJZ5bRrnTluKGVS+F2Szw0mELgiTHzdukKd9naRhbpO5VWVQIoZ+DyrsRVzp/64o38cxlVUBRv64nR9DZWQmozYvzGLY7QxKjF2IkuvLaeaj1QG/qaq1Z9gMJadpecymEk83J5VW8j0oN/4ZtulLIYkNx/IueLcyg0pM6ujidTr85F0lMyeZaPlUdXv6swNZoLMnF0TS0zRpDyqTuktP8XTj9hdwdKoVlEOsQz6TLHxTqWa705qEzWPMHqMbT2KUfbk+933eE+PJxCVt0OrnmpbfUo7l87PHrjIoodRRnvbZzMegg8wJn057Zh5MmM0GFWWzsjnJ9Br99kyGy4V/teHLYiT/W6UGZf9ZPAkGwMBmZyDtQ5X4sSIMarOrBPMDAxvBQO4E3g0EDMqNN7wFBsCAgoGoHCzyX4nUVMKgIDMwAAa8ZQAG5W1oAAwMgAEYFDQABsCAtwzAoLwNDYCBATAAg4IGwAAY8JYBGJS3oQEwMAAG/gdXNJIKZl7JbAAAAABJRU5ErkJggg==;" parent="1" vertex="1">
          <mxGeometry x="979" y="1143.5" width="296" height="32" as="geometry" />
        </mxCell>
        <mxCell id="9ONS5Pu-zSQsGi_yFV8N-25" value="" style="endArrow=classic;html=1;rounded=0;strokeWidth=3;fillColor=#e1d5e7;strokeColor=#9673a6;exitX=0;exitY=0.5;exitDx=0;exitDy=0;entryX=0.859;entryY=0.956;entryDx=0;entryDy=0;entryPerimeter=0;" parent="1" source="9ONS5Pu-zSQsGi_yFV8N-42" target="9ONS5Pu-zSQsGi_yFV8N-40" edge="1">
          <mxGeometry width="50" height="50" relative="1" as="geometry">
            <mxPoint x="900" y="860" as="sourcePoint" />
            <mxPoint x="628" y="649" as="targetPoint" />
          </mxGeometry>
        </mxCell>
        <mxCell id="9ONS5Pu-zSQsGi_yFV8N-26" value="" style="endArrow=classic;html=1;rounded=0;strokeWidth=3;fillColor=#fff2cc;strokeColor=#d6b656;entryX=1;entryY=0.5;entryDx=0;entryDy=0;exitX=0;exitY=0.5;exitDx=0;exitDy=0;" parent="1" source="9ONS5Pu-zSQsGi_yFV8N-30" target="9ONS5Pu-zSQsGi_yFV8N-41" edge="1">
          <mxGeometry width="50" height="50" relative="1" as="geometry">
            <mxPoint x="961.8" y="410" as="sourcePoint" />
            <mxPoint x="630" y="755" as="targetPoint" />
          </mxGeometry>
        </mxCell>
        <mxCell id="9ONS5Pu-zSQsGi_yFV8N-30" value="" style="rounded=0;whiteSpace=wrap;html=1;fillColor=none;strokeColor=#d6b656;" parent="1" vertex="1">
          <mxGeometry x="1360" y="860" width="60" height="30" as="geometry" />
        </mxCell>
        <mxCell id="9ONS5Pu-zSQsGi_yFV8N-32" value="" style="endArrow=classic;html=1;rounded=0;strokeWidth=3;fillColor=#d5e8d4;strokeColor=#82b366;entryX=1;entryY=0.5;entryDx=0;entryDy=0;exitX=0;exitY=0.5;exitDx=0;exitDy=0;" parent="1" source="9ONS5Pu-zSQsGi_yFV8N-31" target="9ONS5Pu-zSQsGi_yFV8N-38" edge="1">
          <mxGeometry width="50" height="50" relative="1" as="geometry">
            <mxPoint x="958" y="420" as="sourcePoint" />
            <mxPoint x="630" y="705.5000000000002" as="targetPoint" />
          </mxGeometry>
        </mxCell>
        <mxCell id="9ONS5Pu-zSQsGi_yFV8N-35" value="" style="endArrow=classic;html=1;rounded=0;strokeWidth=3;fillColor=#f8cecc;strokeColor=#b85450;exitX=0;exitY=0.5;exitDx=0;exitDy=0;entryX=1;entryY=0;entryDx=0;entryDy=0;" parent="1" source="9ONS5Pu-zSQsGi_yFV8N-39" target="9ONS5Pu-zSQsGi_yFV8N-36" edge="1">
          <mxGeometry width="50" height="50" relative="1" as="geometry">
            <mxPoint x="507.5" y="803" as="sourcePoint" />
            <mxPoint x="370" y="690" as="targetPoint" />
          </mxGeometry>
        </mxCell>
        <mxCell id="9ONS5Pu-zSQsGi_yFV8N-37" value="Grant Type: Client Credentials" style="rounded=0;whiteSpace=wrap;html=1;fontSize=17;fillColor=#f5f5f5;fontColor=#333333;strokeColor=#666666;" parent="1" vertex="1">
          <mxGeometry x="550" y="370" width="260" height="40" as="geometry" />
        </mxCell>
        <mxCell id="9ONS5Pu-zSQsGi_yFV8N-38" value="Client Id" style="rounded=0;whiteSpace=wrap;html=1;fontSize=17;fillColor=#d5e8d4;strokeColor=#82b366;" parent="1" vertex="1">
          <mxGeometry x="550" y="410" width="260" height="40" as="geometry" />
        </mxCell>
        <mxCell id="9ONS5Pu-zSQsGi_yFV8N-39" value="Scope (api://1234.../.default)" style="rounded=0;whiteSpace=wrap;html=1;fontSize=17;fillColor=#f8cecc;strokeColor=#b85450;" parent="1" vertex="1">
          <mxGeometry x="550" y="450" width="260" height="40" as="geometry" />
        </mxCell>
        <mxCell id="9ONS5Pu-zSQsGi_yFV8N-40" value="Token Url" style="rounded=0;whiteSpace=wrap;html=1;fontSize=17;fillColor=#e1d5e7;strokeColor=#9673a6;" parent="1" vertex="1">
          <mxGeometry x="550" y="530" width="260" height="40" as="geometry" />
        </mxCell>
        <mxCell id="9ONS5Pu-zSQsGi_yFV8N-41" value="Client Secret" style="rounded=0;whiteSpace=wrap;html=1;fontSize=17;fillColor=#fff2cc;strokeColor=#d6b656;" parent="1" vertex="1">
          <mxGeometry x="550" y="490" width="260" height="40" as="geometry" />
        </mxCell>
        <mxCell id="9ONS5Pu-zSQsGi_yFV8N-42" value="" style="rounded=0;whiteSpace=wrap;html=1;fillColor=none;strokeColor=#9673a6;" parent="1" vertex="1">
          <mxGeometry x="948" y="1080" width="382" height="50" as="geometry" />
        </mxCell>
        <mxCell id="9ONS5Pu-zSQsGi_yFV8N-43" value="Requet OAuth2 Token" style="rounded=0;whiteSpace=wrap;html=1;fontSize=17;" parent="1" vertex="1">
          <mxGeometry x="550" y="330" width="260" height="40" as="geometry" />
        </mxCell>
        <mxCell id="9ONS5Pu-zSQsGi_yFV8N-44" value="" style="rounded=0;whiteSpace=wrap;html=1;fillColor=#f5f5f5;fontColor=#333333;strokeColor=none;" parent="1" vertex="1">
          <mxGeometry x="350" y="400" width="120" height="90" as="geometry" />
        </mxCell>
        <mxCell id="9ONS5Pu-zSQsGi_yFV8N-45" value="" style="rounded=0;whiteSpace=wrap;html=1;fillColor=#f5f5f5;fontColor=#333333;strokeColor=none;" parent="1" vertex="1">
          <mxGeometry x="340" y="590" width="160" height="20" as="geometry" />
        </mxCell>
        <mxCell id="9ONS5Pu-zSQsGi_yFV8N-36" value="" style="rounded=0;whiteSpace=wrap;html=1;fillColor=none;strokeColor=#b85450;" parent="1" vertex="1">
          <mxGeometry x="210" y="590" width="290" height="30" as="geometry" />
        </mxCell>
        <mxCell id="9ONS5Pu-zSQsGi_yFV8N-47" value="" style="rounded=0;whiteSpace=wrap;html=1;fillColor=#f5f5f5;fontColor=#333333;strokeColor=none;" parent="1" vertex="1">
          <mxGeometry x="1243.5" y="390" width="145" height="30" as="geometry" />
        </mxCell>
        <mxCell id="9ONS5Pu-zSQsGi_yFV8N-31" value="" style="rounded=0;whiteSpace=wrap;html=1;fillColor=none;strokeColor=#82b366;" parent="1" vertex="1">
          <mxGeometry x="948" y="390" width="442" height="30" as="geometry" />
        </mxCell>
        <mxCell id="9ONS5Pu-zSQsGi_yFV8N-48" value="" style="rounded=0;whiteSpace=wrap;html=1;fillColor=#f5f5f5;fontColor=#333333;strokeColor=none;" parent="1" vertex="1">
          <mxGeometry x="1200" y="423" width="163.5" height="57" as="geometry" />
        </mxCell>
        <mxCell id="9ONS5Pu-zSQsGi_yFV8N-49" value="POST {{token_url}}&lt;br style=&quot;font-size: 13px;&quot;&gt;Content-Type: application/x-www-form-urlencoded&lt;br style=&quot;font-size: 13px;&quot;&gt;&lt;br style=&quot;font-size: 13px;&quot;&gt;grant_type={{grant_type}}&amp;amp;client_id={{client_id}}&amp;amp;client_secret={{client_secret}}&amp;amp;scope={{scope}}&lt;div style=&quot;font-size: 13px;&quot;&gt;&lt;br style=&quot;font-size: 13px;&quot;&gt;&lt;/div&gt;" style="rounded=0;whiteSpace=wrap;html=1;fontSize=13;" parent="1" vertex="1">
          <mxGeometry x="520" y="190" width="330" height="130" as="geometry" />
        </mxCell>
        <mxCell id="9ONS5Pu-zSQsGi_yFV8N-50" value="&lt;div style=&quot;font-size: 16px;&quot;&gt;&lt;font style=&quot;font-size: 16px;&quot;&gt;Possible user roles are setup for the resource App.&lt;/font&gt;&lt;br style=&quot;font-size: 16px;&quot;&gt;&lt;font style=&quot;font-size: 16px;&quot;&gt;The Client app can request any of the roles, but they require admin consent&lt;br style=&quot;font-size: 16px;&quot;&gt;&lt;br style=&quot;font-size: 16px;&quot;&gt;There roles will be than part of the token&lt;/font&gt;&lt;br style=&quot;font-size: 16px;&quot;&gt;&lt;/div&gt;" style="rounded=0;whiteSpace=wrap;html=1;align=center;fontSize=16;" parent="1" vertex="1">
          <mxGeometry x="50" y="961.5" width="450" height="160" as="geometry" />
        </mxCell>
        <mxCell id="9ONS5Pu-zSQsGi_yFV8N-52" value="" style="endArrow=classic;html=1;rounded=0;exitX=1;exitY=0.5;exitDx=0;exitDy=0;strokeWidth=3;" parent="1" source="9ONS5Pu-zSQsGi_yFV8N-50" edge="1">
          <mxGeometry width="50" height="50" relative="1" as="geometry">
            <mxPoint x="630" y="1020" as="sourcePoint" />
            <mxPoint x="960" y="1220" as="targetPoint" />
          </mxGeometry>
        </mxCell>
        <mxCell id="9ONS5Pu-zSQsGi_yFV8N-53" value="" style="endArrow=classic;html=1;rounded=0;exitX=1;exitY=0.75;exitDx=0;exitDy=0;entryX=0.75;entryY=0;entryDx=0;entryDy=0;strokeWidth=3;" parent="1" source="9ONS5Pu-zSQsGi_yFV8N-9" target="9ONS5Pu-zSQsGi_yFV8N-50" edge="1">
          <mxGeometry width="50" height="50" relative="1" as="geometry">
            <mxPoint x="630" y="1020" as="sourcePoint" />
            <mxPoint x="680" y="970" as="targetPoint" />
          </mxGeometry>
        </mxCell>
      </root>
    </mxGraphModel>
  </diagram>
</mxfile>
